<?xml version="1.0" standalone="no"?>
<!DOCTYPE svg PUBLIC "-//W3C//DTD SVG 1.1//EN" "http://www.w3.org/Graphics/SVG/1.1/DTD/svg11.dtd" >
<svg xmlns="http://www.w3.org/2000/svg" xmlns:xlink="http://www.w3.org/1999/xlink" version="1.1">
<metadata></metadata>
<defs>
<font id="palooka_bbitalic" horiz-adv-x="450" >
<font-face units-per-em="2048" ascent="1536" descent="-512" />
<missing-glyph horiz-adv-x="464" />
<glyph unicode="&#x28;c&#x29;" horiz-adv-x="1361" d="M101.5 431q9.5 136 41.5 269q35 141 97.5 256t163 202t242.5 144.5t335 81.5q35 4 64.5 6.5t58.5 2.5q141 0 226 -49.5t125 -133.5t39 -197.5t-34 -242.5q-4 -16 -8 -30.5t-8 -30.5q-37 -133 -103.5 -261.5t-168 -233.5t-240 -177.5t-320.5 -97.5q-29 -4 -57.5 -6.5 t-52.5 -2.5q-166 0 -254 71t-122 182.5t-24.5 247.5zM305 711q-154 -627 238 -627q39 0 88 6q33 4 84 14.5t113.5 35t130 68.5t132 117.5t120 182t92.5 260.5q29 117 28.5 198t-18 133t-49 80.5t-67.5 42t-70.5 15.5t-59.5 2t-50.5 -2t-51.5 -6q-172 -23 -287 -67 t-188.5 -109.5t-115.5 -151.5t-69 -192zM400.5 461q-11.5 94 29.5 227q27 86 66 147.5t77 102.5q43 47 93 78q96 53 182 72.5t153 19.5q59 0 100.5 -8t57.5 -19q25 -10 23 -21t-23 -34q-18 -23 -40.5 -56.5t-43.5 -66.5q-23 -37 -45 -78q-16 -18 -31 -18q-8 0 -14 2 q-29 14 -60.5 19.5t-58.5 -3.5q-68 -20 -98.5 -51t-46.5 -61q-18 -35 -29.5 -89.5t8.5 -105.5q14 -35 56 -35q20 0 42.5 7.5t42 16.5t33 17t15.5 8q12 4 28.5 12.5t34.5 -14.5q10 -14 18.5 -38.5t12.5 -49.5q6 -28 10 -61q2 -10 -9 -36t-56 -42q-78 -45 -150.5 -63.5 t-134.5 -18.5q-74 0 -124 21.5t-68 54.5q-39 70 -50.5 164z" />
<glyph unicode="&#x28;R&#x29;" horiz-adv-x="643" d="M227 924.5q4 62.5 19 122.5q29 121 109.5 194.5t246.5 95.5q76 10 123 -7t69.5 -53t22.5 -88.5t-14 -111.5t-41 -118.5t-71 -107.5t-104.5 -83t-142.5 -45q-88 -10 -135 16.5t-66.5 74.5t-15.5 110.5zM311 1051q-61 -264 103 -265h19.5t19.5 2q20 2 58 11.5t81 38t82 85 t63 152.5q18 76 11 117t-27.5 59.5t-45 21.5t-38.5 3q-10 0 -21.5 -1t-23.5 -3q-74 -10 -122 -28.5t-80 -46.5t-49 -64.5t-30 -81.5zM371 827q-4 0 0 11q14 78 26 145q10 55 20.5 106.5t14.5 65.5q0 2 2 6t10 10q4 2 20.5 12.5t39 20.5t49.5 19.5t51 9.5q18 0 33.5 -7 t24.5 -26l4 -20q0 -10 -1 -22.5t-6 -29.5q-4 -16 -13 -34.5t-25 -40.5l-17 -17q-8 -8 -18.5 -19t-26.5 -22q8 -31 14.5 -59.5t6.5 -42.5q-4 -10 -19 -16q-8 -4 -16 -10.5t-17 -10.5q-18 -14 -24 -6q-4 29 -13.5 54.5t-19.5 41.5h-2q-4 -20 -8 -39q-4 -16 -7 -30.5t-5 -20.5 q0 -2 -5 -6q-8 -8 -18 -10q-8 -2 -16.5 -4t-16.5 -5q-8 -2 -18 -4q-2 -2 -4 0zM489 1026q31 23 50 41q8 8 12 18q16 23 19 35.5t1 16.5q-2 6 -10 6q-18 0 -35 -8q-8 -4 -14 -11q0 -2 -4 -16t-8 -33q-6 -23 -11 -49z" />
<glyph horiz-adv-x="0" />
<glyph unicode="&#xd;" horiz-adv-x="464" />
<glyph horiz-adv-x="0" />
<glyph horiz-adv-x="0" />
<glyph unicode=" "  horiz-adv-x="464" />
<glyph unicode="&#x09;" horiz-adv-x="464" />
<glyph unicode="&#xa0;" horiz-adv-x="464" />
<glyph unicode="!" horiz-adv-x="481" d="M-18 80q10 35 31.5 80t60.5 69q39 25 89 41.5t95 16.5q35 0 58.5 -13.5t23.5 -44.5q2 -41 -23.5 -91t-70.5 -83q-41 -31 -95.5 -50t-95.5 -17q-47 2 -65.5 21.5t-7.5 70.5zM115 406q4 14 8 30.5t8 36.5q12 43 29.5 95.5t36 103.5t34 97t25.5 77q10 39 26.5 85t35 92 t37 91t36.5 84t41 56.5t72 31.5q47 12 112.5 29.5t106.5 19.5q23 0 34 -5t12 -14t-3 -23.5t-12 -30.5q-8 -18 -19.5 -40t-28 -50.5t-38 -68.5t-47.5 -97q-35 -78 -65 -144.5t-52 -116.5q-8 -14 -25.5 -54t-38 -86t-38 -86t-23.5 -54q-12 -31 -46 -38t-83 -19 q-16 -4 -40 -11.5t-46.5 -10.5t-37.5 0t-11 20z" />
<glyph unicode="&#x22;" horiz-adv-x="763" d="M176.5 809q-2.5 14 3.5 37q2 10 12.5 51t22.5 91t25.5 97.5t19.5 69.5q12 47 30.5 62.5t24.5 19.5q4 2 29 8t57.5 14.5t68.5 18.5t62 20q27 10 41.5 6t20.5 -13t6 -20t-2 -18q0 -2 -5 -17t-12.5 -40t-16.5 -55.5t-19 -61.5q-22 -74 -53 -166q-10 -31 -29 -47t-35 -20 q-8 -2 -42 -11.5t-73 -19.5t-73.5 -18.5t-42.5 -5.5q-18 4 -20.5 18zM575 852q2 10 12.5 51t23 91t25.5 97.5t19 69.5q10 47 28.5 62.5t27.5 19.5q4 2 28.5 8t57 14.5t68.5 18.5t63 21q27 10 41 6t20 -13.5t6 -20.5t-2 -17q0 -2 -5 -17.5t-12 -40t-16.5 -55.5t-19.5 -62 q-22 -73 -53 -165q-10 -31 -28.5 -47.5t-35.5 -20.5q-8 -2 -41.5 -11.5t-73.5 -19.5t-75 -18t-43 -6q-29 8 -15 55z" />
<glyph unicode="#" horiz-adv-x="1042" d="M31 211q2 16 8 44t12 55.5t10.5 49t6.5 25.5q4 10 9 27.5t34 36.5q12 4 28 10q14 4 35 9t45 13q10 35 17.5 69t15.5 68q-35 -10 -58.5 -17t-37.5 -11q-12 0 -21 4q-20 8 -14 37q2 16 8 43.5t11 55.5t9.5 49.5t4.5 25.5q4 10 10 27.5t37 35.5q14 4 35 11q16 4 38.5 10 t51.5 16q10 39 18 72t14 55q8 27 13 49q6 29 15 43.5t20 22.5q10 8 22 12q49 12 94 25q39 10 78 21.5t64 17.5q25 4 34 -2.5t13 -16.5q4 -12 0 -30q-16 -45 -30.5 -89.5t-25.5 -85.5q33 10 67 19.5t69 19.5q14 45 25 83t22 67q10 33 18 57q8 29 18.5 43.5t20.5 22.5t23 10 q47 10 92 20q39 8 78.5 17.5t64.5 13.5q23 4 32 -3t13 -17q2 -12 -2 -31q-41 -98 -74 -191q23 6 38.5 10.5t21.5 4.5q55 10 55 -29q0 -10 -9 -36.5t-20.5 -56.5t-21.5 -56.5t-12 -34.5q-6 -20 -13.5 -40t-36.5 -34q-8 -4 -36.5 -12t-71.5 -21q-10 -29 -19.5 -57.5 t-19.5 -54.5q23 4 36 8t19 6q51 6 51 -29q0 -10 -9 -36.5t-20.5 -57.5t-21.5 -57.5t-12 -34.5q-6 -23 -12.5 -40t-34.5 -34q-6 -2 -28.5 -9t-57.5 -17q-16 -53 -24.5 -89t-12.5 -51q-12 -49 -42 -64t-38 -18q-4 -2 -41 -4t-123 -28q-35 -10 -48 -4t-17 16q-6 12 0 33 q6 23 14 52.5t18 66.5q-29 -8 -56.5 -16.5t-55.5 -16.5q-16 -63 -22.5 -103.5t-10.5 -56.5q-6 -25 -17.5 -41t-23.5 -25.5t-22.5 -13.5t-12.5 -4q-6 -2 -43 -7t-123 -36q-33 -12 -47 -7t-18 15q-6 12 -2 33q4 27 12 65.5t19 90.5q-61 -18 -87 -29q-12 0 -20 4q-18 6 -12 37z M530 578q33 10 64.5 19t64.5 19q10 31 18.5 62t18.5 61q-31 -8 -63.5 -16t-67.5 -18q-10 -33 -17 -65t-18 -62z" />
<glyph unicode="$" horiz-adv-x="755" d="M77 17q1 24 4 49.5t8 48t9 37.5q4 14 13.5 24t19.5 19q12 8 29 14q31 6 71.5 25.5t81.5 45t74 53t47 52.5q23 37 19 59.5t-19 36.5q-16 14 -45 23q-55 16 -100 33q-41 14 -77 30.5t-52 32.5q-8 8 -16.5 22.5t-14.5 35t-6 47t10 61.5q12 47 48 107.5t104 138.5 q33 39 68.5 72.5t74.5 62.5q4 39 9 69.5t9 53.5q4 25 9 47q6 51 26 72q8 10 23 14l92 37q39 16 78 29.5t63 23.5q25 8 36 2t15 -16q4 -12 3 -31q-4 -27 -10.5 -54.5t-12.5 -56.5q18 8 33.5 13.5t25.5 9.5q12 4 23 6q10 2 30.5 3t24.5 -11q2 -6 -1 -37t-8 -69t-10 -74.5 t-7 -55.5q-4 -20 -15.5 -33.5t-23.5 -23.5q-14 -10 -33 -18q-98 -20 -145.5 -50t-71.5 -47q-49 -37 -70.5 -61.5t-25.5 -40.5t2 -24.5t15 -13.5t19.5 -8t12.5 -5t26.5 -5.5t58.5 -12.5t69.5 -25.5t63 -46t38 -74.5t-7.5 -109q-11 -32 -25 -65q-37 -78 -84 -139.5 t-100 -110.5q-10 -66 -14.5 -109t-6.5 -55q-4 -25 -13 -42t-20.5 -28.5t-21.5 -16.5l-14 -7t-42 -11.5t-122 -48.5q-33 -16 -48.5 -13t-21.5 13q-8 10 -4 33q0 14 2 33.5t6 44.5q-10 -4 -18 -7t-13 -5q-16 -8 -40.5 -18.5t-47 -15.5t-40 -2t-21.5 21q-6 18 -5 42z" />
<glyph unicode="%" horiz-adv-x="1318" d="M125 -45q2 16 14 35q18 31 59.5 89t97.5 137t123.5 172t139.5 192q-66 -27 -123 -35q-43 -6 -76 -6q-31 0 -58.5 5t-55.5 19q-45 25 -68.5 68t-30.5 96q0 23 2.5 47.5t8.5 46.5q10 37 29.5 74t41.5 72q29 45 68 93t80 83q49 39 116.5 69.5t122.5 44.5q49 14 109 15 q66 0 115 -19q29 -10 47 -37.5t28 -56.5q10 -41 7 -82q43 57 77.5 104.5t59.5 82.5q29 39 53 71q20 29 36.5 41.5t27.5 16.5q12 6 22 4q45 -6 86 -13q35 -4 70 -10t57 -10q23 -4 28 -16.5t1 -24.5q-4 -14 -15 -31q-123 -152 -256 -324.5t-256 -338.5q29 14 58.5 24.5 t54.5 16.5q51 14 109 14q63 0 118 -18q29 -10 46.5 -38t25.5 -57q23 -78 -6 -172q-10 -41 -29.5 -82t-44.5 -81q-66 -115 -171 -188t-228 -91q-41 -6 -74 -6q-31 0 -59.5 5t-55.5 19q-45 25 -69.5 69t-28.5 97l2 2q-57 -78 -93 -129t-46 -65q-33 -47 -63.5 -53.5t-36.5 -6.5 q-4 2 -35 12.5t-115 14.5q-33 2 -41 13.5t-6 25.5zM443 834.5q3 -17.5 24 -27.5q14 -6 31.5 -4t36 10t35 20.5t28.5 24.5q29 29 39 70q14 45 -12 61q-12 8 -31 7t-39 -9t-38.5 -19.5t-31.5 -25.5q-12 -16 -23 -34.5t-16 -35.5q-6 -20 -3 -37.5zM857 247q3 -18 24 -28 q12 -6 29.5 -4t36 10t35 20.5t28.5 24.5t22 30.5t17 37.5q14 45 -13 63q-12 8 -31.5 7.5t-39 -8t-37 -19.5t-29.5 -27q-31 -35 -41 -69q-4 -20 -1 -38z" />
<glyph unicode="&#x26;" horiz-adv-x="1085" d="M27 164q4 20 8 39.5t8 38.5q20 70 56 131t71 108q41 53 86 101q-49 2 -76.5 20.5t-38 49t-7.5 68.5t16 77q14 47 33.5 91t35.5 73q47 86 111.5 151.5t138.5 113.5t152.5 80.5t154.5 53.5q176 49 369 55q23 -2 22.5 -13t-10.5 -34q-6 -10 -24.5 -48t-41 -82t-43 -82 t-26.5 -48q-12 -20 -31 -25q-8 -2 -18 0q-8 0 -19.5 1t-35 0t-64.5 -5t-109 -10q-55 -6 -95 -23.5t-66.5 -41t-42 -49t-21.5 -46.5q-20 -53 64 -53q39 0 94 8t127 25q10 2 11 -5t-2 -17.5t-7 -20.5t-4 -15q-2 -4 -17.5 -38.5t-34 -77.5t-36 -81t-23.5 -46q-12 -18 -33 -25 q-10 -4 -22 -6q-6 -2 -14 -4t-19.5 -5t-28.5 -7q-27 -6 -54 -23.5t-51 -40t-41 -49.5t-23 -49q-8 -25 -2 -42.5t34 -21.5q25 -4 65 7.5t80 27t70.5 30.5t36.5 19t11.5 14.5t11.5 21.5t10 21.5t6 16.5q10 39 26.5 85t35 92t37 91t36.5 84t41 56.5t70 31.5q25 6 54.5 14.5 t60 15.5t58.5 13.5t46 6.5q49 2 48 -19.5t-15 -54.5q-8 -18 -20.5 -40t-28 -50.5t-37 -68.5t-47.5 -97q-35 -78 -66 -144.5t-53 -115.5q-6 -16 -23.5 -56.5t-38 -85.5t-38 -86t-23.5 -55q-12 -29 -47 -36t-84 -19q-14 -4 -38 -11.5t-46.5 -10.5t-37.5 0t-13 20q4 16 9 36.5 t13 45.5q-80 -43 -145.5 -67.5t-113.5 -37t-78.5 -16.5t-41.5 -4q-12 0 -48 -3t-72.5 9t-63.5 49t-18 119z" />
<glyph unicode="'" horiz-adv-x="415" d="M207 846q2 10 12 51t22.5 91t25 97.5t18.5 69.5q12 47 30.5 62.5t24.5 19.5q4 2 28.5 8t57.5 14.5t68.5 18.5t62.5 20t42 6t21.5 -13t6.5 -20t-2 -18q0 -2 -5.5 -17t-13.5 -40t-17 -55.5t-20 -61.5q-22 -74 -53 -166q-10 -31 -27.5 -47t-33.5 -20q-8 -2 -43 -11.5 t-74 -19.5t-74 -18.5t-43 -5.5q-29 8 -14 55z" />
<glyph unicode="(" horiz-adv-x="579" d="M45 103q-2 85 7 166t24.5 150.5t29.5 117.5q8 31 13.5 48t9.5 31.5t8 28.5t13 39q37 131 79.5 235.5t89 186.5t93.5 143.5t90 106.5q101 104 203 149q18 10 35.5 12.5t29.5 -14.5q12 -14 26.5 -39.5t27 -54.5t19.5 -54.5t5 -37.5q-6 -27 -25 -45q-8 -10 -18 -19 q-125 -70 -220.5 -211t-156.5 -358q-6 -16 -9 -32.5t-9 -33.5q-37 -150 -48.5 -254t-6.5 -174.5t22.5 -112.5t37 -64.5t36 -33t22.5 -16.5q12 -20 8 -35q-2 -8 -6 -12q-8 -12 -27.5 -37.5t-42 -52.5t-43 -50.5t-30.5 -35.5q-25 -27 -43.5 -32t-28.5 -1q-78 35 -124 96.5 t-67.5 138t-23.5 161.5z" />
<glyph unicode=")" horiz-adv-x="598" d="M-100 -84q-2 4 2 12q4 16 28 35q8 6 30 16.5t54.5 33t72.5 64.5t86 112.5t94 175t95 253.5q6 16 11.5 33t11.5 33q61 217 47 358.5t-100 210.5q-6 8 -8 19q-2 8 -2 19.5t6 25.5q6 12 27.5 37.5t49 54.5t57.5 54.5t48 39.5q23 16 39.5 14t30.5 -12q76 -45 116 -149 q16 -45 27.5 -106.5t10.5 -144.5t-17.5 -189.5t-52.5 -237.5q-6 -25 -10.5 -38t-8.5 -25.5t-9 -30t-13 -47.5q-14 -47 -38 -117t-61 -151t-87 -166t-115.5 -161.5t-147.5 -138t-180 -96.5q-12 -4 -28.5 1t-24.5 32q-4 12 -10.5 35.5t-13.5 50.5t-12 52.5t-5 37.5z" />
<glyph unicode="*" horiz-adv-x="749" d="M152 827q-4 10 8 27.5t28 28.5q14 10 33 22q16 10 37 24.5t47 33.5l-102 51q-8 6 -15 12q-12 12 -6 25q6 8 18.5 28.5t26 44t26.5 45t21 33.5q18 25 34 17.5t32 -15.5q4 -4 28.5 -18.5t63.5 -36.5q10 31 16.5 57.5t14.5 48.5q2 12 8 21q4 8 9 14t16 10q8 2 32.5 10.5 t52 17.5t54.5 18.5t43 13.5q14 4 19 0t5 -11.5t-4 -17.5t-6 -18q-2 -6 -12 -39t-27 -82q35 23 67 42t54 34l21 8q20 8 26 -2q4 -6 15.5 -22.5t23.5 -36t24.5 -38t18.5 -28.5q10 -23 -8.5 -34t-34.5 -21q-6 -4 -54 -32t-118 -67q63 -37 86 -51q14 -8 23 -16q8 -8 12 -18.5 t-2 -20.5q-16 -23 -37.5 -54.5t-30.5 -41.5q-10 -10 -27.5 -12.5t-33.5 5.5q-16 10 -39 19q-18 8 -42 18.5t-52 24.5q-23 -72 -29 -92q-4 -16 -12 -31q-6 -12 -15.5 -23.5t-23.5 -15.5q-29 -10 -67 -19.5t-50 -13.5q-14 -4 -19 10.5t-1 30.5q2 12 6 29q4 14 7 33.5t9 44.5 q-29 -16 -48 -28.5t-30 -18.5q-16 -10 -30 -17q-12 -4 -25.5 -5t-17.5 9q-10 20 -26.5 48t-20.5 38z" />
<glyph unicode="+" horiz-adv-x="622" d="M70 420q2 16 7 44t10 55.5t9 49t6 25.5q4 10 10.5 27.5t37.5 35.5q14 4 32 11q33 10 86 28q10 47 19.5 81t13.5 44q12 29 29 39q8 6 18 8q12 2 41 15.5t62.5 29t65.5 27.5t46 12q41 4 37 -47q-4 -27 -22 -112q35 10 61.5 17t38.5 11q27 4 41 -4t14 -24q0 -14 -10 -45 t-23.5 -63t-24.5 -60.5t-11 -40.5q0 -8 -5 -17q-4 -8 -13 -16t-25 -16q-10 -6 -41 -15.5t-74 -21.5q-6 -23 -10 -40.5t-9 -31.5q-4 -16 -6 -29q-16 -31 -34.5 -38t-28.5 -11q-6 -2 -27.5 -8t-50.5 -13.5t-57.5 -15.5t-46.5 -14q-18 -4 -27.5 -1t-13.5 11q-6 8 -7 21 q4 16 10.5 36.5t12.5 47.5q-35 -10 -61.5 -18.5t-45.5 -14.5q-12 0 -20 4t-13 12t-1 25z" />
<glyph unicode="," horiz-adv-x="389" d="M-100 -141.5q-2 16.5 10 41.5q6 12 26.5 58t43 99.5t43 103.5t24.5 72q10 47 31.5 59.5t36.5 18.5q6 2 34.5 -2t62.5 -10t63.5 -12t39.5 -6q20 2 25.5 -16.5t-10.5 -55.5q-23 -61 -51 -123q-25 -53 -58 -113.5t-74 -111.5q-8 -16 -18 -27q-10 -10 -23.5 -17t-31.5 -5 q-20 2 -48 6t-52.5 9t-43 9t-22.5 4q-6 2 -8 18.5z" />
<glyph unicode="-" d="M86 475q2 16 8 44t11.5 55.5t9.5 49t6 25.5q4 10 9 28t36 36q78 25 145 47q57 18 113.5 36.5t79.5 24.5q14 0 26 -4q10 -4 19.5 -9t9.5 -15t-7 -38t-16.5 -58.5t-17.5 -57.5t-10 -35q-4 -16 -12.5 -32.5t-51.5 -36.5q-16 -8 -54 -19.5t-84 -25t-95 -27.5t-88 -29 q-14 0 -23 4q-20 8 -14 37z" />
<glyph unicode="." horiz-adv-x="417" d="M-6 80q10 35 32.5 80t61.5 69q39 25 89 41.5t95 16.5q35 0 58.5 -13.5t23.5 -44.5q2 -41 -23.5 -91t-70.5 -83q-41 -31 -96 -50t-96 -17q-47 2 -65.5 21.5t-8.5 70.5z" />
<glyph unicode="/" horiz-adv-x="894" d="M-111 -45q2 16 15 35q20 35 73.5 111.5t126 178t157.5 219t171 234.5q200 276 442 602q18 29 35 41.5t27 16.5q12 6 25 4q43 -6 83 -13q35 -4 71 -10t59 -10t27.5 -16.5t0.5 -24.5q-4 -14 -14 -31q-104 -127 -216 -271t-219.5 -288.5t-205.5 -279t-175 -241t-127 -177 t-61 -86.5q-33 -47 -63.5 -53.5t-36.5 -6.5q-4 2 -36 12.5t-111 14.5q-33 2 -41.5 13.5t-6.5 25.5z" />
<glyph unicode="0" horiz-adv-x="919" d="M85 216q-13 103 4 230t48 250q33 131 84 238.5t123 187.5t170 133t227 78q20 4 41 6t39 2q94 0 146.5 -45t72 -123.5t10 -184t-39.5 -226.5q-35 -133 -88.5 -261t-130 -234.5t-178 -181.5t-230.5 -97q-37 -6 -70 -6q-109 0 -162 65.5t-66 168.5zM377 395.5 q-2 -61.5 13.5 -97.5t55.5 -22q37 12 75 58.5t73 111t64 140t49 147.5q41 145 31.5 224t-79.5 55q-78 -25 -134 -104t-97 -224q-20 -72 -34.5 -149.5t-16.5 -139z" />
<glyph unicode="1" horiz-adv-x="563" d="M166 10q-6 12 0 35q8 49 31.5 150.5t54.5 225.5t63.5 253t59.5 233q-47 -16 -85 -27.5t-48 -9.5q-23 0 -31 17q-4 8 -4 16q-4 10 1 41t11 64q8 37 17 82q0 16 7 30.5t17 24.5t23 20q158 49 245.5 77t132 41t56.5 16.5t18 5.5q23 4 33 -3.5t14 -17.5q4 -12 0 -31 q-41 -117 -73.5 -224t-61.5 -208q-41 -139 -70.5 -255.5t-51 -207t-34 -149t-16.5 -76.5q-6 -25 -17.5 -42t-23.5 -26.5t-22.5 -14.5t-12.5 -5q-6 -2 -44 -7t-124 -36q-33 -12 -47 -7t-18 15z" />
<glyph unicode="2" horiz-adv-x="837" d="M-20 -23q0 14 2 45t4 64q2 37 4 80q4 16 13 33.5t15 25.5q2 2 32 33t78 81t109.5 116.5t128 142.5t134 157t127.5 160q25 33 37 57.5t16 41.5q8 27 -1 37t-26 10q-18 0 -37.5 -8.5t-29.5 -18.5q-27 -27 -46.5 -52.5t-31.5 -47.5q-14 -25 -25 -47q-8 -10 -23.5 -23.5 t-31.5 -15.5q-10 0 -43 8t-71 18.5t-69.5 19.5t-39.5 13q-12 8 -4 27q2 8 8 18q25 59 64.5 113.5t86 100.5t95.5 82t92 59q45 23 109.5 43t129.5 20q61 0 116.5 -26.5t90.5 -94.5q23 -39 22 -85t-16 -93q-18 -61 -52 -122.5t-69.5 -114t-67.5 -91t-44 -53.5 q-8 -12 -25.5 -32.5t-40 -47t-48 -56.5t-52.5 -58q-61 -68 -133 -150q61 18 115 39q47 16 93 32.5t73 26.5q25 10 38 10.5t19 -3.5q8 -4 6 -11q0 -45 -2 -82q-2 -33 -6 -66.5t-8 -49.5q-4 -18 -15.5 -30.5t-21.5 -21.5q-12 -8 -27 -14q-20 -8 -76.5 -25.5t-131 -40 t-156.5 -48t-152 -46t-118 -36t-54 -19.5q-20 -10 -41.5 -11t-21.5 27z" />
<glyph unicode="3" horiz-adv-x="868" d="M127 8q2 10 3 38t4 60.5t6 60.5t7 38q8 20 18.5 26.5t20.5 6.5q6 0 42 6t83 18t96.5 29.5t79.5 38.5q55 39 70 86q6 25 1 45t-20.5 32.5t-39 14.5t-54.5 -10q-43 -18 -64.5 -26.5t-31.5 -12.5t-8 -4q-12 -4 -21 -6q-8 -2 -16 -1t-10 7t-3 37.5t-1 67.5t1 66.5t1 35.5 q4 10 4 32.5t22 32.5q76 31 143.5 60.5t118 59.5t81 57.5t34.5 53.5q4 25 -6 48.5t-51 23.5q-23 0 -52.5 -8t-72.5 -31q-74 -37 -113 -57.5t-56 -31.5t-22.5 -16t-13.5 -12l-20 -10t-16.5 -4t-10.5 10q-2 8 -6 38t-7 65t-5 65.5t-2 40.5q-2 18 4 33t35 31q100 57 200 102 q86 39 185.5 72t185.5 33q72 0 125 -33t65 -115q4 -29 3 -76t-17 -104q-20 -70 -71.5 -144.5t-155.5 -136.5q35 -29 57 -75q16 -41 21.5 -102.5t-27.5 -151.5q-33 -88 -83 -148.5t-99.5 -99.5t-90 -59.5t-53.5 -28.5q-12 -6 -46 -22.5t-84 -34t-113.5 -33t-135.5 -21.5 q-6 4 -10 12q-10 14 -8 31z" />
<glyph unicode="4" horiz-adv-x="776" d="M129 424q0 14 7 65.5t15.5 122t18.5 148.5t20.5 145.5l17.5 112.5t9 49q6 10 17.5 34.5t58.5 45.5q25 10 57.5 22.5t63 23.5t53 19.5t29.5 8.5q6 0 14 -2t15 -8.5t11.5 -17.5t-1.5 -32q-4 -10 -9.5 -35.5t-12.5 -59.5t-15.5 -75t-16.5 -80q-20 -94 -41 -206l129 38 q35 133 64 242q12 45 24.5 90t21.5 82t16 60.5t10 29.5q8 23 18 44.5t47 31.5q18 6 51 14.5t68 15.5t63.5 12t36.5 5q16 0 26.5 -14t0.5 -37q-96 -340 -174 -606q-33 -115 -65 -223.5t-57.5 -194.5t-41.5 -139.5t-16 -55.5q-4 -10 -19.5 -28.5t-54.5 -28.5q-20 -4 -48 -6 t-55 -2h-45q-10 0 -20 2q-6 0 -12 8q-12 12 -7 41q4 16 19.5 79.5t34.5 135.5q23 82 47 184q-80 -23 -146 -43q-55 -16 -105 -30.5t-58 -16.5q-18 -6 -33 -6q-12 0 -22.5 6t-8.5 29z" />
<glyph unicode="5" horiz-adv-x="808" d="M33 57q0 10 2 38t6 57q4 34 6 73q6 35 25 47q8 6 20 7q100 12 183 45.5t141.5 74.5t87 85t20.5 79q-6 18 -24.5 25.5t-44.5 7.5q-27 0 -58.5 -6t-64.5 -15.5t-62.5 -20.5t-50.5 -22q-20 -10 -37 3q-8 6 -14 12q0 8 4 52t12.5 105.5t17.5 131t16 133t12.5 109.5t5.5 59 q-2 18 5 31.5t15 23.5t20 16q236 100 398 139t221 50q16 4 27 -4q6 -4 8 -9q6 -45 12 -84q4 -35 6 -66.5t-2 -45.5t-12 -22.5t-19 -14.5q-10 -8 -24 -12q-90 -16 -158.5 -36t-116.5 -36q-55 -20 -98 -39q-4 -4 -7 -31.5t-7 -58.5q-6 -37 -10 -80q53 8 79.5 11t67.5 3 q76 0 124 -26.5t71.5 -69.5t25.5 -100.5t-16 -118.5q-33 -113 -113 -209q-78 -94 -184.5 -156.5t-205.5 -100.5t-174 -54.5t-87 -18.5q-29 -4 -41 6.5t-8 32.5z" />
<glyph unicode="6" horiz-adv-x="909" d="M67.5 341q2.5 146 63.5 355q41 137 93 234.5t100 161.5q55 74 112 120q111 86 208 116t171 30q66 0 109 -14.5t59 -26.5q23 -18 18.5 -36.5t-28.5 -53.5q-23 -35 -46.5 -67t-41.5 -60q-23 -33 -43 -62q-23 -31 -37 -30q-8 -2 -14 4q-29 23 -64 31t-63 -5 q-78 -31 -115 -80t-60 -98q-20 -41 -33.5 -74.5t-25.5 -74.5q47 29 90 47t78 28q39 13 74 21q90 23 152.5 10.5t97 -50.5t41 -98.5t-14.5 -133.5q-23 -78 -64.5 -157t-90.5 -151q-66 -92 -143 -144t-146.5 -79t-124.5 -33t-80 -6q-78 0 -130 35t-69 86q-35 109 -32.5 255z M370 371.5q1 -29.5 5 -58.5q4 -39 22.5 -54t40.5 -15q31 0 66 20.5t55 42.5q16 18 36.5 46t39.5 63q23 41 19.5 63.5t-15.5 32.5q-14 12 -39 14q-57 -2 -119.5 -31.5t-109.5 -58.5q-2 -35 -1 -64.5z" />
<glyph unicode="7" horiz-adv-x="765" d="M97.5 46q-1.5 17 11.5 34q4 4 31.5 54t68.5 128t93 176.5t105.5 199.5t104.5 196.5t90 169.5q-78 -31 -143 -56q-55 -23 -105.5 -42t-62.5 -27q-27 -16 -47.5 -19.5t-24.5 6.5q-2 4 -2 41t2 80t4 81t6 44q6 12 15.5 31.5t36.5 32.5q8 4 47 18t98 34.5t132 45t147.5 47 t145.5 41t124 29.5q20 6 35 4q12 -2 18 -11.5t-2 -37.5q-16 -55 -26.5 -106.5t-22.5 -82.5q-6 -16 -17.5 -36.5t-21.5 -39.5q-13 -23 -27 -43q-135 -262 -247 -475q-47 -92 -94.5 -181t-87.5 -164t-67.5 -127t-35.5 -68l-14 -15q-14 -14 -35 -18q-12 -4 -46 1t-70 12 t-65.5 14.5t-35.5 9.5q-14 2 -15.5 19z" />
<glyph unicode="8" horiz-adv-x="948" d="M20 190.5q-2 47.5 13 94.5q16 61 57 122.5t100 116.5q10 8 32 22.5t32 22.5q-23 23 -44.5 45.5t-31.5 44.5q-27 57 -30 114.5t32 133.5q43 94 109.5 164t150.5 127q86 59 176.5 101t180.5 51q74 6 144.5 -5.5t121.5 -54.5q94 -80 74 -239q-2 -16 -6.5 -33t-8.5 -33 q-23 -76 -67.5 -141.5t-110.5 -124.5q-10 -10 -36 -32t-36 -32q16 -16 39 -42.5t29 -55.5q10 -61 -8 -121q-10 -41 -32.5 -82t-53.5 -82q-49 -68 -115.5 -122t-140.5 -93t-151 -59.5t-146 -20.5q-82 0 -147.5 30t-100.5 95q-23 41 -25 88.5zM349 316.5q-3 -21.5 7.5 -37 t36 -20.5t72.5 9q47 12 75.5 33t45 42.5t21.5 38.5t3 28q-2 18 -24.5 43.5t-69.5 23.5q-37 -14 -85 -49t-69 -72q-10 -18 -13 -39.5zM489 856q0 -12 3.5 -28.5t13.5 -33t28.5 -28.5t53.5 -14q57 23 109 60.5t75 78.5q12 23 15.5 48.5t-8 46t-41 28.5t-83.5 -2 q-53 -12 -86.5 -34t-51 -45.5t-24 -45t-4.5 -31.5z" />
<glyph unicode="9" horiz-adv-x="937" d="M94 248q0 8 4 16t9.5 16.5t19.5 14.5q12 6 46 18.5t71 24.5t66.5 21.5t35.5 11.5q14 4 27.5 -1t17.5 -32q2 -27 11.5 -48.5t31.5 -19.5q18 2 46 17.5t59.5 55.5t67.5 110.5t73 181.5q-27 -20 -64 -41q-33 -16 -78.5 -33.5t-111.5 -30.5q-66 -12 -124 2.5t-95 58.5 t-44 120.5t30 191.5t108.5 191.5t146 124t137 69t85.5 25.5q16 4 61 14t100 10q45 0 92.5 -12t84 -46t59 -94.5t20.5 -156.5q0 -23 -10 -92.5t-39 -167.5q-35 -125 -103.5 -275.5t-184.5 -289.5q-53 -66 -123 -117q-59 -43 -147.5 -76t-205.5 -26q-6 0 -36.5 9t-64.5 36.5 t-59.5 79t-19.5 139.5zM477 851q2 -15 11.5 -25.5t29.5 -10.5q29 0 84 31t152 115q-4 23 -15 40q-10 16 -28.5 26.5t-51.5 4.5q-66 -10 -115 -45t-61 -76q-4 -12 -6 -28.5t0 -31.5z" />
<glyph unicode=":" horiz-adv-x="382" d="M47 389q10 35 31.5 80t62.5 70q37 25 88.5 41t96.5 16q35 0 58.5 -13t23.5 -44q0 -41 -25 -91.5t-70 -82.5q-41 -31 -96 -50.5t-96 -17.5q-49 2 -66.5 21.5t-7.5 70.5zM160 786q8 35 30.5 80t63.5 70q37 25 88 41t96 16q35 0 57.5 -13t24.5 -44q0 -41 -25.5 -91 t-70.5 -83q-41 -31 -95.5 -50.5t-95.5 -17.5q-49 2 -67.5 21.5t-5.5 70.5z" />
<glyph unicode=";" horiz-adv-x="393" d="M-86 -141.5q-2 16.5 10 41.5q6 12 26.5 58t44 99.5t43 103.5t23.5 72q10 47 32 59.5t36 18.5q6 2 35 -2t62.5 -10t63 -12t40.5 -6q20 2 25 -16.5t-11 -55.5q-23 -61 -51 -123q-25 -53 -57.5 -113.5t-73.5 -111.5q-8 -16 -19 -27q-10 -10 -23.5 -17t-31.5 -5q-20 2 -48 6 t-52.5 9t-44 9t-21.5 4q-6 2 -8 18.5zM94 510q8 35 30.5 80t61.5 69q39 25 90.5 41.5t96.5 16.5q35 0 57.5 -13.5t22.5 -44.5q2 -41 -24 -91t-71 -83q-41 -31 -95 -50t-95 -17q-49 2 -67.5 21.5t-6.5 70.5z" />
<glyph unicode="&#x3c;" horiz-adv-x="653" d="M106 614q0 12 1.5 18.5t3.5 13.5t8 16.5t16 25.5q6 8 27.5 38t54.5 73t72 95t80 105q94 125 209 277q51 74 90 72q10 0 47 -5.5t76.5 -11.5t73.5 -13t38 -9q10 -6 6 -29t-14 -37q-2 -4 -40 -50t-93 -112.5t-119.5 -144.5t-119 -144.5t-90.5 -113.5t-36 -53t7.5 -48 t17.5 -100.5t21.5 -126t21.5 -127t16 -101.5t6 -50q0 -18 -12 -35q-6 -8 -12 -14q-12 -10 -45 -31t-71 -41.5t-70.5 -37.5t-45.5 -22q-23 -6 -32 9q-6 6 -9 16q-10 119 -23 238.5t-26.5 218t-24 165t-10.5 76.5z" />
<glyph unicode="=" horiz-adv-x="585" d="M27 264q4 16 10 44t11 55.5t9 49t6 27.5q4 10 9.5 27.5t38.5 36.5q113 37 206 65q39 12 79 24.5t74 22t59.5 16.5t37.5 9q29 4 43.5 -3t16.5 -24q0 -10 -9.5 -36.5t-20.5 -57.5t-22.5 -57.5t-13.5 -34.5q-10 -35 -20.5 -49t-30.5 -25q-16 -8 -73.5 -23.5t-126 -35 t-137.5 -38.5t-107 -34q-14 0 -23 4q-8 4 -14 12.5t-2 24.5zM160 659q2 16 8 44t11 54.5t9.5 48t6.5 28.5q4 10 9 27.5t38 35.5q113 37 207 66q39 12 79.5 24t74.5 22.5t59.5 17.5t37.5 9q51 6 56 -28q0 -10 -9.5 -37t-19.5 -57.5t-21.5 -57.5t-13.5 -35q-6 -23 -14 -41 t-37 -32q-16 -8 -73.5 -23.5t-126 -34t-137 -39t-107.5 -35.5q-14 -2 -23 5q-20 8 -14 38z" />
<glyph unicode="&#x3e;" horiz-adv-x="655" d="M20 49q0 6 1.5 15.5t9.5 21.5q4 6 34.5 48t74.5 101.5t94.5 127t94.5 127t74.5 101.5t34.5 48t-5 54t-24.5 116t-36 144.5t-38 143t-29.5 112.5t-12 51q0 14 8 36.5t25 28.5q6 4 43 10t81 12.5t82.5 11.5t49.5 5q39 2 49 -70q29 -154 51 -278q8 -53 17.5 -106.5 t17.5 -96.5t13 -72.5t5 -38.5q4 -33 1 -41t-15 -30q-6 -12 -53 -79t-118 -165t-154 -219t-160 -240q-10 -8 -19 -14l-16 -8t-19 0q-10 2 -33.5 19.5t-49 39t-47 42t-27.5 30.5q-4 4 -5 12z" />
<glyph unicode="?" horiz-adv-x="870" d="M29 55q4 35 24.5 80t57.5 72q39 29 95 49t103 20q31 0 50.5 -11t23.5 -40q0 -27 -6 -57q-10 -33 -29.5 -64.5t-48.5 -54.5q-41 -35 -94 -56.5t-94 -23.5q-51 -2 -72 16.5t-10 69.5zM180 408.5q-2 7.5 1 17.5t7 23l10.5 31.5t12.5 39.5q8 23 14 49q16 55 27.5 107.5 t21.5 81.5q4 14 16.5 24.5t24.5 20.5q14 8 33 18q41 14 72 21.5t58.5 14.5t55 16.5t62.5 25.5q63 29 99 53.5t49.5 44t10.5 31.5t-18 19q-37 12 -80 12q-53 0 -105 -17.5t-97 -40t-77 -44t-44 -29.5q-23 -16 -35 -17.5t-20 2.5t-15 15q0 8 1 39.5t3 68.5l4 94q6 23 29 41 q10 8 23 19q135 82 258 112.5t219 30.5q47 0 86.5 -5t68.5 -15q86 -23 116 -86.5t5 -147.5q-16 -53 -55 -112.5t-102 -118.5q-57 -53 -110.5 -88t-105 -59.5t-102.5 -44t-106 -42.5q-4 -16 -11 -34q-4 -16 -9 -33t-11 -31q-20 -47 -39.5 -56t-32.5 -16q-6 -4 -26.5 -8 t-47 -10l-53 -12t-45.5 -11q-20 -6 -29.5 -4t-11.5 9.5z" />
<glyph unicode="@" horiz-adv-x="1370" d="M103.5 452q11.5 126 39.5 248q35 141 97.5 256t163 202t241.5 144.5t336 81.5q35 4 64.5 6.5t58.5 2.5q141 0 226 -49.5t125 -133.5t38 -197.5t-33 -242.5q-29 -117 -78 -231.5t-121.5 -216t-172 -184.5t-230.5 -136q-141 -25 -168 98q-2 16 1 47t16 78q-18 -4 -34 -4 h-32q-72 0 -123 21.5t-67 54.5q-39 70 -51.5 164t28.5 227q27 86 67 147.5t78 102.5q45 47 93 78q92 51 172 70.5t145 23.5q59 -2 111 -4q43 -2 80.5 -3t44.5 -5q14 -6 10 -20.5t-17 -41.5q-4 -8 -20 -57t-37.5 -121t-48.5 -158t-51.5 -167.5t-46 -150.5t-31.5 -108 q-2 -20 10 -22q10 -2 35 14.5t76 69.5q61 74 114.5 179.5t90.5 252.5q29 117 28.5 198t-19 133t-50 80.5t-67.5 42t-70.5 15.5t-59.5 2q-23 0 -49.5 -2t-54.5 -6q-172 -23 -286 -67t-187.5 -109.5t-115.5 -151.5t-67 -192q-141 -578 180 -621q10 -6 7 -18q-2 -6 -7 -13 q-10 -20 -18 -41q-8 -16 -15.5 -32.5t-9.5 -24.5q-4 -8 -14 -16t-20 -6q-129 20 -198 96t-93.5 183.5t-13 233.5zM690.5 623.5q-10.5 -54.5 9.5 -105.5q10 -29 33.5 -33t52.5 2q29 88 57.5 178.5t51.5 163.5q-12 0 -29 -4q-68 -20 -98.5 -51t-46.5 -61q-20 -35 -30.5 -89.5z " />
<glyph unicode="A" horiz-adv-x="808" d="M-92 -40q2 13 6 26q29 82 64.5 182t75.5 204.5t81 205t82 186.5q76 166 126 271.5t91 170.5q8 10 17 19q8 8 20 17t29 20q35 18 96 37.5t122.5 36t108.5 26.5t54 12q27 6 45 -14.5t12 -46.5q-25 -96 -44.5 -194.5t-38.5 -225.5t-38.5 -297t-42.5 -410q2 -14 -4 -28 q-4 -12 -14.5 -25.5t-32.5 -23.5q-23 -10 -51.5 -19.5t-56 -16.5t-49 -12.5t-25.5 -7.5q-6 -2 -15.5 -4t-17.5 1t-13.5 12.5t-2.5 31.5v8q0 20 6 64q8 56 14 119q-72 -12 -135.5 -33t-114.5 -43q-18 -47 -34.5 -94t-30.5 -95q-4 -8 -13 -16q-8 -6 -19 -14t-32 -13 q-20 -6 -51 -11t-62.5 -10t-58.5 -7t-37 -2q-18 0 -16 13zM381 489q45 14 84 24.5t72 18.5q10 90 19 196t32 206q-37 -66 -60.5 -113t-45 -93t-45 -101.5t-56.5 -137.5z" />
<glyph unicode="B" horiz-adv-x="870" d="M6 -12.5q-4 8.5 0 26.5q55 270 105 492q20 94 40.5 187t37 172t29.5 134.5t18 75.5q2 14 10 31q6 14 20.5 30.5t40.5 32.5q18 12 74.5 42t130.5 61t157 55.5t156 24.5q53 0 94.5 -15.5t69.5 -54.5q18 -23 31 -55q10 -29 14 -68q1 -10 1 -20q0 -31 -9 -66 q-12 -49 -34.5 -103.5t-53.5 -106.5t-70 -98t-84 -79q45 -12 76 -41q27 -25 42 -67q7 -21 7 -49q0 -29 -8 -66q-23 -86 -99.5 -176t-193.5 -156q-72 -39 -135 -66.5t-130 -46t-141.5 -30t-166.5 -17.5q-10 0 -19 4q-6 4 -10 12.5zM334 264q-2 -4 32.5 7.5t81 34t91.5 54 t63 68.5q16 31 2 43t-45 12q-20 0 -46 -4t-51.5 -12t-49 -17.5t-37.5 -19.5q-10 -43 -19 -78q-8 -31 -14 -57.5t-8 -30.5zM434 715q59 29 113.5 69.5t93.5 83.5t59 83q12 25 12 45q0 12 -5 22q-6 14 -18.5 19t-29.5 5q-23 0 -50 -9t-52 -21.5t-41 -23.5t-18 -15 q-4 -6 -14.5 -47t-20.5 -88q-12 -55 -29 -123z" />
<glyph unicode="C" horiz-adv-x="741" d="M66 341q2 146 63 355q41 137 93 234.5t100 161.5q53 74 110 120q113 86 209 116t170 30q66 0 109 -14.5t59 -26.5q25 -18 20.5 -36.5t-28.5 -53.5q-23 -35 -47.5 -67t-42.5 -60q-23 -33 -43 -62q-20 -31 -35 -30q-8 -2 -15 4q-45 33 -88 33q-20 0 -41 -7 q-76 -31 -113.5 -80t-60.5 -98q-25 -53 -43 -103t-34 -102q-28 -94 -38 -181q-5 -42 -5 -82q0 -41 6 -79q8 -59 53 -59q20 0 46 11t47.5 24.5t36.5 26t19 14.5q6 4 14.5 11t17.5 9t18.5 -2t17.5 -20q10 -23 18.5 -42.5t14.5 -35.5q8 -20 12 -37q0 -2 2 -8t2 -33 q-4 -23 -14 -33q-6 -8 -14 -10l-41 -33q-92 -72 -174 -102.5t-148 -30.5q-80 0 -133 35t-70 88q-31 101 -31 235q1 10 1 20z" />
<glyph unicode="D" horiz-adv-x="880" d="M31 6q49 287 88 516q16 98 32.5 191.5t31 169t22.5 123t10 53.5q4 20 16.5 47t44.5 45q10 6 67.5 39t139.5 70.5t176.5 68.5t178.5 31q49 0 91 -13.5t72.5 -45t48 -84t17.5 -130.5q-2 -35 -7 -74.5t-20 -86.5q-31 -109 -107.5 -246t-219.5 -315q-76 -94 -161 -167 t-169 -124t-161 -80t-132 -33q-18 -4 -33 0q-12 4 -21 13.5t-5 31.5zM377 344q59 43 121 115q53 59 112.5 157.5t110.5 241.5q20 57 24.5 94t-3 59.5t-25 32t-37.5 9.5q-27 0 -56.5 -10.5t-54.5 -20.5q-29 -12 -57 -29z" />
<glyph unicode="E" horiz-adv-x="733" d="M12 -25q43 219 86 424q18 88 39 181.5t40.5 184.5t39 174t37.5 148q0 12 4 25q8 27 35 43q16 8 80.5 39t157 67.5t201 73.5t210.5 58q8 4 16 2q6 -2 12.5 -7.5t6.5 -19.5q0 -23 -16 -76q-12 -47 -30 -93t-24 -62q-2 -6 -8 -15q-12 -16 -41 -26q-16 -6 -58 -18.5 t-93.5 -29t-104.5 -38t-92 -41.5q-6 -18 -14 -45q-6 -23 -14.5 -61t-18.5 -93q61 25 119 47q49 18 100 39t86 31q6 4 12 4q12 0 11 -29q-2 -43 -5 -82q-4 -35 -7 -68.5t-11 -54.5q0 -6 -6 -14q-4 -6 -13.5 -13t-25.5 -14q-16 -6 -64.5 -23.5t-101.5 -36.5t-100 -39.5 t-62 -33.5q-8 -39 -16 -75q-6 -31 -12.5 -61t-4.5 -40q68 25 125 47q49 18 94.5 36t61.5 26q14 8 25 10q10 2 16 -1t6 -19q-2 -16 -2 -44t-2 -59t-7 -61.5t-13 -55.5q-2 -8 -9 -16q-4 -6 -13 -14.5t-23 -12.5q-10 -4 -54.5 -18t-106 -32.5t-130 -41t-125.5 -45.5 q-43 -16 -86 -39.5t-68 -36.5q-16 -4 -24 -2q-10 2 -14.5 11t-0.5 36z" />
<glyph unicode="F" horiz-adv-x="671" d="M14 -20q49 225 92 436q18 90 38 184t38.5 185.5t33.5 172t26 142.5q10 16 20 33q10 14 23.5 26t31.5 19q104 47 209 88q90 35 192.5 68.5t190.5 47.5q12 0 21 -6q8 -4 14 -13t2 -26q-4 -18 -12 -45.5t-17.5 -55.5t-16.5 -50.5t-9 -30.5q-4 -14 -25.5 -30.5t-42.5 -26.5 q-10 -6 -33.5 -8.5t-60.5 -10.5t-88 -25.5t-115 -49.5q-8 -29 -18 -70q-10 -35 -22.5 -89t-30.5 -126q57 27 107 50.5t128 45.5q14 2 23 -2q8 -4 14 -14.5t2 -32.5q-2 -16 -10 -41q-12 -43 -37 -141q-4 -12 -12 -23q-18 -23 -62 -39q-18 -6 -32.5 -10t-37 -10t-58.5 -19.5 t-95 -40.5q-12 -49 -25.5 -105t-27 -107.5t-22.5 -91.5t-11 -56q-2 -12 -10 -23q-6 -10 -15.5 -21t-23.5 -22q-16 -10 -49 -22t-68 -22.5t-62.5 -19.5t-29.5 -11q-6 -4 -18.5 5t-8.5 34z" />
<glyph unicode="G" horiz-adv-x="880" d="M68 341q2 146 63 355q41 137 93 234.5t100 161.5q53 74 110 120q113 86 209 116t170 30q66 0 109 -14.5t59 -26.5q25 -18 20.5 -36.5t-28.5 -53.5q-23 -35 -47.5 -67t-42.5 -60q-23 -33 -43 -62q-20 -31 -35 -30q-8 -2 -14 4q-31 23 -66 30q-14 3 -26 3q-20 0 -37 -7 q-76 -31 -113 -80t-60 -98q-25 -53 -45 -105.5t-34 -103.5q-29 -94 -37 -180q-4 -43 -4 -82.5t4 -75.5q2 -27 10 -39t20.5 -15t27.5 1t32 12q47 29 76.5 67t46.5 73q20 39 28 82q-20 -4 -39 -11q-16 -4 -32.5 -11t-28.5 -15q-27 -16 -39 -13.5t-18 13.5q-8 12 -6 35 q0 10 3 33.5t7 45.5q4 27 10 58q2 16 9 29.5t18 23.5q10 10 24 16q98 59 164 86t107 33q21 4 37 4q21 0 34 -6q39 -16 59.5 -33.5t30 -39t7 -45t-10.5 -52.5q-39 -129 -86 -227.5t-96 -170t-99.5 -120.5t-95.5 -80q-109 -74 -221 -80q-28 -4 -53 -4q-66 0 -115 26 q-67 36 -86 95q-31 103 -31 237q0 10 1 20z" />
<glyph unicode="H" horiz-adv-x="782" d="M43 16l7 45t18.5 118t27 166t31.5 190.5t31.5 191.5t28 169l20.5 123t8 52q4 20 22.5 39.5t34.5 30.5q8 6 40 18t69 24.5t69.5 24t45.5 13.5q25 4 35 -9.5t6 -27.5q0 -4 -8.5 -45t-21.5 -106.5t-30.5 -150.5t-36.5 -177q35 10 60.5 19t66.5 19q25 94 48.5 184.5t43 162 t31.5 116.5t12 49q6 14 17.5 33t32.5 29q8 6 41.5 14t72.5 15.5t74 12.5t45 5q45 0 35 -33q-18 -61 -49 -168.5t-68 -235.5t-76 -261.5t-71.5 -245t-55 -186.5t-26.5 -87q-6 -23 -25.5 -35t-38.5 -16q-10 -4 -38.5 -5t-59.5 -3q-37 -2 -78 -2q-10 2 -14 12t-3 31t13 61 q10 45 23 95q10 41 22 94t27 106q-35 -10 -55.5 -16t-59.5 -18q-16 -78 -29.5 -148t-23.5 -123t-16.5 -88t-6.5 -43q-2 -41 -22.5 -49t-36.5 -12q-10 -4 -40 -9.5t-62 -9.5q-37 -6 -84 -12q-8 -2 -15 4q-4 4 -8 17.5t0 37.5z" />
<glyph unicode="I" horiz-adv-x="415" d="M16 68q6 37 21.5 103.5t35 149t43 178t48.5 187.5q55 217 121 469q6 29 16 45.5t21 24.5q10 8 22 12q47 14 92 27q39 10 79 21t65 18q23 6 33 -1.5t14 -17.5q4 -12 0 -31q-41 -117 -73 -223t-60 -205q-39 -135 -69 -249.5t-50.5 -201.5t-32.5 -143.5t-16 -74.5 q-4 -25 -15.5 -42.5t-24 -26.5t-23.5 -14t-13 -5q-4 -2 -42 -7.5t-124 -35.5q-33 -12 -47 -7t-19 15q-6 12 -2 35z" />
<glyph unicode="J" horiz-adv-x="747" d="M-39 143q-2 12 2 25q4 10 10.5 21.5t22.5 21.5q14 10 39.5 24.5t52.5 29t49.5 26.5t28.5 16q14 6 27 8q10 2 21 0t15 -14q10 -23 28.5 -39t37.5 -16q23 0 43 25.5t37 88.5q8 33 22.5 100.5t31.5 149.5t35.5 169t35.5 161q-59 -23 -122 -50.5t-120 -55.5q-20 -8 -35 -5 q-12 2 -19 14.5t-1 41.5t13 57.5t11 50.5q6 27 11 54q2 14 8 28q4 10 12 22.5t23 18.5q123 55 216 94t173 66t150.5 45t148.5 37q23 8 37 6q12 -2 17 -14t-5 -47q-12 -35 -21.5 -65t-15.5 -52q-8 -27 -14 -51q-4 -16 -15 -31q-10 -12 -25.5 -23.5t-41.5 -15.5q-14 -4 -35 -9 t-49 -14q-18 -76 -40 -172t-43.5 -186t-36.5 -159.5t-22 -92.5q-2 -8 -4 -18q-4 -10 -7 -21.5t-7 -27.5q-10 -39 -28.5 -90.5t-45 -102.5t-60.5 -95t-77 -67q-104 -53 -199 -53q-55 0 -102 16.5t-82 42t-57.5 59.5t-28.5 68z" />
<glyph unicode="K" horiz-adv-x="831" d="M8 -12q70 307 125 555q25 104 47.5 206.5t41 185.5t31.5 137t17 65q0 10 17 22q12 10 41.5 24.5t87.5 35.5q23 6 55.5 20t61 21.5t45 1t4.5 -38.5q-18 -74 -39 -156q-16 -72 -40 -165t-48 -193q51 76 108.5 170t107.5 183t91 160.5t63 102.5q6 12 17 21q10 8 25.5 15 t41.5 9q16 1 33.5 1t34.5 -1q29 -2 61.5 -5t59.5 -11q14 -2 22 -11q6 -8 4 -25.5t-20 -45.5q-74 -121 -150 -238q-66 -100 -140.5 -213.5t-141.5 -204.5q8 -31 23.5 -77.5t30.5 -104t26.5 -121t15.5 -127.5q-6 -23 -23.5 -35t-39.5 -24q-25 -12 -58 -36.5t-57 -39.5 q-23 -14 -47.5 -21t-30.5 15q-4 25 -13.5 65t-26.5 89t-39.5 103.5t-49.5 107.5q-18 -78 -35.5 -146.5t-32 -121t-22.5 -84t-10 -38.5q-2 -4 -13 -12q-18 -12 -92 -33l-44 -11t-56.5 -10t-49 3t-20.5 31z" />
<glyph unicode="L" horiz-adv-x="724" d="M2 51q2 37 22.5 128t49 206t62.5 242t63.5 235.5t50 186t26.5 96.5q6 29 18.5 47t24.5 29q14 12 31 20q29 14 60 27q27 10 60.5 23.5t68.5 23.5t50 5t19 -15q6 -12 0 -35q-14 -39 -37 -121q-29 -100 -63.5 -231.5t-65.5 -249.5q-36 -140 -71 -283q51 25 102 47 q43 18 89 37.5t81 30.5q39 12 57.5 7t24.5 -18q8 -14 4 -34q-4 -35 -14 -75t-10 -73q-2 -35 -14.5 -52t-29 -26.5t-31 -11.5t-20.5 -2q-2 0 -33.5 -10t-81 -27.5t-108.5 -38t-115.5 -43t-105.5 -43t-78 -35.5q-41 -23 -59.5 -20.5t-24.5 14.5q-8 14 -2 39z" />
<glyph unicode="M" horiz-adv-x="1028" d="M-78 -31q23 80 55.5 182.5t70.5 215t80 226.5t83 217t79 188t70 139q2 8 7 16q4 8 10 16.5t20 18.5q12 8 45 22.5t73 27.5t79 25.5t61 16.5q8 4 17 0q6 -4 12 -12t6 -29q0 -20 -7 -60t-13 -90.5t-8 -107.5q-1 -12 -1 -25q0 -44 7 -88q43 80 82 156q35 66 68.5 133.5 t51.5 114.5q8 12 17 22q8 10 17 18.5t20 12.5q8 2 32.5 13.5t59.5 23.5t79 21.5t93 11.5q14 2 22 0q8 -4 14.5 -11.5t2.5 -27.5q-2 -14 -16.5 -65.5t-35 -131.5t-46 -182.5t-52 -217t-50 -234t-40.5 -234.5l-12 -107q-2 -10 -8 -18q-4 -8 -14.5 -18.5t-26.5 -18.5t-48 -21.5 t-69 -25.5t-72 -23.5t-57 -15.5q-10 0 -16 6q-14 10 -5 43q4 12 13.5 51t21 94.5t24.5 121t26.5 128t25.5 117.5t21 92q-61 -139 -115 -252q-23 -49 -44.5 -97t-40 -88t-31.5 -67.5t-19 -35.5q-10 -12 -35 -27.5t-49.5 -24t-43 -4.5t-16.5 29q0 6 1 41t2 82t2 101.5 t3.5 102.5t3.5 83.5t3 46.5q-25 -84 -54 -174q-25 -78 -57.5 -172.5t-67.5 -190.5q0 -10 -8 -18q-6 -8 -17 -17.5t-28 -17.5q-18 -8 -49 -17.5t-66.5 -19.5t-69.5 -18.5t-56 -14.5q-6 2 -13 8q-12 12 -4 35z" />
<glyph unicode="N" horiz-adv-x="833" d="M8 -8q-4 18 4 45q27 166 62 345t69 327q37 172 80 340q6 47 33 68.5t39 27.5q8 4 54 25.5t97 33.5q8 4 24.5 9.5t34 4.5t32 -15.5t18.5 -47.5q2 -27 7 -77t11.5 -113.5t14.5 -136t20 -144.5q23 53 43.5 116.5t40.5 129.5q27 92 47.5 179t32.5 146q4 16 19.5 40t39.5 36 q12 6 37 10.5t55.5 8.5t64.5 7t63 7t40 -5t13 -22q2 -14 -8 -32q-76 -233 -129.5 -394t-90 -274t-60 -188.5t-42.5 -137.5q-10 -37 -18.5 -71.5t-18.5 -73.5q-16 -41 -40.5 -60.5t-41.5 -21.5q-6 0 -22.5 -5t-35.5 -10.5t-39.5 -10.5t-35.5 -5q-31 -2 -54.5 1t-33.5 44 q-4 18 -11 65.5t-16.5 104t-19.5 113.5t-18 96q-14 -63 -27.5 -129.5t-25 -125t-19.5 -101.5t-10 -58q-6 -35 -17.5 -52t-21.5 -25q-12 -8 -27 -11q-14 -2 -35 -4q-18 -4 -44.5 -7t-63.5 -7t-51.5 7t-18.5 28z" />
<glyph unicode="O" horiz-adv-x="923" d="M87 216q-6 44 -6 92q1 65 11 138q18 127 47 250q33 131 84 238.5t123 187.5t170 133t227 78q20 4 41 6t39 2q94 0 147 -45q52 -46 72 -124q13 -53 12 -117q0 -33 -2 -67q-10 -106 -40 -226q-35 -133 -88.5 -261t-130 -234.5t-178 -181.5t-230.5 -97q-37 -6 -70 -6 q-109 0 -162 65.5t-66 168.5zM379 396q0 -7 -1 -14q0 -52 14 -84q11 -26 36 -26q9 0 21 4q37 12 74.5 58.5t72.5 111t64 140t49 147.5q33 118 33 192q0 17 -2 32q-7 61 -49 61q-13 0 -29 -6q-78 -25 -134.5 -104t-97.5 -224q-20 -72 -34.5 -149t-16.5 -139z" />
<glyph unicode="P" horiz-adv-x="845" d="M11 -8.5q-3 10.5 3 33.5q53 252 97 462q18 90 36.5 179.5t35 166t29.5 133t19 81.5q0 18 9 40q8 18 26.5 40t57.5 42q25 12 79 42t122.5 59.5t144 52.5t145.5 23q72 0 128 -32t81 -116q14 -45 14 -94v-12q-2 -56 -18 -115q-31 -106 -102.5 -213t-167 -197t-204 -157.5 t-210.5 -96.5l-55 -223q0 -10 -7 -20q-4 -10 -16 -21.5t-35 -21.5q-25 -12 -57.5 -22.5t-61.5 -16.5q-35 -8 -69 -13q-10 -2 -17 2q-4 4 -7 14.5zM412 600q61 27 113.5 67t91 85t64.5 91t38 87q8 30 8 53q0 13 -3 25q-7 30 -40 32h-15q-34 0 -63 -7q-35 -9 -57 -21 q-29 -14 -49 -33l-68 -293z" />
<glyph unicode="Q" horiz-adv-x="956" d="M89 226q-6 45 -6 93q0 65 11 138q17 127 47 250q33 131 84 238.5t124 187t170 133t226 77.5q23 4 43.5 6.5t38.5 2.5q94 0 146.5 -46t72.5 -124q12 -51 12 -113q0 -34 -4 -71q-10 -107 -40 -226q-27 -104 -65 -204.5t-89 -192.5q27 -59 42.5 -108.5t19.5 -69.5 q8 -27 4 -45q-2 -8 -4 -15q-12 -12 -40 -37.5t-58.5 -52.5t-57.5 -49.5t-37 -24.5q-39 -12 -49 17t-21.5 58.5t-25.5 57.5q-53 -41 -113.5 -68.5t-130.5 -39.5q-41 -6 -72 -6q-109 0 -162 65.5t-66 168.5zM381 406v-14q0 -52 13 -84q12 -25 36 -25q9 0 21 4q27 8 59 41 q-16 27 -27.5 45t-15.5 26q-4 14 0 25.5t10 19.5q8 8 19 17q8 6 31.5 23.5t49 35t48 31.5t26.5 18q35 90 60 174q33 118 33 192q0 18 -2 33q-7 60 -50 60q-13 0 -30 -6q-74 -25 -130.5 -103.5t-97.5 -224.5q-20 -72 -35.5 -149.5t-17.5 -138.5z" />
<glyph unicode="R" horiz-adv-x="827" d="M18 6q53 270 97 494q18 94 36.5 189t35 175t27.5 138.5t17 82.5q2 8 9 19q4 8 12 18.5t22 20.5q10 6 65.5 40t134.5 71.5t169 67.5t170 30q66 0 117 -26t82 -89q10 -29 14 -66q2 -18 2 -40q0 -17 -1 -35q-3 -44 -19 -99t-49 -119.5t-91 -136.5q-20 -27 -51 -59 q-27 -29 -66.5 -63.5t-93.5 -73.5q31 -109 50.5 -206t23.5 -144q-8 -18 -24.5 -31.5t-38.5 -24.5q-23 -12 -55.5 -33.5t-55.5 -37.5q-27 -16 -46 -28.5t-36 7.5q-8 47 -21.5 93t-28.5 89t-33 81t-32 69q-2 -2 -4 -2q-14 -70 -28 -131q-12 -53 -24.5 -103.5t-16.5 -74.5 q-6 -10 -15 -19q-10 -8 -24.5 -17t-36.5 -16q-25 -8 -55.5 -15t-57.5 -13q-31 -8 -61 -17q-6 0 -12 4q-12 8 -7 31zM424 647q59 41 99 79t65 67q29 33 47 59q31 43 46 73.5t21 53.5q8 25 4 38t-12 19q-8 8 -22 6q-12 1 -23 1q-27 0 -50 -7q-32 -10 -54 -22q-27 -15 -47 -33 q0 -4 -11.5 -56.5t-25.5 -113.5z" />
<glyph unicode="S" horiz-adv-x="747" d="M79 16q1 25 4 50.5t8 48t9 37.5q4 14 13.5 24t19.5 19q12 8 29 14q31 6 71.5 25.5t81.5 45t75 53t48 52.5q23 37 18 59.5t-20 36.5q-16 14 -45 23q-53 14 -98 31q-39 14 -77 30.5t-52 32.5q-16 18 -32 58q-7 17 -6 41q0 30 11 69q12 47 47 106.5t103 137.5 q84 98 181 164.5t183 109.5q99 51 201 82q10 2 30.5 3t24.5 -11q2 -6 -1 -37t-7 -69t-10 -74.5t-8 -55.5q-4 -20 -15.5 -33.5t-23.5 -23.5q-14 -10 -33 -18q-98 -20 -145.5 -50t-69.5 -47q-49 -37 -71.5 -61.5t-26.5 -40.5q-4 -14 3 -23.5t16 -14.5t18.5 -8t11.5 -5 t26.5 -6.5t58.5 -12.5t69.5 -25.5t62 -47t36.5 -74.5q4 -17 4 -36q0 -33 -11 -73q-6 -27 -25 -65q-55 -121 -139 -206t-166 -140.5t-146.5 -84t-81.5 -36.5q-16 -8 -40.5 -18.5t-47 -15.5t-40 -3t-21.5 20q-6 18 -5 43z" />
<glyph unicode="T" horiz-adv-x="770" d="M186 887q2 27 9 53q4 23 9 49.5t11 48.5q4 23 15.5 40.5t21.5 27.5q12 12 29 22q68 37 159.5 73t186 65.5t177.5 53t130 40.5q43 14 70 14q37 0 40 -19.5t-2 -25.5q-2 -6 -9 -40t-17 -72q-6 -18 -12.5 -36t-12.5 -32q-20 -39 -55 -53q-18 -8 -37 -11q-29 -4 -64.5 -13 t-76.5 -21q-14 -47 -31.5 -102.5t-34.5 -114.5q-35 -121 -68.5 -249t-62.5 -235q-33 -125 -61 -244q-8 -37 -18.5 -58t-19.5 -31.5t-17.5 -14.5t-12.5 -4q-10 -4 -58 -14.5t-110 -30.5q-31 -10 -45 -4t-18 16q-6 12 -2 31q8 43 23.5 112.5t36 153.5t43 177t45 183.5 t43 172.5t36.5 141q-35 -14 -63.5 -24.5t-51.5 -20.5q-25 -10 -47 -19q-33 -12 -49 -11t-22 7q-8 8 -7 19z" />
<glyph unicode="U" horiz-adv-x="780" d="M10 68q0 27 6 59q8 57 22.5 131t33 152.5t39 160.5t41.5 158q47 179 100 367q2 12 12 26.5t39 28.5q33 14 79 21.5t116 29.5q33 10 45 5t16 -15q4 -12 -2 -31q-27 -78 -48.5 -151.5t-39.5 -141.5q-41 -147 -71.5 -264t-51.5 -203q-23 -98 -39 -176l166 97q4 14 22.5 83.5 t44 167t55.5 207t54.5 206.5t43 167t20.5 86q4 23 14 39t23 27q14 12 30 20q29 10 49.5 15.5t40 10.5t43 9t60.5 12q35 6 47 -1t14 -17q2 -12 -8 -31q-88 -303 -158 -547q-31 -104 -59.5 -204.5t-52 -181.5t-39 -133t-17.5 -60q-6 -16 -17 -27.5t-24 -19.5q-14 -8 -28 -15 q-23 -8 -70 -30.5t-100 -49t-102.5 -50t-75.5 -34.5q-33 -14 -56.5 -19t-44.5 -5q-23 0 -40 5t-36 13l-59 23q-23 10 -30 33.5t-7 46.5z" />
<glyph unicode="V" horiz-adv-x="833" d="M152 12q0 16 6 91t15 181.5t21.5 231.5t21.5 244t17.5 218t8.5 152q0 16 8 31q6 12 18.5 24.5t38.5 20.5q25 8 62 18.5t73.5 21.5t65.5 18.5t39 9.5q20 4 21 -10.5t-3 -42.5q-2 -10 -8 -62.5t-16.5 -130.5t-22.5 -170t-24.5 -180t-22.5 -162t-18 -115q82 188 149 357 q29 72 58.5 145.5t56 140t47 122t31.5 91.5q0 14 8 29q6 10 20.5 22.5t38.5 20.5q25 8 60.5 14.5t69.5 11.5t59.5 9t29.5 4h14.5t14.5 -4t8 -14.5t-6 -28.5q-98 -248 -194 -475q-41 -96 -85.5 -198.5t-89.5 -199t-87 -180.5t-78 -145q-14 -23 -20.5 -36t-13.5 -23.5 t-19.5 -18.5t-37.5 -18q-29 -12 -77 -25.5t-95 -24.5q-55 -12 -114 -24q-14 -2 -25 4q-10 4 -17 16.5t-7 38.5z" />
<glyph unicode="W" horiz-adv-x="1099" d="M109 -18q35 266 61 497q12 98 22.5 196.5t18.5 186.5t13 156.5t5 105.5q0 12 7 25q4 10 14 20.5t26 16.5q18 6 62.5 21.5t92.5 30.5t86 27.5t44 14.5q12 2 27.5 -8t5.5 -43q-4 -10 -12.5 -56.5t-20.5 -111t-25.5 -140t-26.5 -148.5t-25.5 -133t-18.5 -93q59 152 108 274 q20 51 41 102.5t37.5 93.5t27.5 70.5t15 34.5q16 29 29.5 37t34.5 15q8 4 17 7t20 7q10 4 20 10q12 4 23 0q8 -4 15 -13t3 -30q-2 -10 -4 -37.5t-3 -66.5t-2 -83t-3 -89q-4 -106 -6 -232q29 82 57 170q25 74 53.5 165t52.5 177q10 35 19.5 69t15.5 64q2 16 11 29 q14 27 43 35q16 4 50 11t69.5 14.5t65.5 13.5t38 6h19t21.5 -4t15.5 -14.5t1 -28.5q-2 -12 -21.5 -72.5t-52 -154t-75.5 -212t-92.5 -249.5t-103.5 -265.5t-110 -259.5q0 -6 -6 -12q-10 -12 -43 -27q-18 -8 -45.5 -18t-59.5 -21.5t-63.5 -21.5t-58.5 -16q-14 2 -23 8 q-8 4 -15 13t-3 24q2 14 -1 55t-8 85t-10.5 82t-5.5 44q-37 -70 -69 -135q-29 -55 -56.5 -111.5t-44.5 -89.5q-2 -4 -8 -12q-4 -6 -14 -14.5t-29 -16.5q-18 -8 -51 -15.5t-66.5 -12.5t-61.5 -7t-34 -2q-14 0 -24 9.5t-6 52.5z" />
<glyph unicode="X" horiz-adv-x="919" d="M-23 53q2 16 17 37q18 31 53 83t82 119.5t103.5 145.5t115.5 162q-23 92 -43 180t-37 156q-18 80 -35 149q-8 23 -4 38.5t11 25.5q8 10 18 14l90 45q37 18 76 37t63 29q23 10 38.5 8t23.5 -10t14 -25q10 -72 22.5 -144.5t24.5 -141.5q49 68 96.5 132t86.5 115 q43 59 84 113q20 29 36.5 43t26.5 18q12 6 23 4q47 -4 88 -10q35 -4 72.5 -8t60.5 -8t28 -16.5t0 -24.5q-4 -15 -16 -33q-66 -80 -133.5 -167t-135 -173t-130 -169t-115.5 -154q39 -158 68.5 -264.5t35.5 -129.5q6 -20 2 -36.5t-12 -26.5t-18 -16.5t-13 -6.5 q-4 -4 -42.5 -16t-118.5 -59q-31 -18 -49.5 -18.5t-28.5 7.5q-12 8 -17 27q-10 27 -24 76t-33 114q-61 -88 -100 -144t-51 -73q-16 -27 -34 -40t-32 -19t-25.5 -6h-13.5q-6 2 -38 11t-115 11q-31 0 -40.5 12.5t-5.5 26.5z" />
<glyph unicode="Y" horiz-adv-x="858" d="M84 35q0 16 10 39q16 31 47 84t71 121.5t88 148.5t99 164q-35 94 -64.5 182t-51.5 158q-27 82 -52 151q-10 23 -8 38.5t6 25.5q6 10 17 14q45 23 86 45q35 18 71.5 37t59.5 29t37 8t24 -10t17 -25q37 -147 80 -289q41 70 81.5 134.5t73.5 117.5q37 59 70 115 q16 29 31.5 42t25.5 17q12 6 23 4q41 -4 78 -10q33 -4 66.5 -8t55.5 -8q23 -4 29 -16.5t4 -24.5q-2 -15 -12 -33q-96 -137 -188.5 -277.5t-175.5 -273.5t-155.5 -251.5t-127 -211t-90 -154t-43.5 -77.5q-14 -27 -31 -40t-31 -19.5t-24.5 -6.5h-12.5q-4 0 -9 3.5t-18.5 7.5 t-38 8t-65.5 4q-33 0 -43 11t-10 26z" />
<glyph unicode="Z" horiz-adv-x="759" d="M25 -25q4 18 11 54.5l14 73t13.5 65.5t8.5 35q4 12 16 31.5t18 29.5q2 2 23 35t54.5 85t76.5 117.5t86 133.5l234 360l-316 -125q-10 -2 -18 0q-20 0 -23 15q-2 6 -3 32.5t-1 56.5v56.5v34.5q0 16 14.5 41t28.5 29q139 66 273 120q57 25 118.5 48.5t122 43t116.5 35 t105 23.5q12 4 21 0q8 -4 11 -12.5t-3 -30.5q-4 -18 -8 -39q-4 -16 -9 -37.5t-12 -44.5q-8 -27 -15 -50.5t-17 -39.5q-4 -4 -9 -12q-8 -16 -18 -27q-4 -4 -27.5 -39t-60.5 -91t-83 -127t-93 -144q-113 -172 -254 -387q66 25 119 45q47 16 87 32.5t48 20.5q16 6 26 8t17.5 -3 t5.5 -21t-4 -44t-3 -57t-3 -53.5t-6 -34.5q-8 -20 -21.5 -39.5t-44.5 -30.5q-10 -4 -55 -20t-105.5 -38.5t-129 -47.5t-128 -47.5t-100.5 -37.5t-47 -19q-18 -10 -38 -3t-13 41z" />
<glyph unicode="[" horiz-adv-x="634" d="M-106 -395q0 8 7 42t19 79t25.5 95t25.5 91q16 76 45 191.5t64 248.5t70.5 273.5t68.5 264.5t59.5 221t38.5 146q12 61 25 113q10 43 20.5 82t14.5 47q8 14 25.5 28.5t35.5 14.5q6 0 42 6t86 14.5t108.5 17.5t110 17.5t88 14.5t45.5 6q29 4 41 -8.5t8 -34.5 q-2 -10 -11.5 -38t-20.5 -57.5t-21.5 -56t-14.5 -34.5q-6 -16 -23.5 -31t-37.5 -17q-6 -2 -25.5 -5t-47.5 -7t-59.5 -9t-64.5 -9q-29 -96 -60.5 -196.5t-60.5 -205.5q-55 -193 -100 -364.5t-80 -308t-58.5 -229.5t-33.5 -128q27 2 58.5 6t61 6.5t53 3.5t34.5 1 q29 -2 26.5 -17t-8.5 -31q-4 -10 -15.5 -35.5t-25.5 -56t-27.5 -57.5t-19.5 -37q-25 -35 -49 -45q-6 -2 -58.5 -5t-120 -8t-132 -13.5t-93.5 -16.5q-12 2 -20 6q-18 8 -18 25z" />
<glyph unicode="\" horiz-adv-x="923" d="M283 1290q-4 18 2 33q4 12 15 23.5t36 15.5t63.5 10t77.5 10q45 6 94 13q10 4 21 -2q8 -4 16.5 -17.5t12.5 -40.5q55 -326 98 -602q18 -117 35.5 -235.5t32 -220t24.5 -178t12 -111.5q2 -20 -6 -35q-6 -14 -21.5 -24.5t-47.5 -12.5q-86 -4 -123 -15.5t-43 -11.5h-12.5 t-21.5 5.5t-21.5 17.5t-12.5 37q-2 16 -10 85.5t-23.5 177t-37 242t-46 277.5t-54.5 287.5t-60 271.5z" />
<glyph unicode="]" horiz-adv-x="634" d="M-162 -381q2 12 11.5 40t20.5 57.5t20.5 55t13.5 33.5q8 16 25.5 30.5t39.5 19.5q4 0 26.5 4t55.5 8t69 10t68 10q20 92 54 229.5t74 291t81 307t75 281.5t56.5 215t26.5 104q-27 -4 -58.5 -6t-61 -5.5t-53.5 -4.5t-34 -1q-29 2 -26.5 17t8.5 31q4 8 15 34.5t25.5 57 t27 57.5t18.5 37q14 18 25.5 29.5t25.5 15.5q6 2 63.5 4t130 7t142 11.5t98.5 16.5q12 -2 21 -6q18 -8 18 -25q0 -8 -8 -42t-19.5 -79t-25 -95t-25.5 -91q-18 -76 -49 -191.5t-68.5 -248.5t-77.5 -272.5t-77 -263.5t-65.5 -220t-41.5 -145q-14 -61 -24 -113 q-10 -43 -19.5 -82t-13.5 -47q-8 -14 -25.5 -28.5t-35.5 -14.5q-6 0 -42 -6t-86.5 -14.5t-108.5 -17.5t-109.5 -17.5t-88 -14.5t-45.5 -6q-27 -4 -39 8.5t-8 34.5z" />
<glyph unicode="^" horiz-adv-x="540" d="M332 1393q-12 8 2 26q47 51 96 103q41 43 89 89t89 81q16 18 33 26q14 8 28.5 9.5t24.5 -13.5q33 -41 60 -80q23 -35 45 -72.5t30 -72.5q0 -4 -2 -10q-4 -12 -18 -23q-10 -6 -29.5 -17.5t-40 -21.5t-38 -18t-25.5 -10q-6 -2 -12 0q-12 0 -13 10q-2 4 -9 18.5t-17 30.5 q-10 18 -27 39l-53 -49q-20 -18 -38 -36l-22 -22l-10 -10q-4 -4 -12 -9t-17 -7q-8 -2 -26.5 3t-36.5 13t-33.5 14.5t-17.5 8.5z" />
<glyph unicode="_" horiz-adv-x="858" d="M-63 -47q2 16 8 44t11 55.5t9 49t6 25.5q4 10 8 29t39 37q205 61 373 110q72 20 141.5 41t127 37t97.5 27.5t52 13.5q55 6 55 -29q0 -10 -9 -36.5t-19.5 -57.5t-20.5 -57.5t-12 -34.5q-10 -35 -22.5 -49.5t-28.5 -24.5q-12 -6 -66.5 -21.5t-132.5 -37t-168 -46t-173 -47 t-147.5 -41t-91.5 -28.5q-14 0 -22 4q-20 8 -14 37z" />
<glyph unicode="`" horiz-adv-x="391" d="M344 1501q-16 10 0 41q2 6 16.5 20.5l30 30l28.5 28.5l17 17q10 8 23.5 10.5t19.5 -3.5q2 -4 30 -22.5t60 -41.5q37 -24 84 -55q8 -14 0 -29q-2 -2 -13 -15.5t-24.5 -28.5t-24.5 -28.5t-13 -15.5q-6 -4 -15.5 -11t-19.5 -3l-34 17t-64.5 33.5t-65.5 35t-35 20.5z" />
<glyph unicode="a" horiz-adv-x="813" d="M-94 -40q2 13 6 26q29 82 64.5 182t75.5 204.5t81 205t82 186.5q76 166 126 271.5t91 170.5q8 10 17 19q8 8 20 17t29 20q35 18 96 37.5t122.5 36t108.5 26.5t54 12q27 6 45 -14.5t12 -46.5q-25 -96 -44.5 -194.5t-38.5 -225.5t-38.5 -297t-42.5 -410q2 -14 -4 -28 q-4 -12 -14.5 -25.5t-32.5 -23.5q-23 -10 -51.5 -19.5t-56 -16.5t-49 -12.5t-25.5 -7.5q-6 -2 -15.5 -4t-17.5 1t-13.5 12.5t-3.5 31.5v8q1 20 7 64q8 56 14 119q-72 -12 -135.5 -33t-114.5 -43q-18 -47 -34.5 -94t-30.5 -95q-4 -8 -13 -16q-8 -6 -19 -14t-32 -13 q-20 -6 -51 -11t-62.5 -10t-58.5 -7t-37 -2q-18 0 -16 13zM379 489q45 14 84 24.5t72 18.5q10 90 19 196t32 206q-37 -66 -60.5 -113t-45 -93t-45 -101.5t-56.5 -137.5z" />
<glyph unicode="b" horiz-adv-x="876" d="M4 -12.5q-4 8.5 0 26.5q55 270 105 492q20 94 40.5 187t37 172t29.5 134.5t17 75.5q2 14 11 31q6 14 20.5 30.5t40.5 32.5q18 12 74.5 42t130.5 61t157 55.5t156 24.5q53 0 94 -15.5t70 -54.5q18 -23 31 -55q10 -29 14 -68q1 -10 1 -20q0 -31 -9 -66 q-12 -49 -34.5 -103.5t-53.5 -106.5t-70 -98t-84 -79q45 -12 76 -41q27 -25 42 -67q7 -21 7 -49q0 -29 -8 -66q-23 -86 -99.5 -176t-193.5 -156q-72 -39 -135 -66.5t-130 -46t-141.5 -30t-166.5 -17.5q-10 0 -19 4q-6 4 -10 12.5zM332 264q-2 -4 32.5 7.5t81 34t91.5 54 t63 68.5q16 31 2 43t-45 12q-20 0 -46 -4t-51.5 -12t-49 -17.5t-37.5 -19.5q-10 -43 -19 -78q-8 -31 -14 -57.5t-8 -30.5zM432 715q59 29 113.5 69.5t93.5 83.5t59 83q12 25 12 45q0 12 -5 22q-6 14 -18.5 19t-29.5 5q-23 0 -50 -9t-52 -21.5t-41 -23.5t-18 -15 q-4 -6 -14.5 -47t-20.5 -88q-12 -55 -29 -123z" />
<glyph unicode="c" horiz-adv-x="755" d="M66 341q2 146 63 355q41 137 93 234.5t100 161.5q53 74 110 120q113 86 209 116t170 30q66 0 109 -14.5t59 -26.5q25 -18 20.5 -36.5t-28.5 -53.5q-23 -35 -47.5 -67t-42.5 -60q-23 -33 -43 -62q-20 -31 -35 -30q-8 -2 -15 4q-45 33 -88 33q-20 0 -41 -7 q-76 -31 -113.5 -80t-60.5 -98q-25 -53 -43 -103t-34 -102q-28 -94 -38 -181q-5 -42 -5 -82q0 -41 6 -79q8 -59 53 -59q20 0 46 11t47.5 24.5t36.5 26t19 14.5q6 4 14.5 11t17.5 9t18.5 -2t17.5 -20q10 -23 18.5 -42.5t14.5 -35.5q8 -20 12 -37q0 -2 2 -8t2 -33 q-4 -23 -14 -33q-6 -8 -14 -10l-41 -33q-92 -72 -174 -102.5t-148 -30.5q-80 0 -133 35t-70 88q-31 101 -31 235q1 10 1 20z" />
<glyph unicode="d" horiz-adv-x="894" d="M37 6q49 287 88 516q16 98 32.5 191.5t31 169t22.5 123t10 53.5q4 20 16.5 47t45.5 45q10 6 67.5 39t139 70.5t176 68.5t178.5 31q49 0 91 -13.5t72.5 -45t48 -84t17.5 -130.5q-2 -35 -7 -74.5t-19 -86.5q-31 -109 -108 -246t-220 -315q-76 -94 -161 -167t-169 -124 t-160.5 -80t-132.5 -33q-18 -4 -33 0q-12 4 -21 13.5t-5 31.5zM383 344q59 43 121 115q53 59 112.5 157.5t110.5 241.5q20 57 24.5 94t-3 59.5t-24.5 32t-38 9.5q-27 0 -56.5 -10.5t-54.5 -20.5q-29 -12 -57 -29z" />
<glyph unicode="e" horiz-adv-x="729" d="M10 -25q43 219 86 424q18 88 39 181.5t40.5 184.5t38.5 174t38 148q0 12 4 25q8 27 35 43q16 8 80.5 39t157 67.5t201 73.5t210.5 58q8 4 16 2q6 -2 12.5 -7.5t6.5 -19.5q0 -23 -17 -76q-12 -47 -29.5 -93t-23.5 -62q-2 -6 -8 -15q-12 -16 -41 -26q-16 -6 -58 -18.5 t-93.5 -29t-104.5 -38t-92 -41.5q-6 -18 -14 -45q-6 -23 -14.5 -61t-18.5 -93q61 25 119 47q49 18 100 39t86 31q6 4 12 4q12 0 10 -29q-2 -43 -4 -82q-4 -35 -7 -68.5t-11 -54.5q0 -6 -6 -14q-4 -6 -13.5 -13t-25.5 -14q-16 -6 -64.5 -23.5t-101.5 -36.5t-100 -39.5 t-62 -33.5q-8 -39 -16 -75q-6 -31 -12.5 -61t-4.5 -40q68 25 125 47q49 18 94.5 36t61.5 26q14 8 25 10q10 2 16 -1t6 -19q-2 -16 -2 -44t-2 -59t-7 -61.5t-13 -55.5q-2 -8 -9 -16q-4 -6 -13 -14.5t-24 -12.5q-10 -4 -54 -18t-105.5 -32.5t-130 -41t-125.5 -45.5 q-43 -16 -86 -39.5t-68 -36.5q-16 -4 -24 -2q-10 2 -14.5 11t-0.5 36z" />
<glyph unicode="f" horiz-adv-x="669" d="M12 -20q49 225 92 436q18 90 38 184t38.5 185.5t33.5 172t26 142.5q10 16 20 33q10 14 23.5 26t31.5 19q104 47 209 88q90 35 192.5 68.5t190.5 47.5q12 0 21 -6q8 -4 14 -13t2 -26q-4 -18 -12 -45.5t-17.5 -55.5t-16.5 -50.5t-9 -30.5q-4 -14 -25.5 -30.5t-42.5 -26.5 q-10 -6 -33.5 -8.5t-60.5 -10.5t-88 -25.5t-115 -49.5q-8 -29 -18 -70q-10 -35 -22.5 -89t-30.5 -126q57 27 107 50.5t128 45.5q14 2 23 -2q8 -4 14 -14.5t2 -32.5q-2 -16 -10 -41q-12 -43 -37 -141q-4 -12 -12 -23q-18 -23 -62 -39q-18 -6 -32.5 -10t-37 -10t-58.5 -19.5 t-95 -40.5q-12 -49 -25.5 -105t-27 -107.5t-22.5 -91.5t-11 -56q-2 -12 -10 -23q-6 -10 -15.5 -21t-23.5 -22q-16 -10 -49 -22t-68 -22.5t-62.5 -19.5t-29.5 -11q-6 -4 -18.5 5t-8.5 34z" />
<glyph unicode="g" horiz-adv-x="876" d="M66 341q2 146 63 355q41 137 93 234.5t100 161.5q53 74 110 120q113 86 209 116t170 30q66 0 109 -14.5t59 -26.5q25 -18 20.5 -36.5t-28.5 -53.5q-23 -35 -47.5 -67t-42.5 -60q-23 -33 -43 -62q-20 -31 -35 -30q-8 -2 -15 4q-31 23 -66 30q-13 3 -26 3q-19 0 -37 -7 q-76 -31 -112.5 -80t-59.5 -98q-25 -53 -45 -105.5t-34 -103.5q-29 -94 -38 -180q-4 -42 -4 -80q0 -41 5 -78q2 -27 10 -39t20.5 -15t27.5 1t32 12q47 29 76.5 67t46.5 73q20 39 28 82q-20 -4 -39 -11q-16 -4 -32.5 -11t-28.5 -15q-27 -16 -39 -13.5t-18 13.5q-8 12 -6 35 q0 10 3 33.5t7 45.5q4 27 10 58q2 16 9 29.5t18 23.5q10 10 24 16q98 59 164 86t107 33q21 4 37 4q21 0 34 -6q39 -16 59.5 -33.5t30 -39t7 -45t-10.5 -52.5q-39 -129 -86 -227.5t-96 -170t-99.5 -120.5t-95.5 -80q-109 -74 -221 -80q-28 -4 -53 -4q-66 0 -115 26 q-67 36 -86 95q-31 103 -31 237q0 10 1 20z" />
<glyph unicode="h" horiz-adv-x="778" d="M41 16l7 45t18.5 118t27 166t31.5 190.5t31.5 191.5t28 169l20.5 123t8 52q4 20 22.5 39.5t34.5 30.5q8 6 40 18t69 24.5t69.5 24t45.5 13.5q25 4 35 -9.5t6 -27.5q0 -4 -8.5 -45t-21.5 -106.5t-30.5 -150.5t-36.5 -177q35 10 60.5 19t66.5 19q25 94 48.5 184.5t43 162 t31.5 116.5t12 49q6 14 17.5 33t32.5 29q8 6 41.5 14t72.5 15.5t74 12.5t45 5q45 0 35 -33q-18 -61 -49 -168.5t-68 -235.5t-76 -261.5t-71.5 -245t-55 -186.5t-26.5 -87q-6 -23 -25.5 -35t-38.5 -16q-10 -4 -38.5 -5t-59.5 -3q-37 -2 -78 -2q-10 2 -14 12t-3 31t13 61 q10 45 23 95q10 41 22 94t27 106q-35 -10 -55.5 -16t-59.5 -18q-16 -78 -29.5 -148t-23.5 -123t-16.5 -88t-6.5 -43q-2 -41 -22.5 -49t-36.5 -12q-10 -4 -40 -9.5t-63 -9.5q-37 -6 -84 -12q-8 -2 -14 4q-4 4 -8 17.5t0 37.5z" />
<glyph unicode="i" horiz-adv-x="407" d="M14 68q6 37 21.5 103.5t35 149t43 178t48.5 187.5q55 217 121 469q6 29 16 45.5t20 24.5t23 12q47 14 92 27q39 10 79 21t65 18q23 6 33 -1.5t14 -17.5q4 -12 0 -31q-41 -117 -73 -223t-60 -205q-39 -135 -69 -249.5t-50.5 -201.5t-32.5 -143.5t-16 -74.5 q-4 -25 -15.5 -42.5t-24 -26.5t-23.5 -14t-13 -5q-4 -2 -42 -7.5t-124 -35.5q-33 -12 -47.5 -7t-18.5 15q-6 12 -2 35z" />
<glyph unicode="j" horiz-adv-x="749" d="M-37 143q-2 12 2 25q4 10 10.5 21.5t22.5 21.5q14 10 39.5 24.5t52.5 29t49.5 26.5t28.5 16q14 6 27 8q10 2 21 0t15 -14q10 -23 29 -39t37 -16q23 0 43 25.5t37 88.5q8 33 22.5 100.5t32 149.5t35.5 169t35 161q-59 -23 -122 -50.5t-120 -55.5q-20 -8 -35 -5 q-12 2 -19 14.5t-1 41.5t13 57.5t11 50.5q6 27 11 54q2 14 8 28q4 10 12 22.5t23 18.5q123 55 216 94t173 66t150.5 45t148.5 37q23 8 37 6q12 -2 17 -14t-5 -47q-12 -35 -21.5 -65t-15.5 -52q-8 -27 -14 -51q-4 -16 -15 -31q-10 -12 -25.5 -23.5t-41.5 -15.5q-14 -4 -35 -9 t-49 -14q-18 -76 -40 -172t-43.5 -186t-36.5 -159.5t-21 -92.5q-2 -8 -5 -18q-4 -10 -7 -21.5t-7 -27.5q-10 -39 -28.5 -90.5t-45 -102.5t-60.5 -95t-77 -67q-104 -53 -199 -53q-55 0 -102 16.5t-82 42t-57.5 59.5t-28.5 68z" />
<glyph unicode="k" horiz-adv-x="808" d="M-6 -12q68 307 123 555q25 104 47 206.5t40.5 185.5t32 137t17.5 65q0 10 16 22q12 10 42 24.5t87 35.5q23 6 55.5 20t61.5 21.5t45.5 1t3.5 -38.5q-18 -74 -39 -156q-16 -72 -39.5 -165t-48.5 -193q51 76 108.5 170t108 183t91 160.5t63.5 102.5q6 12 16 21 q10 8 25.5 15t42.5 9q16 1 33.5 1t34.5 -1q29 -2 61.5 -5t58.5 -11q14 -2 23 -11q6 -8 4 -25.5t-21 -45.5q-74 -121 -149 -238q-66 -100 -140.5 -213.5t-142.5 -204.5q8 -31 23.5 -77.5t31 -104t27 -121t15.5 -127.5q-6 -23 -23.5 -35t-40.5 -24q-25 -12 -57.5 -36.5 t-57.5 -39.5q-23 -14 -47 -21t-30 15q-4 25 -13.5 65t-27 89t-39.5 103.5t-49 107.5q-18 -78 -36 -146.5t-32 -121t-22.5 -84t-10.5 -38.5q-2 -4 -12 -12q-18 -12 -92 -33l-44 -11t-55.5 -10t-48 3t-20.5 31z" />
<glyph unicode="l" horiz-adv-x="722" d="M-8 51q2 37 22.5 128t48 206t61.5 242t63.5 235.5t50 186t26.5 96.5q6 29 18.5 47t24.5 29q14 12 31 20q29 14 59 27q27 10 61 23.5t68 23.5q35 10 50.5 5t19.5 -15q6 -12 0 -35q-14 -39 -37 -121q-29 -100 -63.5 -231.5t-65.5 -249.5q-37 -140 -72 -283q51 25 103 47 q43 18 89 37.5t81 30.5q39 12 57.5 7t24.5 -18q8 -14 4 -34q-4 -35 -14.5 -75t-10.5 -73q-2 -35 -14 -52t-28.5 -26.5t-31 -11.5t-20.5 -2q-2 0 -34 -10t-81 -27.5t-108.5 -38t-115.5 -43t-105.5 -43t-77.5 -35.5q-41 -23 -58.5 -20.5t-23.5 14.5q-8 14 -2 39z" />
<glyph unicode="m" horiz-adv-x="1009" d="M-92 -31q23 80 55.5 182.5t70.5 215t80 226.5t83 217t78.5 188t70.5 139q2 8 6 16t10.5 16.5t20.5 18.5q12 8 45 22.5t73 27.5t78.5 25.5t61.5 16.5q8 4 16 0q6 -4 12.5 -12t6.5 -29q0 -20 -7 -60t-13.5 -90.5t-8.5 -107.5v-23q0 -45 6 -90q43 80 82 156q35 66 69 133.5 t52 114.5q8 12 16 22t17.5 18.5t19.5 12.5q8 2 33 13.5t59.5 23.5t78.5 21.5t94 11.5q14 2 22 0q8 -4 14.5 -11.5t1.5 -27.5q-2 -14 -16 -65.5t-34.5 -131.5t-46 -182.5t-52.5 -217t-50.5 -234t-39.5 -234.5l-12 -107q-2 -10 -9 -18q-4 -8 -14 -18.5t-27 -18.5 q-16 -8 -48 -21.5t-68.5 -25.5t-71.5 -23.5t-57 -15.5q-10 0 -17 6q-14 10 -4 43q4 12 13.5 51t20.5 94.5t24.5 121t26.5 128t25.5 117.5t20.5 92q-61 -139 -114 -252q-23 -49 -44.5 -97t-40 -88t-32 -67.5t-19.5 -35.5q-10 -12 -34.5 -27.5t-49 -24t-43 -4.5t-16.5 29 q0 6 1 41t2 82t2 101.5t3 102.5t3 83.5t3 46.5q-25 -84 -53 -174q-25 -78 -57.5 -172.5t-67.5 -190.5q0 -10 -8 -18q-6 -8 -17.5 -17.5t-27.5 -17.5q-18 -8 -49 -17.5t-66 -19.5t-68.5 -18.5t-58.5 -14.5q-6 2 -12 8q-12 12 -4 35z" />
<glyph unicode="n" horiz-adv-x="841" d="M14 -8q-4 18 4 45q27 166 62 345t70 327q37 172 79 340q6 47 33 68.5t39 27.5q8 4 54 25.5t98 33.5q8 4 24.5 9.5t33.5 4.5t31.5 -15.5t18.5 -47.5q2 -27 7 -77t11.5 -113.5t14.5 -136t20 -144.5q23 53 43.5 116.5t40.5 129.5q27 92 47.5 179t32.5 146q4 16 19.5 40 t40.5 36q12 6 36.5 10.5t55.5 8.5t64.5 7t62.5 7t40 -5t13 -22q2 -14 -8 -32q-76 -233 -129 -394t-90 -274t-60.5 -188.5t-42.5 -137.5q-10 -37 -18.5 -71.5t-18.5 -73.5q-16 -41 -40.5 -60.5t-40.5 -21.5q-6 0 -22.5 -5t-36 -10.5t-40 -10.5t-35.5 -5q-31 -2 -54 1t-34 44 q-4 18 -11 65.5t-16.5 104t-19.5 113.5t-18 96q-14 -63 -27.5 -129.5t-25 -125t-19.5 -101.5t-10 -58q-6 -35 -17.5 -52t-21.5 -25q-12 -8 -27 -11q-14 -2 -34 -4q-18 -4 -45 -7t-64 -7t-51.5 7t-18.5 28z" />
<glyph unicode="o" horiz-adv-x="919" d="M85 216q-6 45 -6 94q0 64 10 136q17 127 48 250q33 131 84 238.5t123 187.5t170 133t227 78q20 4 41 6t39 2q94 0 147 -45q52 -46 72 -124q13 -53 12 -117q0 -33 -2 -67q-10 -106 -40 -226q-35 -133 -88.5 -261t-130 -234.5t-178 -181.5t-230.5 -97q-37 -6 -70 -6 q-109 0 -162 65.5t-66 168.5zM377 396q0 -7 -1 -14q0 -52 14 -84q11 -26 36 -26q9 0 20 4q37 12 75 58.5t73 111t64 140t49 147.5q33 118 33 192q0 17 -2 32q-7 61 -50 61q-13 0 -29 -6q-78 -25 -134 -104t-97 -224q-20 -72 -34.5 -149t-16.5 -139z" />
<glyph unicode="p" horiz-adv-x="841" d="M5 -8.5q-3 10.5 3 33.5q53 252 96 462q18 90 37 179.5t35.5 166t29.5 133t19 81.5q0 18 8 40q8 18 27 40t57 42q25 12 79.5 42t123 59.5t144 52.5t145.5 23q72 0 128 -32t81 -116q14 -45 14 -94v-12q-2 -56 -18 -115q-31 -106 -102.5 -213t-167 -197t-204 -157.5 t-210.5 -96.5l-56 -223q0 -10 -6 -20q-4 -10 -16 -21.5t-35 -21.5q-25 -12 -57.5 -22.5t-61.5 -16.5q-35 -8 -69 -13q-10 -2 -17 2q-4 4 -7 14.5zM406 600q61 27 113 67t91 85t64.5 91t38.5 87q8 30 8 53q0 13 -3 25q-7 30 -40 32h-15q-34 0 -63 -7q-35 -9 -57 -21 q-29 -14 -49 -33l-68 -293z" />
<glyph unicode="q" horiz-adv-x="942" d="M87 226q-6 45 -6 93q0 65 11 138q17 127 47 250q33 131 84 238.5t124 187t170 133t226 77.5q23 4 43.5 6.5t38.5 2.5q94 0 146.5 -46t72.5 -124q12 -51 12 -113q0 -34 -4 -71q-10 -107 -40 -226q-27 -104 -65 -204.5t-89 -192.5q27 -59 42.5 -108.5t19.5 -69.5 q8 -27 4 -45q-2 -8 -4 -15q-12 -12 -40 -37.5t-58.5 -52.5t-57.5 -49.5t-37 -24.5q-39 -12 -49 17t-21.5 58.5t-25.5 57.5q-53 -41 -113.5 -68.5t-130.5 -39.5q-41 -6 -72 -6q-109 0 -162 65.5t-66 168.5zM379 406v-14q0 -52 13 -84q12 -25 36 -25q9 0 21 4q27 8 59 41 q-16 27 -27.5 45t-15.5 26q-4 14 0 25.5t10 19.5q8 8 19 17q8 6 31.5 23.5t49 35t48 31.5t26.5 18q35 90 60 174q33 118 33 192q0 18 -2 33q-7 60 -50 60q-14 0 -31 -6q-74 -25 -130 -103.5t-97 -224.5q-20 -72 -35.5 -149.5t-17.5 -138.5z" />
<glyph unicode="r" horiz-adv-x="827" d="M12 6q53 270 97 494q18 94 36.5 189t35 175t27.5 138.5t17 82.5q2 8 8 19q4 8 12.5 18.5t22.5 20.5q10 6 65.5 40t134.5 71.5t169 67.5t170 30q66 0 117 -26t82 -89q10 -29 14 -66q2 -18 2 -40q0 -17 -1 -35q-3 -44 -20 -99q-16 -55 -48.5 -119.5t-90.5 -136.5 q-20 -27 -51 -59q-27 -29 -66.5 -63.5t-93.5 -73.5q31 -109 50.5 -206t23.5 -144q-8 -18 -24.5 -31.5t-38.5 -24.5q-23 -12 -56 -33.5t-55 -37.5q-27 -16 -46.5 -28.5t-35.5 7.5q-8 47 -21.5 93t-29 89t-33 81t-31.5 69q-2 -2 -4 -2q-14 -70 -28 -131q-12 -53 -24.5 -103.5 t-16.5 -74.5q-6 -10 -15 -19q-10 -8 -24.5 -17t-36.5 -16q-25 -8 -55.5 -15t-57.5 -13q-31 -8 -61 -17q-6 0 -13 4q-12 8 -6 31zM418 647q59 41 99 79t65 67q29 33 47 59q31 43 46 73.5t21 53.5q8 25 4 38t-12 19q-8 8 -22 6q-12 1 -23 1q-27 0 -50 -7q-32 -10 -54 -22 q-27 -15 -47 -33q0 -4 -11.5 -56.5t-25.5 -113.5z" />
<glyph unicode="s" horiz-adv-x="747" d="M79 16q1 25 4 50.5t8 48t9 37.5q4 14 13.5 24t19.5 19q12 8 29 14q31 6 71.5 25.5t81.5 45t75 53t48 52.5q23 37 18 59.5t-20 36.5q-16 14 -45 23q-53 14 -98 31q-39 14 -77 30.5t-52 32.5q-16 18 -32 58q-7 17 -6 41q0 30 11 69q12 47 47 106.5t103 137.5 q84 98 181 164.5t183 109.5q99 51 201 82q10 2 30.5 3t24.5 -11q2 -6 -1 -37t-7 -69t-10 -74.5t-8 -55.5q-4 -20 -15.5 -33.5t-23.5 -23.5q-14 -10 -33 -18q-98 -20 -145.5 -50t-69.5 -47q-49 -37 -71.5 -61.5t-26.5 -40.5q-4 -14 3 -23.5t16 -14.5t18.5 -8t11.5 -5 t26.5 -6.5t58.5 -12.5t69.5 -25.5t62 -47t36.5 -74.5q4 -17 4 -36q0 -33 -11 -73q-6 -27 -25 -65q-55 -121 -139 -206t-166 -140.5t-146.5 -84t-81.5 -36.5q-16 -8 -40.5 -18.5t-47 -15.5t-40 -3t-21.5 20q-6 18 -5 43z" />
<glyph unicode="t" horiz-adv-x="778" d="M186 887q2 27 9 53q4 23 9 49.5t11 48.5q4 23 15.5 40.5t21.5 27.5q12 12 29 22q68 37 159.5 73t186 65.5t177.5 53t130 40.5q43 14 70 14q37 0 40 -19.5t-2 -25.5q-2 -6 -9 -40t-17 -72q-6 -18 -12.5 -36t-12.5 -32q-20 -39 -55 -53q-18 -8 -37 -11q-29 -4 -64.5 -13 t-76.5 -21q-14 -47 -31.5 -102.5t-34.5 -114.5q-35 -121 -68.5 -249t-62.5 -235q-33 -125 -61 -244q-8 -37 -18.5 -58t-19.5 -31.5t-17.5 -14.5t-12.5 -4q-10 -4 -58 -14.5t-110 -30.5q-31 -10 -45 -4t-18 16q-6 12 -2 31q8 43 23.5 112.5t36 153.5t43 177t45 183.5 t43 172.5t36.5 141q-35 -14 -63.5 -24.5t-51.5 -20.5q-25 -10 -47 -19q-33 -12 -49 -11t-22 7q-8 8 -7 19z" />
<glyph unicode="u" horiz-adv-x="784" d="M16 68q0 27 7 59q8 57 22 131t32.5 152.5t39 160.5t41.5 158q47 179 100 367q2 12 12.5 26.5t38.5 28.5q33 14 79 21.5t116 29.5q33 10 45 5t16 -15q4 -12 -2 -31q-27 -78 -48 -151.5t-40 -141.5q-41 -147 -71.5 -264t-51.5 -203q-23 -98 -39 -176l166 97q4 14 22.5 83.5 t44 167t55.5 207t54.5 206.5t43 167t20.5 86q4 23 14 39t23 27q14 12 30 20q29 10 49.5 15.5t40 10.5t43 9t60.5 12q35 6 47 -1t14 -17q2 -12 -8 -31q-88 -303 -158 -547q-31 -104 -59.5 -204.5t-52 -181.5t-38.5 -133t-17 -60q-6 -16 -17.5 -27.5t-23.5 -19.5 q-14 -8 -29 -15q-23 -8 -70 -30.5t-100 -49t-102.5 -50t-75.5 -34.5q-33 -14 -56.5 -19t-44.5 -5q-23 0 -40 5t-35 13l-60 23q-23 10 -30 33.5t-7 46.5z" />
<glyph unicode="v" horiz-adv-x="819" d="M150 12q0 16 6 91t15 181.5t21.5 231.5t21.5 244t16.5 218t9.5 152q0 16 8 31q6 12 18.5 24.5t38.5 20.5q25 8 61.5 18.5t73.5 21.5t66 18.5t39 9.5q20 4 21 -10.5t-3 -42.5q-2 -10 -8 -62.5t-16.5 -130.5t-22.5 -170t-24.5 -180t-22.5 -162t-18 -115q82 188 149 357 q29 72 58.5 145.5t56 140t47 122t31.5 91.5q0 14 8 29q6 10 20.5 22.5t38.5 20.5q25 8 60.5 14.5t69.5 11.5t59.5 9t29.5 4h14.5t14.5 -4t8 -14.5t-6 -28.5q-98 -248 -195 -475q-41 -96 -85 -198.5t-89 -199t-87 -180.5t-79 -145q-14 -23 -20 -36t-13 -23.5t-19.5 -18.5 t-37.5 -18q-29 -12 -77 -25.5t-95 -24.5q-55 -12 -114 -24q-14 -2 -25 4q-10 4 -17 16.5t-7 38.5z" />
<glyph unicode="w" horiz-adv-x="1099" d="M117 -18q35 266 61 497q12 98 22.5 196.5t18.5 186.5t13.5 156.5t5.5 105.5q0 12 6 25q4 10 14 20.5t27 16.5q18 6 62 21.5t92 30.5t86 27.5t44 14.5q12 2 27.5 -8t5.5 -43q-4 -10 -12 -56.5t-20.5 -111t-26 -140t-26.5 -148.5t-25.5 -133t-18.5 -93q59 152 109 274 q20 51 40.5 102.5t37 93.5t27.5 70.5t15 34.5q16 29 29.5 37t34.5 15q8 4 17.5 7t19.5 7t20 10q12 4 23 0q8 -4 15 -13t3 -30q-2 -10 -4 -37.5t-3 -66.5t-2 -83t-3 -89q-4 -106 -6 -232q29 82 57 170q25 74 53.5 165t53.5 177q10 35 19 69t15 64q2 16 11 29q14 27 43 35 q16 4 50 11t69.5 14.5t65.5 13.5t38 6h19.5t21.5 -4t15 -14.5t1 -28.5q-2 -12 -21.5 -72.5t-52 -154t-75.5 -212t-92.5 -249.5t-103.5 -265.5t-109 -259.5q0 -6 -6 -12q-10 -12 -44 -27q-18 -8 -45.5 -18t-59.5 -21.5t-63.5 -21.5t-58.5 -16q-14 2 -22 8q-8 4 -15.5 13 t-3.5 24q2 14 -1 55t-8 85t-10 82t-5 44q-37 -70 -70 -135q-29 -55 -56.5 -111.5t-43.5 -89.5q-2 -4 -9 -12q-4 -6 -14 -14.5t-29 -16.5q-18 -8 -51 -15.5t-66.5 -12.5t-61 -7t-34.5 -2q-14 0 -24 9.5t-6 52.5z" />
<glyph unicode="x" horiz-adv-x="894" d="M-37 53q2 16 17 37q18 31 53 83t82 119.5t103 145.5t116 162q-23 92 -43.5 180t-36.5 156q-18 80 -35 149q-8 23 -4 38.5t10 25.5q8 10 19 14l90 45q37 18 76 37t63 29q23 10 38 8t24 -10q8 -8 14 -25q10 -72 22.5 -144.5t24.5 -141.5q49 68 96 132t86 115q43 59 84 113 q20 29 36.5 43t27.5 18q12 6 22 4q47 -4 88 -10q35 -4 73 -8t60 -8q23 -4 28 -16.5t1 -24.5q-4 -15 -16 -33q-66 -80 -133.5 -167t-135 -173t-130 -169t-115.5 -154q39 -158 68.5 -264.5t35.5 -129.5q6 -20 2 -36.5t-12 -26.5t-18.5 -16.5t-12.5 -6.5q-4 -4 -43 -16 t-119 -59q-31 -18 -49 -18.5t-28 7.5q-12 8 -17 27q-10 27 -24.5 76t-32.5 114q-61 -88 -100 -144t-52 -73q-16 -27 -33.5 -40t-32 -19t-25.5 -6h-13q-6 2 -38 11t-116 11q-31 0 -40 12.5t-5 26.5z" />
<glyph unicode="y" horiz-adv-x="841" d="M84 35q0 16 10 39q16 31 47 84t71 121.5t88 148.5t99 164q-35 94 -64.5 182t-51.5 158q-27 82 -52 151q-10 23 -8 38.5t6 25.5q6 10 17 14q45 23 86 45q35 18 71.5 37t59.5 29t37 8t24 -10t17 -25q37 -147 80 -289q41 70 81.5 134.5t73.5 117.5q37 59 70 115 q16 29 31.5 42t25.5 17q12 6 23 4q39 -4 75 -10q31 -4 65 -8t56 -8q23 -4 29 -16.5t4 -24.5q-2 -15 -12 -33q-96 -137 -188.5 -277.5t-175.5 -273.5t-155.5 -251.5t-127 -211t-89 -154t-45.5 -77.5q-14 -27 -30.5 -40t-30.5 -19.5t-24.5 -6.5h-12.5q-4 0 -8 3.5t-16.5 7.5 t-37 8t-65.5 4q-33 0 -43 11t-10 26z" />
<glyph unicode="z" horiz-adv-x="761" d="M23 -25q4 18 11 54.5l14 73t13.5 65.5t8.5 35q4 12 16 31.5t18 29.5q2 2 22.5 35t54.5 85t77 117.5t86 133.5l234 360l-316 -125q-10 -2 -18 0q-20 0 -23 15q-2 6 -3 32.5t-1 56.5v56.5v34.5q0 16 14.5 41t28.5 29q139 66 272 120q57 25 119 48.5t122.5 43t116.5 35 t105 23.5q12 4 21 0q8 -4 11 -12.5t-3 -30.5q-4 -18 -8 -39q-4 -16 -9.5 -37.5t-11.5 -44.5q-8 -27 -15 -50.5t-17 -39.5q-4 -4 -9 -12q-8 -16 -18 -27q-4 -4 -27.5 -39t-60.5 -91t-83 -127t-93 -144q-113 -172 -254 -387q66 25 119 45q47 16 87 32.5t48 20.5q16 6 26 8 t17.5 -3t5.5 -21t-4 -44t-3 -57t-3 -53.5t-6 -34.5q-8 -20 -21.5 -39.5t-44.5 -30.5q-10 -4 -55 -20t-105.5 -38.5t-129 -47.5t-128 -47.5t-100.5 -37.5t-47 -19q-18 -10 -38 -3t-13 41z" />
<glyph unicode="{" horiz-adv-x="1009" d="M76 454.5q-4 10.5 4 26.5q6 16 18.5 44t23.5 55.5t20.5 49t11.5 25.5q4 10 13 27.5t44 28.5q141 14 256 26q49 4 98 9.5t90 9.5t71 7t42 3q14 -4 25 -10q23 -12 20 -31q-2 -10 -16.5 -35.5t-31.5 -55.5t-31.5 -54.5t-18.5 -32.5q-10 -20 -20.5 -39t-41.5 -27 q-18 -4 -91 -10t-162 -12t-173 -13.5t-123 -13.5q-10 2 -18 8q-6 4 -10 14.5zM482 233.5q-1 16.5 26 42.5q70 49 131 93q53 37 103.5 70.5t72.5 47.5q16 4 31 7q29 4 37 -11q4 -8 5 -33.5t2 -55t1 -54.5t2 -33q2 -23 -1 -41.5t-26 -38.5q-14 -12 -49 -34.5t-78 -50 t-88 -57.5t-80 -56q-14 -4 -24 -4t-18.5 5t-10.5 21q-4 14 -9 39t-10 49.5t-9.5 44t-6.5 23.5q0 10 -1 26.5zM639 1010q0 10 4 21t21 24q14 12 39.5 32.5t50 40t44 35t23.5 19.5q10 6 26.5 18t45.5 2q53 -37 102 -67q41 -27 80 -53t55 -38q6 -12 9 -24q2 -10 1 -21.5 t-10 -21.5q-8 -8 -33.5 -25.5t-55 -35t-55 -33t-34.5 -21.5q-18 -14 -37.5 -25.5t-44.5 -0.5q-14 6 -39.5 25.5t-56.5 43t-64.5 47t-64.5 39.5q-6 8 -6 19z" />
<glyph unicode="|" horiz-adv-x="415" d="M-43 -156q6 37 25.5 120t47 193.5t60.5 238.5t68 257q80 302 174 660q6 29 16 45t21 24q10 8 22 13q47 14 92 26q39 10 79 22.5t65 18.5t34 -2t13 -18q4 -12 0 -31q-39 -115 -77 -239.5t-75 -253.5q-51 -176 -96 -345.5t-79 -304.5t-56.5 -225t-26.5 -109q-4 -27 -15 -43 t-23.5 -26t-24 -15.5t-13.5 -5.5q-6 -2 -42.5 -6t-122.5 -37q-33 -12 -47.5 -7t-18.5 16q-6 12 0 34z" />
<glyph unicode="}" horiz-adv-x="1019" d="M68 211q4 -13 10 -25q14 -12 52 -38.5t79 -53.5q47 -33 102 -67q31 -8 47.5 3t26.5 19q6 2 25.5 18.5t44 36l49 39t39.5 31.5q14 12 18 23.5t4 21.5t-6 21q-29 16 -62.5 39.5t-64.5 47t-56.5 42t-39.5 24.5q-23 10 -42.5 0t-39.5 -24q-8 -6 -34.5 -21.5t-55.5 -34 t-55.5 -36t-34.5 -25.5q-12 -16 -6 -41zM314 964q3 17 26 37q14 12 49 36t78 51.5t89 56.5t81 55q12 4 22 4t18.5 -4t12.5 -20q2 -16 7 -41t10.5 -49.5t9.5 -44t4 -23.5q2 -10 3 -25.5t-26 -44.5q-72 -51 -133 -92q-53 -35 -103 -69.5t-71 -47.5q-16 -4 -31 -6 q-12 -2 -23 -1t-15 12q-4 8 -5.5 33.5t-1.5 54v54v34.5q-4 23 -1 40zM393 504q-4 -10 3 -17.5t18 -11.5q10 -6 24 -10q10 0 40 2t72 6t91 9l98 10q115 10 256 26q33 12 43.5 29.5t14.5 27.5q2 4 11 26t20.5 48.5t23.5 54t18 44.5q6 16 3 26t-9 17q-8 6 -18 8 q-39 -6 -123 -13.5t-173 -13.5t-162 -12t-91 -10q-29 -8 -41.5 -27t-22.5 -39q-4 -8 -18 -33.5t-30.5 -54.5t-31 -55.5t-16.5 -36.5z" />
<glyph unicode="~" horiz-adv-x="796" d="M123 676q0 10 10 18t23 19q14 12 36.5 26.5t47 27.5t47.5 25.5t37 20.5q33 14 65 25q29 10 60.5 15t60.5 -1q18 -2 35 -14q12 -10 23.5 -32t11.5 -58q-2 -23 4 -35q4 -12 18 -17.5t43 4.5q59 20 82 40t33 30q25 20 36 19t15 -7q2 -4 7 -31.5t10.5 -61.5t7.5 -62.5 t2 -34.5q0 -12 1 -25.5t-26 -34.5q-10 -8 -25.5 -22t-45 -30.5t-78 -34t-123.5 -31.5q-25 -4 -52.5 -4t-50 7t-39 25.5t-18.5 49.5q0 12 -2 24q-2 10 -6 19.5t-11 13.5q-6 2 -25.5 -4t-41 -15.5t-42 -19.5t-32.5 -18q-10 -8 -19 -13.5t-26 6.5q-8 8 -17 33t-17.5 55.5 t-13.5 59.5t-5 43z" />
<glyph unicode="&#xa2;" horiz-adv-x="780" d="M118.5 468q-12.5 101 33.5 249q29 96 72.5 163.5t84.5 110.5q49 51 101 84q25 12 46 22.5t44 20.5q4 20 9 38t9 28q4 12 6 22q6 31 15.5 47.5t17.5 24.5t21 12q41 12 77 25q33 10 66 20.5t53 14.5t28.5 -3.5t10.5 -17.5q2 -12 -4 -33q-10 -31 -19.5 -61.5t-19.5 -58.5 q66 0 113 -9.5t63 -19.5q27 -12 25 -24.5t-25 -37.5q-20 -23 -43.5 -60.5t-46.5 -72.5q-25 -41 -51 -86q-16 -20 -33 -20q-8 0 -14 2q-33 16 -68 22.5t-63 -4.5q-72 -23 -106 -55.5t-52 -67.5q-6 -12 -12 -28.5t-13 -32.5q-10 -35 -12 -74t12 -76q16 -39 62 -38q23 0 47.5 8 t46 17t35.5 18.5t16 9.5q14 6 32.5 14t37.5 -16q12 -16 20.5 -43t14.5 -53q6 -31 10 -66q8 -29 -25.5 -56.5t-81 -49t-91.5 -37t-58 -17.5q-6 -29 -10 -48t-8 -30q-6 -27 -16.5 -44t-21 -27.5t-18.5 -14.5t-10 -4q-6 -2 -37 -6t-104 -33q-29 -12 -39 -6t-15 19q-4 14 2 37 q4 27 14.5 66.5t20.5 90.5q-68 20 -94 68q-43 76 -55.5 177z" />
<glyph unicode="&#xa3;" horiz-adv-x="747" d="M39 -43q0 20 12 49q4 23 10.5 45.5t12.5 46.5q23 82 56.5 169t62.5 161q-23 -6 -41.5 -12t-32.5 -13q-12 0 -21 5q-8 4 -13 12t-1 24q2 16 7 44t10 55.5t9.5 49t6.5 28.5q4 10 10 27.5t37 35.5q4 0 12 2q6 2 13.5 4t17.5 6q-8 33 -9 79t11 116q4 23 9 41t9 37 q43 147 139.5 222t241.5 103q51 10 88 11q53 0 91 -13.5t61 -29.5q27 -20 43 -43q6 -10 16.5 -25.5t-0.5 -26.5q-6 -6 -24.5 -26.5t-42 -46t-47 -49t-37.5 -35.5q-27 -20 -47 -17q-8 2 -15 6q-23 25 -42 35t-40 10q-20 0 -35.5 -7t-27.5 -15q-14 -8 -25 -21q-35 -37 -47 -79 q-10 -37 -6 -74t14 -66q59 18 105.5 31.5t62.5 15.5q27 4 42.5 -3t15.5 -23q0 -10 -9.5 -37t-19.5 -57.5t-20.5 -57t-12.5 -35.5q-10 -35 -21.5 -49t-31.5 -24q-25 -10 -111 -33q-14 -35 -26.5 -69.5t-22.5 -63.5q-12 -33 -24 -64q49 18 96 39q41 16 82 33.5t65 30.5 q23 10 37.5 10t20.5 -4q8 -6 8 -16q0 -37 -2 -74q-2 -31 -4 -64.5t-8 -56.5q-6 -25 -19.5 -39t-25.5 -22q-14 -8 -31 -15q-121 -35 -218.5 -68.5t-168.5 -62.5q-82 -35 -150 -65q-35 -16 -45 -7t-10 25z" />
<glyph unicode="&#xad;" d="M86 475q2 16 8 44t11.5 55.5t9.5 49t6 25.5q4 10 9 28t36 36q78 25 145 47q57 18 113.5 36.5t79.5 24.5q14 0 26 -4q10 -4 19.5 -9t9.5 -15t-7 -38t-16.5 -58.5t-17.5 -57.5t-10 -35q-4 -16 -12.5 -32.5t-51.5 -36.5q-16 -8 -54 -19.5t-84 -25t-95 -27.5t-88 -29 q-14 0 -23 4q-20 8 -14 37z" />
<glyph unicode="&#x2000;" horiz-adv-x="863" />
<glyph unicode="&#x2001;" horiz-adv-x="1727" />
<glyph unicode="&#x2002;" horiz-adv-x="863" />
<glyph unicode="&#x2003;" horiz-adv-x="1727" />
<glyph unicode="&#x2004;" horiz-adv-x="575" />
<glyph unicode="&#x2005;" horiz-adv-x="431" />
<glyph unicode="&#x2006;" horiz-adv-x="287" />
<glyph unicode="&#x2007;" horiz-adv-x="287" />
<glyph unicode="&#x2008;" horiz-adv-x="215" />
<glyph unicode="&#x2009;" horiz-adv-x="345" />
<glyph unicode="&#x200a;" horiz-adv-x="95" />
<glyph unicode="&#x2010;" d="M86 475q2 16 8 44t11.5 55.5t9.5 49t6 25.5q4 10 9 28t36 36q78 25 145 47q57 18 113.5 36.5t79.5 24.5q14 0 26 -4q10 -4 19.5 -9t9.5 -15t-7 -38t-16.5 -58.5t-17.5 -57.5t-10 -35q-4 -16 -12.5 -32.5t-51.5 -36.5q-16 -8 -54 -19.5t-84 -25t-95 -27.5t-88 -29 q-14 0 -23 4q-20 8 -14 37z" />
<glyph unicode="&#x2011;" d="M86 475q2 16 8 44t11.5 55.5t9.5 49t6 25.5q4 10 9 28t36 36q78 25 145 47q57 18 113.5 36.5t79.5 24.5q14 0 26 -4q10 -4 19.5 -9t9.5 -15t-7 -38t-16.5 -58.5t-17.5 -57.5t-10 -35q-4 -16 -12.5 -32.5t-51.5 -36.5q-16 -8 -54 -19.5t-84 -25t-95 -27.5t-88 -29 q-14 0 -23 4q-20 8 -14 37z" />
<glyph unicode="&#x2012;" d="M86 475q2 16 8 44t11.5 55.5t9.5 49t6 25.5q4 10 9 28t36 36q78 25 145 47q57 18 113.5 36.5t79.5 24.5q14 0 26 -4q10 -4 19.5 -9t9.5 -15t-7 -38t-16.5 -58.5t-17.5 -57.5t-10 -35q-4 -16 -12.5 -32.5t-51.5 -36.5q-16 -8 -54 -19.5t-84 -25t-95 -27.5t-88 -29 q-14 0 -23 4q-20 8 -14 37z" />
<glyph unicode="&#x2013;" horiz-adv-x="999" d="M87 475q4 16 17 44t25 55.5t20.5 49t13.5 25.5q8 10 19 28t78 36q168 25 313 47q123 18 245 36.5t171 24.5q30 0 56 -4q22 -4 42.5 -9t20.5 -15t-15 -38t-35.5 -58.5t-38 -57.5t-21.5 -35q-9 -16 -27 -32.5t-111 -36.5q-35 -8 -117 -19.5t-181 -25t-205 -27.5t-190 -29 q-30 0 -50 4q-43 8 -30 37z" />
<glyph unicode="&#x2014;" horiz-adv-x="2023" d="M90 475q9 16 34.5 44t49.5 55.5t41 49t26 25.5q17 10 39 28t155 36q337 25 626 47q246 18 490 36.5t344 24.5q60 0 112 -4q43 -4 84 -9t41 -15t-30 -38t-71 -58.5t-76 -57.5t-43 -35q-17 -16 -54 -32.5t-222 -36.5q-70 -8 -234 -19.5t-362.5 -25t-410 -27.5t-379.5 -29 q-61 0 -100 4q-86 8 -60 37z" />
<glyph unicode="&#x2018;" horiz-adv-x="430" d="M199 856q-6 18 10 55q23 61 51 123q25 53 58.5 113.5t74.5 112.5q8 16 19 26q10 10 22 17.5t33 5.5q20 -2 48 -7.5t53.5 -9.5t44 -8t22.5 -4q4 -2 7 -18.5t-11 -40.5q-6 -12 -26.5 -58.5t-44 -99.5t-43 -103.5t-23.5 -72.5q-6 -23 -14.5 -37t-17.5 -22.5t-19.5 -12.5 t-16.5 -6q-8 -4 -37 1t-62.5 11t-64.5 12.5t-39 6.5q-18 -2 -24 16z" />
<glyph unicode="&#x2019;" horiz-adv-x="425" d="M206 854q-3 16 11 41q6 12 26.5 58t44 99.5t43 103.5t25.5 73q10 47 31 59t35 19q8 2 36.5 -2.5t62.5 -10.5t63.5 -12t40.5 -6q18 2 24 -16.5t-10 -55.5q-25 -61 -53 -123q-25 -53 -57.5 -113.5t-73.5 -111.5q-8 -16 -19 -27q-10 -10 -23.5 -17t-31.5 -5q-20 2 -48 6 t-52.5 9t-44 9.5t-21.5 4.5q-6 2 -9 18z" />
<glyph unicode="&#x201c;" horiz-adv-x="808" d="M205 856q-6 18 10 55q23 61 51 123q25 53 58.5 113.5t74.5 112.5q8 16 19 26q10 10 22.5 17.5t32.5 5.5t48 -7.5t53.5 -9.5t44 -8t22.5 -4q4 -2 7 -18.5t-11 -40.5q-6 -12 -26.5 -58.5t-44 -99.5t-43 -103.5t-23.5 -72.5q-6 -23 -14.5 -37t-17.5 -22.5t-19.5 -12.5 t-16.5 -6q-6 -4 -35.5 1t-63.5 11t-64.5 12.5t-39.5 6.5q-18 -2 -24 16zM579 852q-5 18 11 55q23 61 51 123q25 53 57.5 113.5t73.5 111.5q8 16 19 27q10 10 23 17.5t32 5.5q20 -2 48 -7.5t53.5 -9.5t44 -8t22.5 -4q6 -2 8 -18.5t-10 -40.5q-6 -12 -27.5 -58.5t-44 -99.5 t-43 -103.5t-25.5 -72.5q-10 -47 -31.5 -59.5t-35.5 -18.5q-6 -4 -35 1t-62.5 11t-64.5 12.5t-39 6.5q-20 -2 -25 16z" />
<glyph unicode="&#x201d;" horiz-adv-x="804" d="M193.5 854q-3.5 16 11.5 41q6 12 26.5 58t44 99.5t43 103.5t25.5 73q10 47 30.5 59t37.5 19q6 2 34.5 -2.5t62.5 -10.5t63.5 -12t39.5 -6q20 2 25.5 -16.5t-10.5 -55.5q-23 -61 -52 -123q-25 -53 -58.5 -113.5t-72.5 -111.5q-8 -16 -18 -27q-10 -10 -23.5 -17t-31.5 -5 q-20 2 -48 6t-53.5 9t-45 9.5t-21.5 4.5q-6 2 -9.5 18zM567 849.5q-2 16.5 11 41.5q6 12 27.5 58t44 99.5t43 103.5t24.5 73q10 45 31.5 58t35.5 20q6 2 36 -2.5t64 -10.5t63.5 -12t39.5 -6q18 2 24 -16.5t-10 -55.5q-25 -61 -53 -123q-25 -53 -57.5 -113.5t-73.5 -111.5 q-8 -16 -18 -27q-10 -10 -23.5 -17t-32.5 -5q-20 2 -47.5 6t-53.5 9t-44 9t-23 4q-6 2 -8 18.5z" />
<glyph unicode="&#x2022;" horiz-adv-x="684" d="M137 574.5q4 62.5 19 121.5q29 119 110.5 194t245.5 97q78 10 125 -7t68.5 -53t22.5 -88.5t-13 -111.5t-42 -118.5t-72 -107.5t-104.5 -83t-142.5 -45q-88 -10 -135 16.5t-66.5 74.5t-15.5 110.5z" />
<glyph unicode="&#x2026;" horiz-adv-x="1253" d="M-6 80q10 35 32.5 80t61.5 69q39 25 89 41.5t95 16.5q35 0 58.5 -13.5t23.5 -44.5q2 -41 -23.5 -91t-70.5 -83q-41 -31 -96 -50t-96 -17q-47 2 -65.5 21.5t-8.5 70.5zM412 80q10 35 32.5 80t61.5 69q39 25 89 41.5t95 16.5q35 0 58.5 -13.5t23.5 -44.5q2 -41 -23.5 -91 t-70.5 -83q-41 -31 -96.5 -50t-96.5 -17q-47 2 -65.5 21.5t-7.5 70.5zM829 80q10 35 33 80t62 69q39 25 89 41.5t95 16.5q35 0 58.5 -13.5t23.5 -44.5q2 -41 -23.5 -91t-70.5 -83q-41 -31 -96.5 -50t-96.5 -17q-47 2 -65.5 21.5t-8.5 70.5z" />
<glyph unicode="&#x202f;" horiz-adv-x="345" />
<glyph unicode="&#x205f;" horiz-adv-x="431" />
<glyph unicode="&#x20ac;" horiz-adv-x="903" d="M59 264q2 14 7.5 36t9.5 43.5t8 37.5t6 20q2 8 6 22.5t29 29.5q12 2 29 8l31.5 9t39.5 11q2 18 5 37t8 39q-16 -4 -50 -13t-43 -14q-10 0 -18 5q-6 4 -11 9t-1 19q2 12 7 33.5t9 43.5t8 39t4 21q4 8 8.5 21.5t26.5 28.5q23 6 45 12q18 4 41 10t39 12q41 115 90 195 t90 133q49 61 95 100q113 86 209 116t169 30q66 0 109 -14.5t59 -26.5q25 -18 21 -36.5t-29 -53.5q-23 -35 -47.5 -67t-42.5 -60q-23 -33 -43 -62q-20 -31 -35 -30q-8 -2 -14 4q-31 23 -65.5 30t-63.5 -4q-68 -29 -103.5 -70.5t-58.5 -86.5q47 14 83 23t46 11q45 6 41 -22 q0 -8 -6 -28.5t-14.5 -44t-16.5 -45t-10 -27.5q-8 -29 -17.5 -40.5t-23.5 -17.5q-10 -4 -60.5 -18.5t-115.5 -30.5q-4 -18 -8 -35.5t-9 -36.5q51 16 88 25.5t48 11.5q41 6 45 -22q0 -8 -7.5 -30t-16.5 -45.5t-16 -44t-9 -26.5q-8 -29 -16.5 -40t-24.5 -17q-8 -4 -38 -12.5 t-71 -20.5q0 -10 1 -18t1 -17q8 -59 53 -59q20 0 46 11t47.5 24.5t37 26t19.5 14.5q6 4 14 11t17.5 9t18.5 -2t17 -20q10 -23 18.5 -42.5t14.5 -35.5q8 -20 12 -37q2 -8 3.5 -20.5t-5 -27.5t-20.5 -33t-43 -36q-92 -72 -175 -102.5t-149 -30.5q-80 0 -132 35t-68 86 q-10 41 -18.5 86t-12.5 98q-41 -10 -73 -19t-48 -16q-10 -2 -18 3q-6 4 -11.5 9t-1.5 19z" />
<glyph unicode="&#x2122;" horiz-adv-x="837" d="M270 1137q-2 -4 2 -9q4 -4 9.5 -4t21.5 6q10 4 21 9q10 4 22 8t29 10q-10 -39 -25.5 -97.5t-31 -118.5t-27.5 -112.5t-19 -80.5q-2 -8 2 -15q4 -14 29 -6q27 10 47.5 14t24.5 7q4 0 14 7t17 40q10 47 24 100q10 45 25.5 97t31.5 106q8 31 16.5 59.5t16.5 50.5 q16 4 33 8.5t29 6.5q8 0 16 4q14 6 23 24q8 18 14 46t8 32t-3 16.5t-44 -2.5q-23 -6 -58.5 -17t-76.5 -23.5t-81 -27.5t-69 -32q-6 -4 -12 -10q-4 -4 -10 -12.5t-8 -18.5t-3.5 -21.5t-3.5 -21.5q-2 -12 -4 -22zM444 719q-6 6 0 16q14 51 39 125t50.5 147.5t52 138t49.5 99.5 q0 4 2 8q2 6 14 15q6 4 20.5 10t32 12t34 11.5t26.5 7.5q4 2 8 0q6 -4 6 -19q0 -18 -8 -65t0 -97q18 35 37 68q14 29 28.5 57.5t22.5 51.5q4 4 8 10q6 8 17 12q8 4 39.5 16.5t74.5 14.5q4 2 11 0q10 -6 8 -17q-2 -8 -14.5 -54t-29 -111.5t-33.5 -144.5t-28 -154l-6 -48 l-4 -8q-4 -4 -7 -8t-9 -8q-16 -8 -53 -20.5t-58 -16.5q-6 0 -8 2q-6 2 0 18q2 8 9 42t16.5 75t17.5 83t14 65l-49 -111q-20 -43 -37.5 -80t-21.5 -45q-4 -6 -15.5 -12t-22.5 -10t-18.5 -2t-5.5 12v33.5t1 64.5t2 64.5t1 36.5q-12 -37 -24 -76q-10 -35 -23.5 -76t-29.5 -82 q0 -4 -5 -8q-4 -4 -8 -7t-12 -7q-16 -8 -50 -17.5t-54 -13.5q-4 0 -7 2z" />
<glyph unicode="&#x25fc;" horiz-adv-x="1382" d="M0 0v1382h1382v-1382h-1382z" />
</font>
</defs>
</svg>
