<?xml version="1.0" standalone="no"?>
<!DOCTYPE svg PUBLIC "-//W3C//DTD SVG 1.1//EN" "http://www.w3.org/Graphics/SVG/1.1/DTD/svg11.dtd" >
<svg xmlns="http://www.w3.org/2000/svg" xmlns:xlink="http://www.w3.org/1999/xlink" version="1.1">
<metadata></metadata>
<defs>
<font id="digitalstrip_bbregular" horiz-adv-x="659" >
<font-face units-per-em="2048" ascent="1589" descent="-459" />
<missing-glyph horiz-adv-x="500" />
<glyph unicode="&#x28;C&#x29;" horiz-adv-x="1335" d="M84 578q0 281 180 495q193 227 467 227q229 0 377 -176q141 -166 141 -397q0 -283 -182 -496q-190 -225 -467 -225q-227 0 -375 174q-141 168 -141 398zM238 549q0 -145 90 -242.5t235 -97.5q207 0 365.5 163.5t158.5 368.5q0 147 -90 245.5t-233 98.5 q-207 0 -366.5 -163.5t-159.5 -372.5zM395 610q0 131 80 236q86 115 213 115q111 0 191 -113q14 -20 14 -45q0 -31 -21.5 -64.5t-46.5 -33.5q-14 0 -26.5 10t-12.5 22q6 23 7 27q0 23 -35 39q-29 14 -53 14q-76 0 -157 -69.5t-81 -143.5q0 -55 54 -105t112 -50q49 0 128 51 t89 51q35 0 35 -49q0 -72 -90 -133q-82 -57 -156 -58q-113 0 -182 97q-61 86 -62 202z" />
<glyph unicode="&#x28;R&#x29;" horiz-adv-x="1345" d="M90 582q0 281 182 497q190 227 469 228q227 0 377 -177q142 -166 142 -397q0 -279 -185 -495q-193 -225 -465 -226q-229 0 -377 172q-143 166 -143 398zM246 555q0 -145 90 -242.5t233 -97.5q209 0 368 163t159 372q0 147 -88 243.5t-236 96.5q-203 0 -364.5 -164 t-161.5 -371zM461 381q0 14 8 45q27 100 27 348q0 12 -4.5 39t-4.5 41q0 27 24 46.5t50 12.5q59 16 115 17q84 0 145 -41q70 -49 70 -127q0 -80 -74 -135q-57 -47 -143 -66q27 -14 70.5 -37.5t72.5 -29.5q45 -8 45 -50q0 -75 -37 -75q-16 0 -45 26q-68 59 -223 137 q-2 -39 -2 -53q0 -12 3 -34.5t3 -34.5q0 -59 -69 -60q-31 0 -31 31zM563 637q76 0 156 31q102 39 102 104q0 68 -139 68q-45 -1 -102 -9q-10 -70 -17 -194z" />
<glyph horiz-adv-x="0" />
<glyph unicode="&#xd;" />
<glyph horiz-adv-x="0" />
<glyph horiz-adv-x="0" />
<glyph unicode=" " />
<glyph unicode="!" horiz-adv-x="548" d="M70 129q0 51 33.5 90t84.5 39t90 -42t39 -91q0 -45 -34.5 -81t-79.5 -36q-53 0 -93 35t-40 86zM147 512q0 33 25 94q29 80 53 256q20 162 21 264q0 18 -4 54.5t-4 54.5q0 61 47 108.5t108 47.5q86 0 86 -91q0 -25 -10 -59q-102 -363 -102 -670q0 -57 -39 -100t-95 -43 q-37 0 -61.5 24.5t-24.5 59.5z" />
<glyph unicode="&#x22;" horiz-adv-x="735" d="M96 1284q0 49 51 86q49 33 97 33q70 0 69 -74q0 -39 -17 -121t-5 -215v-18q0 -47 -40 -82t-83 -35q-68 0 -68 76q0 31 -2 179.5t-2 170.5zM426 1307q0 49 53 84q47 35 94 34q72 0 72 -73q0 -41 -17 -122t-5 -214v-19q0 -47 -40 -82.5t-85 -35.5q-68 0 -68 75 q0 29 -2 178.5t-2 174.5z" />
<glyph unicode="#" horiz-adv-x="1030" d="M82 446q0 92 139 95q2 63 15 186q-55 2 -96.5 36t-41.5 85q0 53 49 78q39 20 97 20q2 68 2 90q0 25 -8.5 74t-8.5 74q0 55 41 101t95 46q88 0 88 -94q0 -31 -11 -78q-10 -63 -12 -74q-4 -35 -18 -153q127 0 247 37v59q0 27 -9 78t-9 78q0 57 43 102t102 45q78 0 78 -100 q0 -37 -12 -113q-14 -84 -18 -112q122 -21 122 -132q0 -92 -147 -88q-8 -92 -14 -184q55 -2 101 -37t46 -88q0 -55 -55 -82q-43 -18 -103 -14q-8 -94 -8 -115q0 -20 5 -61t5 -62q0 -53 -40.5 -96t-96.5 -43q-37 0 -61.5 26.5t-24.5 63.5t12 86q10 35 23 84q8 55 18 119 q-131 -4 -249 -29q-4 -72 -5 -94q0 -20 5.5 -58t5.5 -59q0 -53 -41 -96t-94 -43q-39 0 -63.5 26.5t-24.5 67.5q0 29 18 88q10 37 29 140q-45 8 -80 42.5t-35 77.5zM375 526h18q125 0 244 35q2 76 14 230q-143 -6 -256 -27q-14 -117 -20 -238z" />
<glyph unicode="$" horiz-adv-x="1187" d="M80 893q0 158 151 258q90 61 293 119q0 80 35 137q39 66 105 66q82 0 81 -125q0 -18 -2 -35q61 8 95 8q70 0 121 -52t51 -124q0 -49 -36 -91t-85 -42q-37 0 -95.5 41t-74.5 43q-14 -127 -25 -316q176 -74 267 -143q145 -109 145 -248q0 -137 -152 -250 q-121 -90 -278 -129v-22q0 -66 -35 -119q-39 -61 -102 -62q-82 0 -82 113q0 31 6 62q-340 -2 -340 172q0 47 35 74.5t82 27.5q29 0 65 -18l64 -27q33 -16 131 -18q12 125 28 411q-193 59 -231 76q-158 61 -195 127q-23 37 -22 86zM309 969q0 -74 230 -133q2 139 2 245 q-231 -41 -232 -112zM668 207q84 16 157 53q101 48 101 111q0 100 -244 186q-14 -260 -14 -350z" />
<glyph unicode="%" horiz-adv-x="1470" d="M80 922q0 166 153 270q135 92 308 92q254 0 348 -184q6 14 10 26q14 70 51 115q43 57 107 57q45 0 76.5 -26.5t31.5 -69.5t-51 -106q-92 -121 -283 -441q98 41 203 41q145 0 256 -78q123 -88 123 -227q0 -164 -153 -270q-135 -90 -308 -90q-117 0 -213 49 q-106 55 -145 156l-66 -144q-45 -78 -127 -78q-43 0 -71.5 29t-28.5 70q0 33 94 159q121 162 127 168q41 72 123 213q-88 -33 -188 -32q-145 0 -254 75q-123 84 -123 226zM287 926q0 -72 47 -113t121 -41q94 0 176 63.5t82 155.5q0 63 -62 105q-53 37 -121 37 q-92 0 -165 -58q-78 -61 -78 -149zM780 334q0 -70 49.5 -112t120.5 -42q92 0 175 63.5t83 153.5q0 66 -59 107q-53 37 -121 37q-94 0 -166 -56q-82 -61 -82 -151z" />
<glyph unicode="&#x26;" horiz-adv-x="1384" d="M80 215q0 150 262 287q-102 23 -166 73q-78 63 -78 156q0 166 267 342q102 70 307 152q221 88 325 88q94 0 95 -68q0 -31 -40 -83t-73 -52q-6 0 -127 -8t-283 -86q-244 -115 -243 -232q0 -119 241 -118q68 0 115 12q121 27 147 27q41 0 71 -21.5t30 -60.5q0 -41 -40 -77 t-81 -36q-113 0 -307 -72q-221 -80 -221 -164q0 -76 170 -75q90 0 311 32q236 33 297 62q16 8 51 22v95q0 47 -12.5 123.5t-12.5 109.5q0 53 44.5 98t97.5 45q84 0 84 -84q0 -25 -4 -55q-45 -204 -45 -407q0 -78 12 -154q2 -8 2 -27q0 -55 -40 -99t-95 -44q-35 0 -60.5 23.5 t-25.5 58.5q0 25 10 57l16 54q-332 -104 -610 -105q-141 0 -244 39q-147 57 -147 172z" />
<glyph unicode="'" horiz-adv-x="430" d="M115 1284q0 49 51 86q49 33 96 33q70 0 70 -74q0 -39 -17.5 -121t-5.5 -215v-18q0 -47 -40 -82t-83 -35q-68 0 -67 76q0 31 -2 179.5t-2 170.5z" />
<glyph unicode="(" horiz-adv-x="831" d="M84 639q0 315 389 692q125 119 225 119q82 0 82 -72q0 -14 -2 -22q-12 -51 -147 -172q-172 -150 -238 -238q-125 -161 -125 -323q0 -121 76 -244q61 -96 162 -168q63 -43 192 -131q59 -41 60 -113q0 -113 -117 -112q-59 0 -168 106q-389 381 -389 678z" />
<glyph unicode=")" horiz-adv-x="870" d="M86 -72q0 63 88 140q193 164 277 268q145 180 145 346q0 123 -78 244q-59 94 -160 170q-63 43 -190 131q-61 41 -62 112q0 113 117 113q63 0 170 -104q389 -381 389 -682q0 -315 -389 -693q-123 -116 -225 -116q-82 0 -82 71z" />
<glyph unicode="*" horiz-adv-x="794" d="M86 1016q0 55 57 80q53 12 105 26q-76 27 -98 41q-45 31 -46 92q0 74 74 74q37 0 82 -35q23 -20 70 -61q-16 94 -17 102q0 41 31 80t72 39q74 0 73 -86q0 -29 -8 -70q-12 -51 -12 -67l61 49q37 27 74 27q41 0 75 -20.5t34 -59.5q0 -51 -51 -76l-97 -33q51 -10 90 -45 q43 -37 43 -86q0 -29 -20.5 -52.5t-50.5 -23.5q-37 0 -90 39q-25 20 -78 60q10 -100 10 -103q0 -47 -30.5 -84t-76.5 -37q-29 0 -48 27t-19 57q0 35 29 136q-100 -70 -136 -70q-39 0 -70.5 21.5t-31.5 58.5z" />
<glyph unicode="+" horiz-adv-x="1017" d="M82 662q0 49 39 75q35 25 86 25q31 0 100 -12q61 -8 109 -9h22q-2 31 -16 107q-14 68 -14 98q0 53 38.5 104.5t92.5 51.5q45 0 71.5 -32t26.5 -79q0 -39 -16 -114q-14 -86 -17 -119q20 6 92 28q55 16 95 17q55 0 103 -36t48 -89q0 -96 -123 -96q-33 0 -96.5 4t-93.5 4 h-33q0 -33 8 -99.5t8 -101.5q0 -55 -37.5 -101t-93.5 -46q-43 0 -68.5 30.5t-25.5 75.5q0 39 19.5 114t25.5 116q-20 -2 -113 -21q-74 -16 -100 -16q-51 0 -94 36.5t-43 84.5z" />
<glyph unicode="," horiz-adv-x="512" d="M78 -80q0 33 28 72q37 53 51.5 82.5t26.5 140.5q10 90 43 111q43 27 103 26q106 0 106 -73q0 -25 -75.5 -228t-192.5 -203q-90 0 -90 72z" />
<glyph unicode="-" horiz-adv-x="989" d="M66 666q2 47 43 75q37 27 86 27q37 0 110.5 -11.5t110.5 -11.5q147 0 264 41q59 23 102 23q51 0 99.5 -37t44.5 -90q-2 -47 -52 -74q-37 -20 -88 -20q-31 0 -91 4t-91 4q-190 0 -346 -41q-39 -8 -65 -8q-51 0 -91.5 35.5t-35.5 83.5z" />
<glyph unicode="." horiz-adv-x="430" d="M92 131q0 49 34 89t83 40q51 0 91 -41t40 -90q0 -45 -35 -81t-82 -36q-51 0 -91 34t-40 85z" />
<glyph unicode="/" horiz-adv-x="960" d="M55 106q0 20 170 281q94 141 189 285q211 356 235 448q45 172 172 172q94 0 94 -90q0 -47 -49 -115q-137 -182 -364 -571l-109 -188q-37 -86 -78 -168q-55 -121 -100 -137q-30 -13 -61 -13q-45 0 -72 26.5t-27 69.5z" />
<glyph unicode="0" horiz-adv-x="1333" d="M80 584q0 281 180 497q193 225 469 226q229 0 377 -177q141 -166 141 -397q0 -283 -182 -495q-190 -225 -467 -226q-229 0 -377 172q-141 168 -141 400zM236 553q0 -145 90 -241.5t233 -96.5q209 0 367.5 164t158.5 373q0 145 -89 241.5t-232 96.5q-207 0 -367.5 -165 t-160.5 -372z" />
<glyph unicode="1" horiz-adv-x="585" d="M76 915q0 35 65 97q76 70 88 94q6 8 31 88q16 53 47 80q41 29 90 29q51 0 86 -28t35 -75q0 -16 -6 -45q-29 -137 -55 -489q-19 -257 -19 -359q0 -25 5.5 -76t5.5 -75q0 -53 -42 -94.5t-94 -41.5q-39 0 -61.5 24t-22.5 60q0 31 17 89q55 182 67 739q-25 -55 -45 -72 q-31 -27 -84 -26q-39 0 -71 20q-37 23 -37 61z" />
<glyph unicode="2" horiz-adv-x="1048" d="M55 1077q0 63 45 90q100 59 236 99q139 41 248 41q158 0 254 -70q104 -82 104 -236q0 -358 -459 -784q109 8 213 21q35 4 99 16q68 14 90 14q51 0 93 -38t42 -91q0 -51 -39 -78.5t-92 -27.5q-29 0 -87.5 4t-86.5 4q-168 0 -404 -25q-139 -16 -129 -16q-66 0 -65 70 q0 121 106 198q557 414 557 688q0 76 -59 113q-51 35 -129 35q-68 0 -195 -32t-184 -60q-59 -39 -80 -39q-37 0 -59 35q-18 31 -19 69z" />
<glyph unicode="3" horiz-adv-x="1155" d="M86 1077q0 86 61 115q102 47 239.5 75.5t250.5 28.5q154 0 264 -39q162 -55 162 -176q0 -151 -246 -284q104 -25 170 -78q84 -66 84 -160q0 -135 -172 -276q-129 -104 -332 -193q-225 -98 -370 -98q-96 0 -97 67q0 41 38 83t79 42q96 0 223 36t211 85q190 113 191 209 q0 61 -84 94q-63 27 -137 27q-96 0 -347 -53q-39 -8 -59 -9q-43 0 -74.5 24t-31.5 65q0 43 37.5 76.5t80.5 33.5q90 0 237.5 34t231.5 75q168 80 168 139q0 84 -205 84q-76 0 -219 -27q-150 -27 -211 -49q-20 -10 -39 -22q-23 -10 -43 -11q-31 0 -46 24.5t-15 57.5z" />
<glyph unicode="4" horiz-adv-x="993" d="M96 561q0 27 19 78q33 100 32 276q0 104 -16 158q-14 45 -14 72q0 53 43 99t96 46q86 0 86 -88q0 -25 -6 -53q-37 -172 -37 -348q0 -88 12 -150q145 0 394 21q8 180 8 293q0 86 -6 108q-14 45 -15 72q0 55 45 101t101 46q80 0 80 -98q0 -23 -5 -45q-73 -365 -73 -842 q0 -25 5 -78t5 -79q0 -51 -42 -92.5t-95 -41.5q-37 0 -60.5 23.5t-23.5 60.5q0 27 18 84q23 74 45 330l-186 -20q-139 -16 -172 -31q-55 -25 -86 -25q-57 0 -104.5 25.5t-47.5 97.5z" />
<glyph unicode="5" horiz-adv-x="1142" d="M86 612q0 35 21.5 116t21.5 126q0 94 -35 221q-8 35 -8 66q0 59 39 107t96 48q27 0 51 -16l265 12q141 12 262 41q33 8 55 8q53 0 95 -39.5t42 -91.5q0 -51 -39 -78.5t-92 -27.5q-31 0 -97.5 6t-100.5 6q-117 0 -373 -26q-8 -63 -8 -134q0 -94 16 -190q195 59 346 59 q158 0 287 -61q164 -76 164 -215q0 -137 -158 -275q-121 -102 -311 -186q-207 -90 -351 -90q-98 0 -98 68q0 39 34 80.5t73 46.5q287 39 419 120q168 104 168 197q0 70 -92 104q-68 27 -147 27q-131 0 -334 -51q-20 -20 -62 -36.5t-71 -16.5q-78 0 -78 75z" />
<glyph unicode="6" horiz-adv-x="1150" d="M76 606q0 262 151 469q166 231 416 232q106 0 186 -50q63 -37 140 -129q49 -57 49 -120q0 -41 -32 -75t-75 -34q-37 0 -67.5 23.5t-30.5 60.5q0 6 2 20.5t2 25.5t-4 28q-70 53 -149 53q-154 0 -291 -160q-127 -147 -150 -309q184 84 443 84q147 0 264 -43 q160 -61 160 -184q0 -100 -113 -252q-172 -233 -418 -234q-219 0 -358 195q-125 174 -125 399zM238 434q27 -96 105.5 -157.5t176.5 -61.5q131 0 266 104q106 80 107 125q0 72 -209 72q-236 0 -410 -72q-10 -4 -36 -10z" />
<glyph unicode="7" horiz-adv-x="993" d="M51 1118q0 45 23.5 84t64.5 43q14 2 310 17q184 8 309 41q37 8 63 8q53 0 92 -40t39 -95q1 -33 -22 -60q-14 -41 -49 -110q-41 -82 -52 -111q-129 -311 -217 -582q-23 -68 -49 -182q-8 -59 -47 -96t-98 -37q-37 0 -64.5 23.5t-27.5 60.5q0 41 47 111q68 102 219 532 q100 281 102 358l-53 2q-51 2 -205 -10q-39 -2 -164 -18q-111 -14 -157 -15q-63 0 -64 76z" />
<glyph unicode="8" horiz-adv-x="1120" d="M90 358q0 213 238 338q-166 86 -166 254q0 160 151 267q135 92 308 92q145 0 253 -74q123 -86 123 -225q0 -170 -174 -283q100 -43 160 -121q66 -82 66 -186q0 -184 -175 -307q-158 -109 -350 -109q-174 0 -295 90q-139 98 -139 264zM291 340q0 -88 74 -141 q68 -47 157 -47q119 0 219 79q106 84 107 201q0 86 -76 139q-66 50 -158 50q-121 0 -219 -80q-104 -84 -104 -201zM369 952q0 -70 47 -112.5t119 -42.5q96 0 174 59q86 68 86 160q0 66 -60 106q-53 37 -123 37q-92 0 -166 -55q-78 -63 -77 -152z" />
<glyph unicode="9" horiz-adv-x="1142" d="M84 854q0 186 176 309q158 109 348 109q168 0 295 -88q139 -98 139 -260l-14 -93q0 -4 -8 -98q-23 -319 -23 -420q0 -25 5.5 -74t5.5 -73q0 -53 -42 -94t-96 -41q-35 0 -59.5 23.5t-24.5 58.5q0 51 25 145q29 106 31 145q2 33 14 207q-152 -102 -340 -102q-168 0 -293 88 q-139 98 -139 258zM283 844q0 -86 75 -139q68 -49 158 -50q121 0 219 80q106 84 107 201q0 86 -76 139q-70 49 -160 49q-119 0 -219 -80q-104 -84 -104 -200z" />
<glyph unicode=":" horiz-adv-x="452" d="M98 131q0 49 34 89t83 40t89 -41t40 -90q0 -47 -35 -82t-82 -35q-53 0 -91 34t-38 85zM127 629q0 51 34 91t81 40q53 0 92 -40t39 -91q0 -47 -34 -84t-81 -37q-51 0 -91 35t-40 86z" />
<glyph unicode=";" horiz-adv-x="499" d="M78 -80q0 33 28 72q37 53 51.5 82.5t26.5 140.5q10 90 43 111q43 27 103 26q106 0 106 -73q0 -25 -75.5 -228t-192.5 -203q-90 0 -90 72zM145 629q0 51 34 91t83 40t89 -40t40 -91q0 -47 -33.5 -84t-78.5 -37q-53 0 -93.5 35t-40.5 86z" />
<glyph unicode="&#x3c;" horiz-adv-x="1157" d="M70 684q0 20 10 41q41 74 160 141q74 41 147 101q250 190 363 340q82 109 165 135q49 16 84 16q96 0 97 -82q0 -72 -127 -155q-258 -168 -625 -537q250 -266 471 -430q55 -37 168 -115q113 -81 113 -149q0 -80 -97 -80q-119 0 -219 113q-37 43 -110 129 q-109 117 -283 251q-72 55 -147 99q-115 68 -160 141q-10 18 -10 41z" />
<glyph unicode="=" horiz-adv-x="1030" d="M80 459q0 47 39 73q35 25 84 25q37 0 110.5 -11t112.5 -11q145 0 258 43q59 23 100 22q55 0 105.5 -37t50.5 -90q0 -47 -45 -74q-37 -20 -90 -20q-31 0 -91.5 4t-88.5 4q-188 0 -346 -41q-37 -10 -62 -10q-51 0 -94 37t-43 86zM84 825q0 47 39 76q35 23 84 23 q35 0 108.5 -10.5t110.5 -10.5q150 0 264 43q57 23 98 23q55 0 105.5 -38t50.5 -91q0 -49 -45 -74q-37 -20 -90 -21q-29 0 -89.5 4.5t-90.5 4.5q-190 0 -346 -41q-37 -8 -62 -8q-51 0 -94 34.5t-43 85.5z" />
<glyph unicode="&#x3e;" horiz-adv-x="1157" d="M72 -10q0 76 127 160q238 152 483 389l139 145q-211 209 -297 285q-162 143 -325 252q-127 86 -127 157q0 80 96 80q131 0 250 -151q129 -172 358 -340q57 -37 170 -111q152 -96 152 -172q0 -74 -152 -174q-59 -39 -170 -107q-174 -135 -280 -251q-37 -45 -111 -129 q-98 -113 -217 -113q-96 0 -96 80z" />
<glyph unicode="?" horiz-adv-x="1126" d="M92 1059q0 61 45 90q104 66 269 113q158 45 282 45q139 0 238 -37q141 -53 141 -166q0 -111 -119 -225q-92 -88 -215 -148q-39 -18 -301 -123q-23 -10 -31 -16q-12 -10 -14 -31q0 -8 2 -19.5t2 -17.5q0 -102 -102 -102q-59 0 -81 23.5t-22 84.5q0 68 27 125q29 72 84 86 q78 20 229 60q117 33 215 94q141 86 142 145q0 72 -166 72q-131 0 -389 -90q-23 -8 -78 -29q-59 -39 -82 -39q-35 0 -57 37q-18 31 -19 68zM141 123q0 47 34 88t81 41q49 0 90 -41t41 -90q0 -45 -34 -82t-79 -37q-53 0 -93 35t-40 86z" />
<glyph unicode="@" horiz-adv-x="1337" d="M86 551q0 274 182 489q193 229 461 230q238 0 385 -172q139 -162 139 -402q0 -162 -61 -305q-33 -76 -96 -160q-82 -109 -135 -108q-82 0 -99 340q-59 -63 -160 -117q-111 -57 -188 -57q-150 0 -149 176q0 164 105 279.5t267 115.5q33 0 74 -21.5t51 -21.5q8 0 47 25.5 t66 25.5t26 -24q0 -27 -10 -79t-10 -79q0 -49 8 -129q8 -96 10 -129q94 135 95 285q0 150 -87 246t-235 96q-209 0 -368.5 -164t-159.5 -375q0 -168 121 -266q55 -45 129 -64q53 -12 53 -43q0 -43 -45 -73q-43 -29 -88 -29q-143 0 -258 219q-70 133 -70 291zM492 535 q0 -78 83 -78q76 0 150 45q84 51 84 123q0 39 -51 63q-45 18 -88 19q-63 0 -120.5 -54.5t-57.5 -117.5z" />
<glyph unicode="A" horiz-adv-x="1052" d="M29 127q0 43 47 119q59 96 203 444q150 360 161 451q10 76 29 112q29 53 90 66q18 2 39 2q66 0 84 -72q14 -47 18 -86q6 -68 39 -196q74 -276 172 -561q20 -63 58 -142q45 -70 45 -123q0 -49 -23 -94q-29 -51 -76 -51q-51 0 -77 72q-8 39 -25 116l-25 107l-507 -45 q-20 -70 -41 -142q-36 -69 -119 -69h-2q-41 0 -65.5 26.5t-24.5 65.5zM348 436l391 29q-90 322 -159 520q-94 -205 -232 -549z" />
<glyph unicode="B" horiz-adv-x="1075" d="M57 82q0 63 21 186q27 143 28 191q25 293 25 485q0 82 -6 109q-10 51 -10 73q0 55 43 100.5t98 45.5q18 0 37 -10q136 38 246 38h6q150 0 272 -67q150 -82 150 -219q0 -150 -164 -250q209 -100 209 -297q0 -211 -295 -356q-188 -92 -512 -99q-31 -16 -60 -16 q-88 0 -88 86zM268 307q0 -45 4 -86q143 0 277 35q164 43 248 125q53 51 53 104q0 76 -113 107q-72 20 -172 20h-8q-119 0 -276 -28q-12 -180 -13 -277zM295 807h17q124 0 239 27q158 35 233 104q39 35 39 70q0 98 -245 98q-109 0 -252 -25q-14 -90 -31 -274z" />
<glyph unicode="C" horiz-adv-x="1085" d="M57 598q0 256 150 461q166 227 414 227q115 0 208 -55q72 -43 162 -144q49 -55 49 -114q0 -43 -29.5 -78t-70.5 -35q-39 0 -70 21q-32 23 -32 55v6q0 6 1 18.5t1 18.5q0 18 -4 37q-78 57 -177 57q-190 0 -329 -166q-131 -158 -131 -352q0 -137 84 -236q86 -104 219 -104 q68 0 142.5 28.5t119.5 71.5q23 27 74 80q43 41 96 41q31 0 57.5 -27.5t26.5 -58.5q0 -35 -60 -108q-184 -223 -415 -224q-219 0 -359 187q-127 168 -127 393z" />
<glyph unicode="D" horiz-adv-x="1179" d="M88 176q18 76 37 293q22 271 22 459v16q0 80 -8 117q-8 45 -8 74q0 59 46 106t106 47q31 0 53 -22q154 34 273 34h7q231 0 353 -118q147 -145 147 -348q0 -152 -88 -318q-76 -143 -201 -264q-195 -188 -485 -225q-68 -2 -145 -11q-20 -3 -38 -3q-15 0 -27 2q-28 5 -42 57 q-8 28 -8 55q0 25 6 49zM291 324q0 -43 2 -84q219 6 412 155q260 205 260 406q0 145 -125 211q-98 51 -258 51q-102 0 -242 -21q-49 -416 -49 -718z" />
<glyph unicode="E" horiz-adv-x="1073" d="M68 74q0 47 18 135q18 100 23 135q30 329 30 576v16q0 82 -6 106q-10 49 -10 74q0 57 44 101.5t101 44.5q23 0 41 -13q78 4 230 13q125 8 227 41q27 6 47 6q49 0 88 -41t39 -90q0 -88 -96 -88q-23 0 -72 6t-72 6q-55 0 -366 -33q-20 -131 -29 -305l260 10q145 10 256 43 q33 8 51 8q51 0 95.5 -45t44.5 -98q0 -94 -109 -94q-27 0 -78 5t-75 5q-80 0 -459 -37q-12 -174 -12 -268q0 -53 4 -98l264 12q152 10 262 41q27 8 45 8q49 0 89 -42t40 -89q0 -90 -98 -90q-31 0 -87.5 7t-86.5 7q-150 0 -482 -37q-34 -24 -68 -24h-3q-90 0 -90 86z" />
<glyph unicode="F" horiz-adv-x="1030" d="M63 96q0 29 13 78q27 106 35 236q4 78 12 233q10 205 10 315q0 78 -6 103q-10 45 -10 72q0 57 45 102t102 45q25 0 45 -12q76 2 230 12q129 10 227 39q29 10 51 10q45 0 84 -42t39 -91q0 -90 -94 -90q-23 0 -68 6t-67 6q-55 0 -377 -31q-16 -102 -35 -374q236 12 262 14 q152 12 260 43q29 6 49 6q51 0 96.5 -44t45.5 -95q0 -96 -105 -96q-27 0 -78 5t-75 5q-88 0 -465 -39q-8 -154 -8 -252q0 -23 4 -60.5t4 -58.5q0 -53 -42 -95t-95 -42q-88 0 -89 92z" />
<glyph unicode="G" horiz-adv-x="1210" d="M86 598q0 258 150 467q166 233 413 233q119 0 209 -57q72 -43 160 -145q47 -55 47 -119q0 -43 -28.5 -78t-69.5 -35t-70 21q-35 23 -35 61q0 6 2 20.5t2 22.5q0 16 -4 33q-78 59 -174 59q-193 0 -332 -172q-133 -160 -133 -356q0 -137 84 -240q88 -106 223 -106 q92 0 240 88q160 92 160 174q0 72 -135 72q-141 0 -275 -56q-33 -14 -53 -14q-35 0 -55 37q-14 31 -15 72q0 90 166 135q115 33 240 33q319 -1 319 -216q0 -100 -102 -247q-197 -279 -451 -279q-219 0 -358 193q-125 174 -125 399z" />
<glyph unicode="H" horiz-adv-x="1105" d="M78 111q0 25 14 82q14 63 33 290q25 289 25 482q0 86 -7 114q-10 41 -10 66q0 55 41 102t96 47q86 0 86 -88q0 -18 -6 -51q-20 -102 -43 -420l240 15q158 14 231 34q20 6 31 9q4 106 4 180q0 80 -6 106q-12 45 -12 68q0 55 42 102t97 47q78 0 78 -100q0 -23 -4 -41 q-62 -410 -62 -850q0 -23 3 -72t3 -71q0 -57 -39 -99.5t-92 -42.5q-37 0 -58.5 26t-21.5 63q0 47 19 131q20 96 24 135q4 63 13 188q-39 6 -90 6q-74 0 -410 -37q-8 -160 -8 -258q0 -18 4 -58t4 -56q0 -55 -41 -97.5t-94 -42.5q-37 0 -60.5 27t-23.5 64z" />
<glyph unicode="I" horiz-adv-x="983" d="M55 123q0 98 109 98q27 0 79 -5t76 -5h43q10 49 23 238q16 248 16 421q0 156 -14 189q-2 6 -6 20q-20 -4 -102 -14q-66 -10 -103 -10q-59 0 -59 98q0 100 67 104q94 4 281 15q162 8 276 41q23 6 45 6q55 0 99.5 -39t44.5 -96q-1 -99 -107 -99q-29 0 -80 5.5t-77 5.5h-80 q-39 -313 -39 -707q0 -94 8 -168q39 6 126 18.5t130 12.5q29 0 43 -37q12 -29 12 -59q0 -100 -65 -107q-27 -4 -281 -16q-170 -10 -276 -39q-23 -6 -43 -6q-55 0 -100.5 39t-45.5 96z" />
<glyph unicode="J" horiz-adv-x="1128" d="M72 543q0 86 71 86q31 0 58.5 -28t27.5 -58q0 -12 -4 -36t-4 -36q0 -113 70.5 -190.5t183.5 -77.5q88 0 162 43q82 47 100 125q53 248 54 671v48q-86 0 -222 -17q-189 -22 -221 -22h-2h-8q-63 0 -64 96q0 100 72 108q25 4 162 9q250 10 397 47q23 6 43 6q57 0 100.5 -42 t43.5 -99q0 -93 -113 -93q-6 -113 -18 -338q-16 -238 -52 -358q-55 -205 -183 -295t-261 -90q-172 0 -295 145q-68 76 -86 187q-12 68 -12 209z" />
<glyph unicode="K" horiz-adv-x="1030" d="M66 104q0 25 15 83.5t34 293.5q24 291 24 474v14q0 78 -6 104q-10 45 -10 68q0 57 43 104t100 47q74 0 74 -100q0 -25 -13.5 -110t-15.5 -113q-12 -143 -20 -287q375 369 424 475q47 96 112 107q12 2 31 2q43 0 79 -23.5t36 -64.5q0 -51 -64 -99q-190 -154 -512 -510 q92 -59 232 -143q160 -96 231 -113q86 -21 86 -123q0 -51 -26 -96q-29 -53 -78 -53q-35 0 -86 57q-109 117 -480 328h-2q-2 -70 -2 -121q0 -23 4.5 -72t4.5 -71q0 -59 -37 -102.5t-92 -43.5q-39 0 -62.5 26t-23.5 62z" />
<glyph unicode="L" horiz-adv-x="995" d="M49 100q0 31 14 84q59 231 60 785q0 74 -6 104q-10 39 -11 68q0 53 41 101t95 48q82 0 82 -88q0 -20 -7 -53q-20 -119 -43 -440q-22 -277 -22 -366v-7q0 -59 4 -113q141 4 268 8q176 6 258 31q33 10 54 10q43 0 84 -39.5t41 -85.5q-1 -84 -95 -84q-29 0 -88 7.5t-88 7.5 q-131 0 -483 -37q-35 -23 -72 -23q-86 0 -86 82z" />
<glyph unicode="M" horiz-adv-x="1519" d="M43 102q0 23 29 134q35 129 39 145q33 170 61 391q29 209 29 281q0 12 -3 38.5t-3 38.5q0 61 46 111.5t105 50.5q68 0 68 -80q111 -195 202 -467q31 -92 156 -485l395 889q0 55 41 105.5t97 50.5q92 0 92 -109q0 -45 -3 -134t-3 -136q0 -526 41 -723q6 -29 6 -45 q0 -51 -41 -92t-92 -41q-45 0 -70 28.5t-25 71.5q2 16 11 96q6 51 6 109q0 209 -15 467q-63 -106 -157 -318q-104 -233 -154 -321q-57 -100 -57 -105q-46 -67 -83 -67h-1q-25 0 -49 10q-47 23 -70 59q-12 20 -31 86q-10 29 -35 109q-33 109 -98 319q-55 178 -131 305 q-90 -487 -90 -700q0 -57 -39 -102t-96 -45q-33 0 -55.5 22.5t-22.5 52.5z" />
<glyph unicode="N" horiz-adv-x="1298" d="M76 106q0 25 14 82.5t35 294.5q25 303 25 486q0 78 -7 104q-12 45 -12 68q0 55 45 103t103 48q57 0 71 -61q381 -403 651 -823q29 354 29 577q0 78 -4 98q-12 53 -12 72q0 51 40 99.5t91 48.5q82 0 82 -93q0 -31 -13 -114q-16 -104 -18 -127q-39 -416 -39 -676 q0 -23 4 -66t4 -65q0 -53 -39 -94t-90 -41q-42 -1 -62 29q-14 22 -15 49q0 10 2 20q-338 504 -642 782q-36 -371 -36 -588v-12q0 -25 6 -77t6 -76q0 -53 -41 -95.5t-92 -42.5q-39 0 -62.5 27t-23.5 63z" />
<glyph unicode="O" horiz-adv-x="1333" d="M80 584q0 281 180 497q193 225 469 226q229 0 377 -177q141 -166 141 -397q0 -283 -182 -495q-190 -225 -467 -226q-229 0 -377 172q-141 168 -141 400zM236 553q0 -145 90 -241.5t233 -96.5q209 0 367.5 164t158.5 373q0 145 -89 241.5t-232 96.5q-207 0 -367.5 -165 t-160.5 -372z" />
<glyph unicode="P" horiz-adv-x="1069" d="M59 86q0 47 19 135q18 98 22 133q31 348 31 629q0 23 -9 72t-9 71q0 53 43 99.5t98 46.5q18 0 35 -6q156 49 280 49q172 0 308 -101q149 -110 149 -276q0 -174 -160 -324q-182 -176 -594 -196q-4 -96 -4 -139q0 -23 3 -68t3 -68q0 -57 -34 -100q-37 -47 -93 -47 q-39 0 -63.5 25.5t-24.5 64.5zM285 651q152 0 286 41q166 49 248 146q47 55 47 106q0 82 -108 117q-69 24 -166 24h-8h-8q-112 0 -257 -28q-20 -162 -34 -406z" />
<glyph unicode="Q" horiz-adv-x="1323" d="M96 594q0 274 180 487q188 225 459 226q227 0 375 -179q139 -166 139 -397q0 -309 -217 -532q27 -35 58 -70q32 -45 32 -82q0 -55 -43 -107.5t-96 -52.5q-70 0 -89.5 68t-37.5 115q-131 -59 -256 -60q-225 0 -371 183q-133 168 -133 401zM248 557q0 -147 86 -244 q92 -102 235 -102q96 0 201 49q-35 82 -133 285q-57 115 -57 178q0 131 73 131q14 0 23 -4q43 -16 59 -82q57 -193 187 -399q168 172 168 389q0 143 -90.5 237.5t-231.5 94.5q-205 0 -362.5 -164t-157.5 -369z" />
<glyph unicode="R" horiz-adv-x="1105" d="M74 88q0 47 18 133q18 98 23 135q32 328 32 612v17q0 25 -9 72t-9 69q0 53 43 99.5t98 46.5q12 0 27 -2q150 43 272 43q174 0 316 -96q155 -110 155 -279q0 -115 -77 -229q-115 -166 -414 -236q117 -63 164 -88q115 -57 164 -66q96 -16 96 -131q0 -49 -23 -90 q-26 -51 -73 -51q-35 0 -86 49q-141 133 -502 314q-6 -90 -6 -136q0 -23 4 -64.5t4 -64.5q0 -57 -37 -102t-92 -45q-39 0 -63.5 25.5t-24.5 64.5zM301 647q154 2 289 45q164 51 246 148q47 59 47 112q0 88 -119 129q-80 25 -191 25q-102 -1 -233 -21q-25 -174 -39 -438z" />
<glyph unicode="S" horiz-adv-x="1179" d="M76 899q0 90 52 166t138 115q315 149 565 149h3q68 0 120 -54t52 -122q0 -49 -37 -91t-86 -42q-43 0 -99.5 42t-107.5 42q-86 0 -209 -31q-162 -39 -162 -100q0 -66 160 -113q637 -184 637 -442q0 -201 -240 -326q-201 -106 -422 -106q-323 0 -323 175q0 46 34.5 73.5 t84.5 27.5q31 0 65 -16q33 -14 64 -31q39 -16 133 -16q129 0 247 37q168 51 168 145q0 20 -6 37q-23 76 -258 153q-106 35 -321 101q-111 33 -166 73q-86 59 -86 154z" />
<glyph unicode="T" horiz-adv-x="1060" d="M45 1153q0 100 66 109q86 10 215 14l215 8q119 8 149 12q82 8 144 23q23 6 40 6q55 0 101.5 -40t46.5 -97q-1 -98 -107 -98q-25 0 -78 7t-79 7q-23 0 -68 -2t-65 -2q-57 -389 -58 -787q0 -27 4 -85t4 -85q0 -53 -38.5 -96t-94.5 -43q-37 0 -60.5 26.5t-23.5 63.5 q0 63 19 189q27 143 29 188q26 298 26 479v13q0 43 -14 127q-90 -4 -211 -19l-96 -12q-66 0 -66 94z" />
<glyph unicode="U" horiz-adv-x="1134" d="M102 170q0 203 45 688q16 170 17 182q0 14 -3 44t-3 44q0 61 39 117q43 61 102 62q74 0 74 -78q0 -27 -11 -66q-35 -145 -55 -356q-22 -193 -22 -348v-13q0 -178 39 -198q12 -6 36 -6q88 0 234 39q70 18 231 63q37 358 37 641q0 76 -6 102q-12 47 -12 70q0 53 41 101.5 t94 48.5q86 0 86 -90q0 -45 -12 -121q-14 -96 -17 -123q-39 -404 -39 -676q0 -23 4.5 -65t4.5 -64q0 -53 -41 -95t-97 -42q-42 -1 -62 29q-16 24 -16 55q0 8 1 16l-285 -82q-195 -53 -279 -53q-76 0 -104 53q-20 37 -21 121z" />
<glyph unicode="V" horiz-adv-x="1050" d="M57 1157q0 49 34 94t81 45q20 0 41 -10q41 -18 57 -115q6 -45 23 -135q63 -346 162 -678q283 584 303 725q12 74 53 121q45 53 119 53q33 0 58.5 -20t25.5 -53q0 -29 -31 -86q-92 -156 -258 -529q-61 -141 -88 -209q-53 -131 -74 -213q-33 -129 -160 -129q-82 0 -81 72 q-8 25 -25 135q-18 135 -21 148q-115 557 -182 680q-37 63 -37 104z" />
<glyph unicode="W" horiz-adv-x="1531" d="M82 1147q0 49 37 96t84 47q84 0 84 -121q0 -14 -1 -41.5t-1 -42.5q0 -233 32 -593q49 90 143.5 301t141.5 301q47 82 57 98q46 65 79 65h1q72 0 117 -77q20 -31 33 -80q12 -33 35 -113l92 -297q51 -166 123 -282q29 137 63 391q31 209 31 274q0 10 -2 33.5t-2 34.5 q0 59 47 106t104 47q37 0 62.5 -23.5t25.5 -60.5q0 -31 -20 -123l-33 -129q-106 -553 -106 -782q0 -59 -47.5 -100t-108.5 -41q-78 0 -82 78q-168 279 -344 802l-365 -761v-5q0 -47 -34 -93q-36 -48 -82 -48q-43 0 -64.5 32t-21.5 73q0 23 4 67.5t4 65.5q0 152 -18 418 q-20 311 -48 395q-20 51 -20 88z" />
<glyph unicode="X" horiz-adv-x="1038" d="M76 98q0 31 96 158q61 82 123 164q43 74 133 217q-41 68 -121 197q-33 53 -96 124q-66 78 -88.5 112t-22.5 79q0 47 23.5 82t71.5 35q59 0 182 -209q72 -133 141 -266l98 161q72 123 82 158q18 72 64 117q51 49 121 49q33 0 60.5 -17.5t27.5 -50.5q0 -37 -47 -96 q-92 -121 -312 -475q39 -68 121 -201q53 -72 109 -145q76 -106 76 -146q0 -45 -24 -78.5t-67 -33.5q-20 0 -45 8q-47 18 -84 121q-31 78 -82 166q-33 53 -98 161l-102 -167q-39 -76 -76 -152q-49 -98 -97 -120.5t-83 -22.5q-84 0 -84 71z" />
<glyph unicode="Y" horiz-adv-x="1150" d="M53 1143q0 51 33 89t84 38q74 0 121 -96q63 -139 280 -494l136 223q100 164 114 215q47 166 203 166q35 0 61.5 -19.5t26.5 -52.5t-90 -165q-57 -80 -115 -162q-102 -160 -254 -406q-6 -115 -6 -174q0 -23 4 -64.5t4 -64.5q0 -59 -38.5 -102t-94.5 -43q-37 0 -61.5 25.5 t-24.5 62.5q0 29 15 82q20 74 34 252q-256 455 -362 561q-70 68 -70 129z" />
<glyph unicode="Z" horiz-adv-x="991" d="M51 86q0 74 80 162q45 53 123 170q131 197 225 344q158 256 187 340q-100 0 -226 -12q-14 -2 -135 -19q-86 -12 -135 -12q-57 0 -57 69q0 125 80 134q6 0 284 14q168 10 281 41q31 10 53 10q49 0 86 -41t37 -90q0 -35 -70 -137q-47 -66 -92 -131q-292 -431 -444 -707 q113 6 225 19q27 4 100 20q68 14 90 14q49 0 88 -40.5t39 -90.5q0 -49 -33.5 -77.5t-84.5 -28.5q-31 0 -90.5 6t-90.5 6q-86 0 -229 -16q-193 -27 -233 -27h-7q-51 0 -51 80z" />
<glyph unicode="[" horiz-adv-x="905" d="M63 -98q0 25 13 78q20 78 43 440q33 473 33 723q0 82 -7 98q-10 43 -10 66q0 39 11.5 77.5t50.5 63.5q37 23 79 22q33 0 98.5 -13t100.5 -13q39 0 115 29.5t119 29.5q53 0 101 -38t48 -91q0 -94 -123 -94q-31 0 -94 6t-94 6q-39 0 -205 -37q-25 -197 -49 -661 q-23 -387 -23 -467q0 -72 6 -127q74 -12 113 -12q41 0 116 26.5t118 26.5q53 0 102 -37t49 -88q0 -57 -65 -84q-33 -10 -70 -10q-31 0 -89 5t-89 5q-41 0 -124 -19.5t-120 -19.5q-27 0 -80 14q-74 23 -74 95z" />
<glyph unicode="\" horiz-adv-x="995" d="M86 1202q0 90 90 90q129 0 172 -172q23 -92 234 -446.5t286.5 -435t75.5 -132.5q0 -43 -27.5 -69.5t-72.5 -26.5q-102 0 -146 119q-33 96 -202 385q-223 381 -365 573q-45 66 -45 115z" />
<glyph unicode="]" horiz-adv-x="925" d="M63 -82q0 47 46 72q39 23 90 22q31 0 91 -5t89 -5q39 0 199 33q27 209 51 661q20 416 20 478q0 68 -6 118q-74 14 -113 15q-39 0 -114.5 -30t-116.5 -30q-53 0 -102.5 38t-49.5 89q0 61 68 84q31 14 68 15q31 0 89 -6.5t87 -6.5q43 0 124 21.5t122 21.5q23 0 77 -18 q76 -24 76 -96q0 -23 -12 -76q-18 -76 -43 -432q-33 -465 -33 -717q0 -92 4 -115q12 -41 12 -63q0 -37 -11 -77t-54 -65q-33 -20 -80 -20q-35 0 -100.5 11t-100.5 11q-37 0 -111.5 -28.5t-113.5 -28.5q-53 0 -102.5 38t-49.5 91z" />
<glyph unicode="^" horiz-adv-x="763" d="M70 1034q8 41 43 76q23 25 80 64q51 37 81 71q121 140 236 19q23 -23 76 -64t78 -65q39 -39 44 -99.5t-34 -97.5q-31 -31 -49.5 -22.5t-49.5 40.5q-51 78 -93 118t-79 67q-55 -41 -94 -87t-57 -65q-37 -37 -79 -54t-79 17q-33 35 -24 82z" />
<glyph unicode="_" horiz-adv-x="1372" d="M82 -80q4 51 70 76q49 20 110 20q51 0 154.5 -10t154.5 -10q223 0 383 41q88 25 150 24q59 0 127 -30q80 -39 74 -92q-11 -101 -191 -101q-47 0 -139 5t-141 5q-256 0 -482 -41q-49 -10 -86 -10q-61 0 -121 33q-70 35 -63 90z" />
<glyph unicode="`" horiz-adv-x="653" d="M84 1661q2 55 52 71.5t118 -30.5q328 -143 328 -207q-4 -111 -76 -109q-27 0 -60 19q-92 59 -133 78q-53 25 -145 47q-86 22 -84 131z" />
<glyph unicode="a" horiz-adv-x="1069" d="M43 127q0 43 49 119q59 96 205 444q147 360 160 451q8 76 28 112q27 53 93 66q14 2 36 2q63 0 84 -72q14 -45 17 -86q10 -82 41 -196q66 -258 170 -561q23 -63 57 -142q47 -70 47 -123q0 -49 -24 -92q-29 -53 -76 -53q-51 0 -76 72q-6 39 -25 116l-26 107l-494 -39 l-10 -14l-45 -138q-34 -65 -118 -65h-3q-39 0 -64.5 26.5t-25.5 65.5zM367 436l391 29q-94 322 -164 520q-92 -205 -227 -549z" />
<glyph unicode="b" horiz-adv-x="1075" d="M66 82q0 63 20 186q27 143 29 191q24 282 24 470v15q0 82 -6 109q-10 51 -10 73q0 55 43 100.5t98 45.5q18 0 37 -10q136 38 246 38h6q150 0 272 -67q150 -82 150 -219q0 -150 -164 -250q209 -100 209 -297q0 -211 -295 -356q-188 -92 -512 -99q-31 -16 -59 -16 q-88 0 -88 86zM276 307q0 -45 5 -86q143 0 276 35q164 43 248 125q53 51 53 104q0 76 -113 107q-72 20 -172 20h-8q-119 0 -276 -28q-12 -180 -13 -277zM303 807h17q124 0 239 27q158 35 234 104q38 34 38 68q0 100 -245 100q-109 0 -252 -25q-14 -90 -31 -274z" />
<glyph unicode="c" horiz-adv-x="1085" d="M66 598q0 256 149 461q166 227 414 227q115 0 209 -55q72 -43 161 -144q50 -55 50 -114q0 -43 -30 -78t-71 -35q-39 0 -69 21q-33 24 -33 57q0 8 1 22q1 12 1 19q0 18 -4 37q-78 57 -176 57q-190 0 -330 -166q-131 -158 -131 -352q0 -137 84 -236q86 -104 219 -104 q68 0 142.5 28.5t119.5 71.5q23 27 74 80q43 41 96 41q31 0 57.5 -27.5t26.5 -58.5q0 -35 -59 -108q-184 -223 -416 -224q-219 0 -358 187q-127 168 -127 393z" />
<glyph unicode="d" horiz-adv-x="1165" d="M88 176q18 76 37 293q22 271 22 459v16q0 80 -8 117q-8 45 -8 74q0 59 46 106t106 47q31 0 53 -22q154 34 273 34h7q231 0 353 -118q147 -145 147 -348q0 -152 -88 -318q-76 -143 -201 -264q-195 -188 -485 -225q-68 -2 -145 -11q-20 -3 -38 -3q-15 0 -27 2q-28 5 -42 57 q-8 28 -8 55q0 25 6 49zM291 324q0 -43 2 -84q219 6 412 155q260 205 260 406q0 145 -125 211q-98 51 -258 51q-102 0 -242 -21q-49 -416 -49 -718z" />
<glyph unicode="e" horiz-adv-x="1073" d="M68 74q0 47 18 135q18 100 23 135q30 329 30 576v16q0 82 -6 106q-10 49 -10 74q0 57 44 101.5t101 44.5q23 0 41 -13q78 4 230 13q125 8 227 41q27 6 47 6q49 0 88 -41t39 -90q0 -88 -96 -88q-23 0 -72 6t-72 6q-55 0 -366 -33q-20 -131 -29 -305l260 10q145 10 256 43 q33 8 51 8q51 0 95.5 -45t44.5 -98q0 -94 -109 -94q-27 0 -78 5t-75 5q-80 0 -459 -37q-12 -174 -12 -268q0 -53 4 -98l264 12q152 10 262 41q27 8 45 8q49 0 89 -42t40 -89q0 -90 -98 -90q-31 0 -87.5 7t-86.5 7q-150 0 -482 -37q-34 -24 -68 -24h-3q-90 0 -90 86z" />
<glyph unicode="f" horiz-adv-x="1030" d="M49 96q0 29 12 78q27 106 35 236q4 78 13 233q10 205 10 315q0 78 -6 103q-10 45 -11 72q0 57 45.5 102t102.5 45q25 0 45 -12q76 2 229 12q129 10 228 39q29 10 51 10q45 0 84 -42t39 -91q0 -90 -95 -90q-23 0 -67.5 6t-67.5 6q-55 0 -377 -31q-16 -102 -34 -374 q236 12 262 14q152 12 260 43q29 6 49 6q51 0 96 -44t45 -95q0 -96 -104 -96q-27 0 -78 5t-76 5q-88 0 -465 -39q-8 -154 -8 -252q0 -23 4 -60.5t4 -58.5q0 -53 -42 -95t-95 -42q-88 0 -88 92z" />
<glyph unicode="g" horiz-adv-x="1187" d="M78 598q0 258 149 467q166 233 414 233q119 0 209 -57q72 -43 160 -145q47 -55 47 -119q0 -43 -29 -78t-70 -35t-69 21q-35 23 -35 61q0 6 2 20.5t2 22.5q0 16 -4 33q-78 59 -174 59q-193 0 -332 -172q-133 -160 -133 -356q0 -137 84 -240q88 -106 223 -106q92 0 240 88 q160 92 160 174q0 72 -136 72q-141 0 -274 -56q-33 -14 -53 -14q-35 0 -56 37q-14 31 -14 72q0 90 166 135q115 33 240 33q319 -1 319 -216q0 -100 -102 -247q-197 -279 -451 -279q-219 0 -358 193q-125 174 -125 399z" />
<glyph unicode="h" horiz-adv-x="1083" d="M78 111q0 25 14 82q14 63 33 290q25 289 25 482q0 86 -7 114q-10 41 -10 66q0 55 41 102t96 47q86 0 86 -88q0 -18 -6 -51q-20 -102 -43 -420l240 15q158 14 231 34q20 6 31 9q4 106 4 180q0 80 -6 106q-12 45 -12 68q0 55 42 102t97 47q78 0 78 -100q0 -23 -4 -41 q-62 -410 -62 -850q0 -23 3 -72t3 -71q0 -57 -39 -99.5t-92 -42.5q-37 0 -58.5 26t-21.5 63q0 47 19 131q20 96 24 135q4 63 13 188q-39 6 -90 6q-74 0 -410 -37q-8 -160 -8 -258q0 -18 4 -58t4 -56q0 -55 -41 -97.5t-94 -42.5q-37 0 -60.5 27t-23.5 64z" />
<glyph unicode="i" horiz-adv-x="452" d="M98 100q0 25 19 84q31 92 49 383q18 240 18 394q0 90 -6 112q-16 51 -16 72q0 55 46 101t99 46q82 0 82 -98q0 -23 -6 -45q-74 -371 -74 -846q0 -25 6.5 -77t6.5 -76q0 -51 -42 -93.5t-96 -42.5q-35 0 -60.5 24.5t-25.5 61.5z" />
<glyph unicode="j" horiz-adv-x="1148" d="M74 543q0 86 71 86q31 0 58.5 -28t27.5 -58q0 -12 -4 -36t-4 -36q0 -113 71 -190.5t183 -77.5q88 0 160 43q84 47 102 125q53 248 54 671v48q-86 0 -224 -17q-187 -22 -219 -22h-2h-8q-63 0 -64 96q0 100 72 108q25 4 160 9q252 10 397 47q25 6 45 6q55 0 100.5 -42 t45.5 -99q0 -93 -115 -93q-6 -113 -20 -338q-14 -236 -50 -358q-55 -205 -183 -295t-259 -90q-174 0 -299 145q-68 78 -84 187q-12 61 -12 209z" />
<glyph unicode="k" horiz-adv-x="1015" d="M66 104q0 25 15 83.5t34 293.5q24 291 24 474v14q0 78 -6 104q-10 45 -10 68q0 57 43 104t100 47q74 0 74 -100q0 -25 -13.5 -110t-15.5 -113q-12 -143 -20 -287q375 369 424 475q47 96 112 107q12 2 31 2q43 0 79 -23.5t36 -64.5q0 -51 -64 -99q-190 -154 -512 -510 q92 -59 232 -143q160 -96 231 -113q86 -21 86 -123q0 -51 -26 -96q-29 -53 -78 -53q-35 0 -86 57q-109 117 -480 328h-2q-2 -70 -2 -121q0 -23 4.5 -72t4.5 -71q0 -59 -37 -102.5t-92 -43.5q-39 0 -62.5 26t-23.5 62z" />
<glyph unicode="l" horiz-adv-x="1009" d="M55 100q0 31 15 84q59 231 59 785q0 78 -6 104q-12 43 -12 68q0 53 41 101t94 48q84 0 84 -88q0 -23 -6 -53q-25 -121 -48 -440q-18 -289 -18 -373q0 -59 4 -113q137 4 268 8q174 6 258 31q31 10 52 10q45 0 84 -39.5t39 -85.5q-1 -84 -93 -84q-29 0 -88 7.5t-90 7.5 q-129 0 -479 -37q-35 -23 -72 -23q-86 0 -86 82z" />
<glyph unicode="m" horiz-adv-x="1505" d="M33 102q0 27 28 136q35 127 39 143q29 154 64 391q26 196 26 275v6q0 12 -3 38.5t-3 38.5q0 61 46 111.5t106 50.5q66 0 67 -80q109 -193 201 -467q51 -162 158 -485l397 889q-2 55 40 105.5t95 50.5q92 0 92 -109q0 -45 -3 -134t-3 -136q0 -526 43 -723q7 -29 7 -45 q0 -51 -42 -92t-94 -41q-45 0 -69.5 28.5t-24.5 71.5q16 166 17 205q0 209 -15 467q-59 -100 -155 -318q-106 -231 -155.5 -322t-57.5 -104q-46 -67 -83 -67h-1q-25 0 -50 10q-47 23 -67 59q-16 25 -33 86q-10 29 -35 109q-31 109 -98 319q-55 178 -129 305 q-90 -487 -90 -700q0 -57 -40 -102t-97 -45q-35 0 -56.5 22.5t-21.5 52.5z" />
<glyph unicode="n" horiz-adv-x="1306" d="M76 106q0 25 14 82.5t35 294.5q25 303 25 486q0 78 -7 104q-12 45 -12 68q0 55 45 103t103 48q57 0 71 -61q381 -403 651 -823q29 354 29 577q0 78 -4 98q-12 53 -12 72q0 51 40 99.5t91 48.5q82 0 82 -93q0 -31 -13 -114q-16 -104 -18 -127q-39 -416 -39 -676 q0 -23 4 -66t4 -65q0 -53 -39 -94t-90 -41q-42 -1 -62 29q-14 22 -15 49q0 10 2 20q-338 504 -642 782q-36 -371 -36 -588v-12q0 -25 6 -77t6 -76q0 -53 -41 -95.5t-92 -42.5q-39 0 -62.5 27t-23.5 63z" />
<glyph unicode="o" horiz-adv-x="1320" d="M80 584q0 281 180 497q193 225 469 226q229 0 377 -177q141 -166 141 -397q0 -283 -182 -495q-190 -225 -467 -226q-229 0 -377 172q-141 168 -141 400zM236 553q0 -145 90 -241.5t233 -96.5q209 0 367.5 164t158.5 373q0 145 -89 241.5t-232 96.5q-207 0 -367.5 -165 t-160.5 -372z" />
<glyph unicode="p" horiz-adv-x="1069" d="M59 86q0 47 19 135q18 98 22 133q31 348 31 629q0 23 -9 72t-9 71q0 53 43 99.5t98 46.5q18 0 35 -6q156 49 280 49q172 0 308 -101q149 -110 149 -276q0 -174 -160 -324q-182 -176 -594 -196q-4 -96 -4 -139q0 -23 3 -68t3 -68q0 -57 -34 -100q-37 -47 -93 -47 q-39 0 -63.5 25.5t-24.5 64.5zM285 651q152 0 286 41q166 49 248 146q47 55 47 106q0 82 -108 117q-69 24 -166 24h-8h-8q-112 0 -257 -28q-20 -162 -34 -406z" />
<glyph unicode="q" horiz-adv-x="1304" d="M80 594q0 274 180 487q188 225 459 226q227 0 375 -179q139 -166 139 -397q0 -309 -217 -532q27 -35 57 -70q33 -45 33 -82q0 -55 -43 -107.5t-96 -52.5q-70 0 -89.5 68t-37.5 115q-131 -59 -256 -60q-225 0 -371 183q-133 168 -133 401zM231 557q0 -147 86 -244 q92 -102 236 -102q96 0 201 49q-35 82 -133 285q-57 115 -58 178q0 131 74 131q14 0 22 -4q43 -16 60 -82q57 -193 186 -399q168 172 168 389q0 143 -90 237.5t-231 94.5q-205 0 -363 -164t-158 -369z" />
<glyph unicode="r" horiz-adv-x="1105" d="M74 88q0 47 18 133q18 98 23 135q32 328 32 612v17q0 25 -9 72t-9 69q0 53 43 99.5t98 46.5q12 0 27 -2q150 43 272 43q174 0 316 -96q155 -110 155 -279q0 -115 -77 -229q-115 -166 -414 -236q117 -63 164 -88q115 -57 164 -66q96 -16 96 -131q0 -49 -23 -90 q-26 -51 -73 -51q-35 0 -86 49q-141 133 -502 314q-6 -90 -6 -136q0 -23 4 -64.5t4 -64.5q0 -57 -37 -102t-92 -45q-39 0 -63.5 25.5t-24.5 64.5zM301 647q154 2 289 45q164 51 246 148q47 59 47 112q0 88 -119 129q-80 25 -191 25q-102 -1 -233 -21q-25 -174 -39 -438z" />
<glyph unicode="s" horiz-adv-x="1179" d="M76 899q0 90 52 166t138 115q315 149 565 149h3q68 0 120 -54t52 -122q0 -49 -37 -91t-86 -42q-43 0 -99.5 42t-107.5 42q-86 0 -209 -31q-162 -39 -162 -100q0 -66 160 -113q637 -184 637 -442q0 -201 -240 -326q-201 -106 -422 -106q-323 0 -323 175q0 46 34.5 73.5 t84.5 27.5q31 0 65 -16q33 -14 64 -31q39 -16 133 -16q129 0 247 37q168 51 168 145q0 20 -6 37q-23 76 -258 153q-106 35 -321 101q-111 33 -166 73q-86 59 -86 154z" />
<glyph unicode="t" horiz-adv-x="1064" d="M47 1153q0 100 66 109q86 10 215 14l217 8q115 8 145 12q82 8 146 23q23 6 41 6q55 0 101 -40t46 -97q0 -98 -106 -98q-25 0 -78.5 7t-77.5 7q-23 0 -69 -2t-66 -2q-57 -389 -58 -787q0 -27 4.5 -85t4.5 -85q0 -53 -39 -96t-95 -43q-37 0 -61.5 26.5t-24.5 63.5 q0 63 21 189q25 143 29 188q24 297 24 478v14q0 43 -12 127q-92 -4 -213 -19l-94 -12q-66 0 -66 94z" />
<glyph unicode="u" horiz-adv-x="1120" d="M78 170q0 203 45 688q16 170 16 182q0 14 -3 44t-3 44q0 61 39 117q43 61 102 62q74 0 74 -78q0 -27 -10 -66q-35 -145 -55 -356q-23 -201 -23 -361q0 -178 39 -198q12 -6 37 -6q88 0 233 39q70 18 232 63q37 358 37 641q0 76 -7 102q-12 47 -12 70q0 53 41 101.5 t94 48.5q86 0 86 -90q0 -45 -12 -121q-14 -96 -16 -123q-39 -404 -39 -676q0 -23 4 -65t4 -64q0 -53 -41 -95t-96 -42q-42 -1 -62 29q-17 25 -17 58q0 6 1 13l-285 -82q-195 -53 -278 -53q-76 0 -105 53q-20 37 -20 121z" />
<glyph unicode="v" horiz-adv-x="1050" d="M59 1157q0 49 33 94t82 45q18 0 41 -10q39 -18 57 -115q6 -45 23 -135q63 -346 162 -678q283 584 303 725q12 74 53 121q45 53 119 53q33 0 58.5 -20t25.5 -53q0 -29 -31 -86q-92 -156 -258 -529q-57 -129 -90 -209q-51 -131 -74 -213q-31 -129 -157 -129q-82 0 -82 72 q-10 25 -25 135q-18 135 -23 148q-113 557 -180 680q-37 63 -37 104z" />
<glyph unicode="w" horiz-adv-x="1509" d="M66 1147q0 49 36.5 96t83.5 47q84 0 84 -121q0 -14 -1 -41.5t-1 -42.5q0 -233 33 -593q49 90 143.5 301t141.5 301q47 82 57 98q46 65 79 65h1q72 0 117 -77q20 -31 32 -80q12 -33 35 -113l92 -297q51 -166 123 -282q29 137 64 391q31 209 31 274q0 10 -2.5 33.5 t-2.5 34.5q0 59 47.5 106t104.5 47q37 0 62.5 -23.5t25.5 -60.5q0 -31 -20 -123l-33 -129q-107 -553 -107 -782q0 -59 -47 -100t-108 -41q-78 0 -82 78q-168 279 -344 802l-365 -761v-5q0 -47 -34 -93q-36 -48 -83 -48q-43 0 -64.5 32t-21.5 73q0 23 4.5 67.5t4.5 65.5 q0 152 -19 418q-20 311 -47 395q-20 51 -20 88z" />
<glyph unicode="x" horiz-adv-x="1032" d="M68 98q0 31 96 158q61 82 123 164q43 74 133 217q-41 68 -121 197q-33 53 -96 124q-66 78 -88.5 112t-22.5 71q0 55 23.5 90t70.5 35q59 0 183 -209q72 -133 141 -266q35 53 98 161q68 117 82 158q18 72 64 117q51 49 120 49q33 0 61 -17.5t28 -50.5q0 -37 -48 -96 q-92 -121 -311 -475q39 -68 121 -201q53 -72 109 -145q75 -105 75 -145q0 -46 -23.5 -79.5t-66.5 -33.5q-20 0 -45 8q-47 18 -84 121q-31 78 -82 166q-33 53 -98 161l-102 -167q-39 -76 -76 -152q-49 -98 -97.5 -120.5t-82.5 -22.5q-84 0 -84 71z" />
<glyph unicode="y" horiz-adv-x="1161" d="M55 1143q0 51 32 89t83 38q76 0 121 -96q66 -139 282 -494l136 223q100 164 114 215q47 166 203 166q33 0 60.5 -19.5t27.5 -52.5t-90 -165q-57 -80 -117 -162q-100 -160 -252 -406q-6 -115 -6 -174q0 -23 4 -64.5t4 -64.5q0 -59 -38.5 -102t-94.5 -43q-39 0 -62.5 25.5 t-23.5 62.5q0 29 15 82q18 74 34 252q-258 455 -362 561q-70 68 -70 129z" />
<glyph unicode="z" horiz-adv-x="980" d="M51 86q0 74 80 162q45 53 123 170q131 197 225 344q158 256 187 340q-100 0 -226 -12q-14 -2 -135 -19q-86 -12 -135 -12q-57 0 -57 69q0 125 80 134q6 0 284 14q168 10 281 41q31 10 53 10q49 0 86 -41t37 -90q0 -35 -70 -137q-47 -66 -92 -131q-292 -431 -444 -707 q113 6 225 19q27 4 100 20q68 14 90 14q49 0 88 -40.5t39 -90.5q0 -49 -33.5 -77.5t-84.5 -28.5q-31 0 -90.5 6t-90.5 6q-86 0 -229 -16q-193 -27 -233 -27h-7q-51 0 -51 80z" />
<glyph unicode="{" horiz-adv-x="1380" d="M61 655q0 49 50 78q43 23 96 23q45 0 131 -11.5t129 -11.5q170 0 307 43q68 23 119 23q59 0 115 -33q66 -37 65 -92q0 -99 -145 -99q-39 0 -116 4.5t-116 4.5q-217 0 -399 -39q-43 -10 -76 -10q-53 0 -104 34q-55 35 -56 86zM465 1335q0 39 28.5 67t69.5 28q45 0 127 -52 q197 -125 387 -133q80 -4 135 -41q66 -41 66 -117q0 -43 -26.5 -66.5t-67.5 -23.5q-43 0 -99 31q-250 131 -471 162q-63 10 -106 47t-43 98zM522 -23q0 109 123 148q209 68 440 240q61 45 111 45q43 0 67.5 -27t24.5 -70q0 -131 -176 -166q-193 -41 -362 -192 q-81 -72 -132 -72q-43 0 -69.5 27t-26.5 67z" />
<glyph unicode="|" horiz-adv-x="518" d="M94 -145q0 25 19 86q29 92 67 626q18 240 25 547q0 88 -6 111q-14 51 -15 73q0 53 45 99.5t99 46.5q82 0 82 -96q0 -23 -7 -48q-80 -522 -98 -1243q0 -23 5 -76t5 -75q0 -53 -42 -94t-93 -41q-35 0 -60.5 23.5t-25.5 60.5z" />
<glyph unicode="}" horiz-adv-x="1366" d="M90 991q0 135 170 172q190 41 363 195q76 70 129 69q43 0 70.5 -26.5t27.5 -69.5q0 -109 -123 -149q-219 -70 -438 -236q-64 -45 -115 -45q-39 0 -61.5 25.5t-22.5 64.5zM94 221q0 39 28 63.5t68 24.5q41 0 99 -26q254 -133 471 -164q66 -10 106.5 -47.5t40.5 -98.5 q0 -37 -28.5 -63.5t-65.5 -26.5q-33 0 -149 60q-139 70 -168 80q-115 41 -201 40q-78 0 -137 39q-63 45 -64 119zM297 637q0 53 59 76q41 20 103 20q37 0 110.5 -5t112.5 -5q211 0 393 43q41 8 72 8q55 0 106 -33q57 -37 58 -90q0 -51 -47 -76q-38 -20 -95 -20 q-41 0 -126 10t-128 10q-186 0 -317 -43q-72 -25 -121 -24q-57 0 -117 37q-63 37 -63 92z" />
<glyph unicode="~" horiz-adv-x="937" d="M80 592q4 25 15 48.5t22 47.5q10 29 32.5 52.5t49.5 39.5q29 16 66.5 24.5t70.5 -1.5q74 -12 106 -80q33 -63 99 -72q90 -12 151 45q23 23 33 48.5t33 43.5q20 20 59 21q12 0 23.5 -2t21.5 -10q29 -27 29 -64q0 -10 -2 -22.5t-6 -22.5q-16 -37 -31.5 -71.5t-48.5 -61.5 q-41 -27 -86 -46.5t-92 -29.5q-20 -2 -40 -3t-38 -1q-61 0 -114.5 18.5t-82.5 75.5q-12 23 -29.5 40.5t-48.5 6.5q-27 -8 -45 -35.5t-28 -52.5q-10 -29 -28.5 -50t-53.5 1q-29 16 -36 48t-1 65z" />
<glyph unicode="&#xa0;" />
<glyph unicode="&#xa1;" horiz-adv-x="548" d="M70 98q0 25 10 60q102 362 102 669q0 57 39 100.5t94 43.5q37 0 61.5 -24.5t24.5 -59.5q0 -33 -24 -94q-29 -80 -53 -256q-20 -162 -21 -265q0 -18 4 -54t4 -54q0 -61 -47 -108.5t-108 -47.5q-86 0 -86 90zM231 1274q0 45 35 81t80 36q53 0 93 -35t40 -86t-33.5 -90 t-85.5 -39q-51 0 -90 42t-39 91z" />
<glyph unicode="&#xa2;" horiz-adv-x="972" d="M115 305q-59 164 0 332q12 29 27.5 62.5t34 66.5t41 60.5t46.5 45.5q39 27 86 46.5t94 29.5q-8 27 -10 53.5t-12 55.5q-14 43 -13 83t35 77q27 31 70 39t78 -29q16 -14 23.5 -31.5t8.5 -37t-3.5 -39t-6.5 -34.5q-6 -72 -6 -133q45 -4 90 -11t74 -36q20 -18 37.5 -49 t26 -64.5t4.5 -65.5t-27 -50q-35 -29 -81 -35t-79 23q-12 12 -20 26.5t-16.5 26.5t-18.5 20t-25 8q-33 4 -71.5 -7t-67.5 -23q-82 -41 -117.5 -114t-31.5 -159q2 -51 17 -85.5t42 -58.5t66 -39t88 -28q41 -8 85 -1.5t83 22.5q39 23 61.5 33t60.5 32q29 16 72 13.5t66 -39.5 q18 -39 -6.5 -79t-53.5 -69q-41 -45 -107.5 -78.5t-135.5 -50.5q0 -25 4 -47t10 -51q12 -43 15 -83t-31 -81q-29 -29 -74 -35t-76 23q-33 31 -31 73t9 78q2 29 3 59t1 64q-51 10 -99.5 33t-93.5 51q-61 33 -91 89.5t-54 117.5z" />
<glyph unicode="&#xa3;" horiz-adv-x="1292" d="M37 57q10 43 39.5 78t75.5 43q25 2 45 2t38.5 2t37 8.5t40.5 24.5q33 29 53.5 63.5t36.5 73.5q10 37 11.5 72t-4.5 70q-68 -10 -129 -27q-39 -8 -66 -8q-51 0 -91 35.5t-36 83.5q2 47 43 75q37 27 86 27q37 0 121 -14l-33 55q-59 86 -64 184.5t52 194.5q33 57 79 101 t101 73t116.5 42t125.5 9q59 -6 120.5 -18t114.5 -43q25 -14 48.5 -32t44 -38t32.5 -46t12 -56q2 -25 -5 -53.5t-21 -54.5t-35.5 -46t-50.5 -27q-14 -2 -33.5 1t-37 9.5t-31 18.5t-15.5 29q-2 10 2 19t10.5 18.5t11.5 17.5t5 18q4 20 -23.5 36t-66.5 25t-77 12t-54 1 q-106 -8 -174 -68.5t-70 -164.5q2 -47 23.5 -83t54.5 -69q12 -16 23.5 -33.5t21.5 -35.5q84 10 157 36q59 23 103 23q51 0 99 -37t44 -90q-2 -47 -51 -74q-37 -20 -88 -20q-31 0 -91.5 4t-90.5 4h-37q6 -78 -8.5 -156t-55.5 -143q35 10 86.5 7t94.5 -3l186 -14q51 -4 88 -2 t80 24q41 20 82 34.5t86 -7.5q25 -12 32 -31.5t1.5 -42t-19.5 -45.5t-33 -37q-39 -39 -89 -56.5t-101 -25.5q-49 -6 -95 0t-94 13q-59 4 -117.5 8t-123.5 0q-61 -4 -120.5 -8.5t-117.5 -26.5q-23 -6 -46 -16.5t-46.5 -19.5t-47.5 -14t-46 -1q-47 4 -90 34.5t-39 77.5z" />
<glyph unicode="&#xa8;" />
<glyph unicode="&#xad;" horiz-adv-x="989" d="M66 666q2 47 43 75q37 27 86 27q37 0 110.5 -11.5t110.5 -11.5q147 0 264 41q59 23 102 23q51 0 99.5 -37t44.5 -90q-2 -47 -52 -74q-37 -20 -88 -20q-31 0 -91 4t-91 4q-190 0 -346 -41q-39 -8 -65 -8q-51 0 -91.5 35.5t-35.5 83.5z" />
<glyph unicode="&#xb0;" horiz-adv-x="620" d="M61 1186q5 74 45 121q29 31 65 51t75 33q59 20 123 0q61 -18 110 -61.5t72 -102.5q20 -68 3 -135.5t-65 -120.5q-39 -49 -104.5 -65.5t-131 -5.5t-117.5 50t-66 103q-14 59 -9 133zM224 1122.5q7 -28.5 28 -47.5q23 -12 54 -14t54 14q29 16 32 43t-7 51q-12 43 -51 61.5 t-80 -3.5q-27 -18 -29 -53q-8 -23 -1 -51.5z" />
<glyph unicode="&#xb4;" horiz-adv-x="604" d="M72 1503q12 23 43 45q92 53 131 82q45 35 106 109q58 65 156 12q47 -25 39 -76t-82 -92q-274 -225 -334 -197q-96 53 -59 117z" />
<glyph unicode="&#xbf;" horiz-adv-x="1126" d="M92 205q0 111 119 225q92 88 215 148q39 18 301 122q23 10 31 17q12 10 14 31q0 8 -2 19t-2 17q0 102 102 103q59 0 81 -23.5t22 -85.5q0 -68 -27 -125q-29 -72 -84 -86q-78 -20 -229 -59q-117 -33 -215 -94q-141 -86 -142 -146q0 -72 166 -71q131 0 389 90q23 8 78 28 q59 39 82 39q35 0 58 -37q18 -31 18 -67q0 -61 -45 -90q-104 -66 -268 -113q-158 -45 -283 -45q-139 0 -238 37q-141 53 -141 166zM772 1188q0 45 34 82t79 37q53 0 93 -35t40 -86q0 -47 -34 -88t-81 -41q-49 0 -90 41t-41 90z" />
<glyph unicode="&#xc7;" horiz-adv-x="1085" d="M80 598q0 256 149 461q166 227 414 227q115 0 209 -55q72 -43 162 -144q49 -55 49 -114q0 -43 -29.5 -78t-70.5 -35q-39 0 -70 21q-35 25 -33 61q0 6 1 18.5t1 18.5q0 18 -4 37q-78 57 -176 57q-190 0 -330 -166q-131 -158 -131 -352q0 -137 84 -236q86 -104 219 -104 q68 0 142.5 28.5t119.5 71.5q23 27 74 80q43 41 96 41q31 0 57.5 -27.5t26.5 -58.5q0 -35 -59 -108q-115 -139 -248 -193q12 -35 24.5 -75t12.5 -83q0 -41 -16.5 -81.5t-57.5 -69.5q-49 -35 -91 -48.5t-77 -13.5q-39 0 -71.5 9.5t-61.5 15.5t-45 38t-16 66q0 35 20.5 61 t67.5 11q25 -8 48.5 -11t43.5 -3q35 0 56.5 14.5t21.5 48.5q0 35 -27 90q-219 0 -358 187q-127 168 -127 393z" />
<glyph unicode="&#xd2;" />
<glyph unicode="&#xd3;" />
<glyph unicode="&#xd4;" />
<glyph unicode="&#xd5;" />
<glyph unicode="&#x2000;" horiz-adv-x="887" />
<glyph unicode="&#x2001;" horiz-adv-x="1774" />
<glyph unicode="&#x2002;" horiz-adv-x="887" />
<glyph unicode="&#x2003;" horiz-adv-x="1774" />
<glyph unicode="&#x2004;" horiz-adv-x="591" />
<glyph unicode="&#x2005;" horiz-adv-x="443" />
<glyph unicode="&#x2006;" horiz-adv-x="295" />
<glyph unicode="&#x2007;" horiz-adv-x="295" />
<glyph unicode="&#x2008;" horiz-adv-x="221" />
<glyph unicode="&#x2009;" horiz-adv-x="354" />
<glyph unicode="&#x200a;" horiz-adv-x="98" />
<glyph unicode="&#x2010;" horiz-adv-x="989" d="M66 666q2 47 43 75q37 27 86 27q37 0 110.5 -11.5t110.5 -11.5q147 0 264 41q59 23 102 23q51 0 99.5 -37t44.5 -90q-2 -47 -52 -74q-37 -20 -88 -20q-31 0 -91 4t-91 4q-190 0 -346 -41q-39 -8 -65 -8q-51 0 -91.5 35.5t-35.5 83.5z" />
<glyph unicode="&#x2011;" horiz-adv-x="989" d="M66 666q2 47 43 75q37 27 86 27q37 0 110.5 -11.5t110.5 -11.5q147 0 264 41q59 23 102 23q51 0 99.5 -37t44.5 -90q-2 -47 -52 -74q-37 -20 -88 -20q-31 0 -91 4t-91 4q-190 0 -346 -41q-39 -8 -65 -8q-51 0 -91.5 35.5t-35.5 83.5z" />
<glyph unicode="&#x2012;" horiz-adv-x="989" d="M66 666q2 47 43 75q37 27 86 27q37 0 110.5 -11.5t110.5 -11.5q147 0 264 41q59 23 102 23q51 0 99.5 -37t44.5 -90q-2 -47 -52 -74q-37 -20 -88 -20q-31 0 -91 4t-91 4q-190 0 -346 -41q-39 -8 -65 -8q-51 0 -91.5 35.5t-35.5 83.5z" />
<glyph unicode="&#x2013;" horiz-adv-x="1998" d="M96 666q0 47 39 75q35 27 84 27q37 0 112 -11.5t111 -11.5q147 0 260 41q57 23 101 23q51 0 102 -37t51 -90q0 -47 -47 -74q-35 -20 -86 -20q-31 0 -91 4t-91 4q-190 0 -344 -41q-37 -8 -64 -8q-51 0 -94 35.5t-43 83.5zM1061 702q0 47 39 76q35 25 84 25 q37 0 111.5 -11.5t111.5 -11.5q147 0 260 43q57 23 98 23q53 0 104.5 -38t51.5 -89q0 -49 -47 -76q-35 -20 -86 -20q-31 0 -91.5 4t-90.5 4q-190 0 -344 -39q-37 -10 -64 -10q-51 0 -94 35.5t-43 84.5z" />
<glyph unicode="&#x2014;" horiz-adv-x="2007" d="M96 666q0 47 39 75q35 27 84 27q37 0 112 -11.5t111 -11.5q147 0 260 41q57 23 101 23q51 0 102 -37t51 -90q0 -47 -47 -74q-35 -20 -86 -20q-31 0 -91 4t-91 4q-190 0 -344 -41q-37 -8 -64 -8q-51 0 -94 35.5t-43 83.5zM1061 702q0 47 39 76q35 25 84 25 q37 0 111.5 -11.5t111.5 -11.5q147 0 260 43q57 23 98 23q53 0 104.5 -38t51.5 -89q0 -49 -47 -76q-35 -20 -86 -20q-31 0 -91.5 4t-90.5 4q-190 0 -344 -39q-37 -10 -64 -10q-51 0 -94 35.5t-43 84.5z" />
<glyph unicode="&#x2018;" horiz-adv-x="526" d="M94 1278q0 74 109 74q84 0 116 -41q25 -35 25 -121q0 -76 54.5 -159.5t54.5 -110.5q0 -72 -91 -72q-117 0 -192.5 201.5t-75.5 228.5z" />
<glyph unicode="&#x2019;" horiz-adv-x="512" d="M90 920q0 35 27 71q43 63 51 82q14 27 27 139q10 92 43 113q41 27 98 27q111 0 110 -76q0 -27 -71.5 -201t-108.5 -200.5t-88 -26.5q-88 0 -88 72z" />
<glyph unicode="&#x201c;" horiz-adv-x="823" d="M68 1278q0 74 108 74q84 0 117 -41q25 -35 24 -121q0 -76 54.5 -159.5t54.5 -110.5q0 -72 -92 -72q-115 0 -193 199q-74 207 -73 231zM385 1364q0 72 111 72q143 0 143 -148q0 -80 25 -133q8 -14 53 -78q26 -36 26 -71q0 -74 -92 -74q-115 0 -190.5 202.5t-75.5 229.5z " />
<glyph unicode="&#x201d;" horiz-adv-x="831" d="M88 1004q0 33 48 104.5t54 103.5q4 94 7 107q6 68 42.5 92.5t94.5 24.5q113 0 112 -74q0 -27 -75.5 -228.5t-192.5 -201.5q-90 0 -90 72zM406 920q0 33 28 71q37 53 51.5 83t26.5 140q10 90 43 111q43 27 102 27q106 0 107 -74q0 -25 -75.5 -227.5t-192.5 -202.5 q-90 0 -90 72z" />
<glyph unicode="&#x2022;" horiz-adv-x="516" d="M88 631q0 78 52.5 139t127.5 61q80 0 140.5 -61t60.5 -139q0 -76 -52 -131.5t-126 -55.5q-78 0 -140.5 53.5t-62.5 133.5z" />
<glyph unicode="&#x2026;" horiz-adv-x="1417" d="M145 131q0 49 34 89t83 40q51 0 91 -41t40 -90q0 -45 -35 -81t-82 -36q-51 0 -91 34t-40 85zM610 131q0 49 34 89t83 40t89 -41t40 -90q0 -45 -35 -81t-80 -36q-51 0 -91 34t-40 85zM1075 131q0 49 34 89t81 40q51 0 91 -41t40 -90q0 -45 -36 -81t-81 -36q-53 0 -91 34 t-38 85z" />
<glyph unicode="&#x202f;" horiz-adv-x="354" />
<glyph unicode="&#x205f;" horiz-adv-x="443" />
<glyph unicode="&#x20ac;" horiz-adv-x="1261" d="M68 479q0 37 38 60q35 20 84 20q37 0 111 -10q2 0 2 12v37q0 39 2 76q-14 0 -29 -4q-37 -6 -61 -6q-53 0 -95 28.5t-42 71.5q0 39 39 61q35 16 82 17q37 0 110 -8q14 -2 27 -3q37 121 117 228q164 227 411 227q117 0 207 -51q104 -186 -67 -162h-99q-193 0 -330 -166 q-31 -37 -55 -76q88 8 162 31q59 16 100 17q55 0 105.5 -30t50.5 -75q0 -39 -45 -59q-39 -18 -90 -19q-31 0 -91.5 4.5t-88.5 4.5q-84 0 -160 -9q-18 -68 -19 -141v-14q125 4 230 34q57 18 98 19q55 0 105.5 -30t50.5 -75q0 -39 -45 -59q-37 -18 -88 -18q-31 0 -91.5 3 t-89.5 3q-76 0 -143 -4q18 -51 55 -95q88 -104 222 -104q68 0 141.5 28.5t118.5 71.5q223 88 194 -73q-182 -223 -416 -224q-217 0 -356 187q-68 88 -100 192q-33 -4 -62 -10q-39 -8 -63 -8q-51 0 -94 29.5t-43 70.5z" />
<glyph unicode="&#x2122;" horiz-adv-x="1417" d="M94 1290q0 57 90 66h135q121 4 189 18q12 4 18 4q31 0 55.5 -20.5t24.5 -50.5q1 -52 -69 -52q-55 6 -70 7h-58.5t-11.5 0q-31 -193 -30 -416q0 -14 3 -44t3 -44q0 -70 -80 -70q-37 0 -37 39q0 16 10 51q31 109 31 381q0 68 -6 96q-18 -2 -80 -8q-49 -6 -80 -6 q-37 0 -37 49zM582 733q0 16 14 58q20 61 45 220.5t25 227.5q-2 37 -2 58.5t22.5 44t56.5 22.5q33 0 35 -43q53 -96 105 -244q41 -125 82 -252l206 463q-2 31 20.5 57.5t53.5 26.5q45 0 45 -65q0 -23 -1 -74t-1 -76q0 -262 23 -362q2 -15 2 -29q0 -70 -82 -70q-39 0 -39 52 q0 25 7 75.5t7 77.5q0 20 -10 203q-35 -61 -96.5 -192.5t-98.5 -196.5q-23 -35 -45 -35q-10 0 -24 6q-37 16 -51 78q-66 258 -138 381q-49 -252 -49 -369q0 -78 -82 -78q-31 0 -30 35z" />
<glyph unicode="&#x25fc;" horiz-adv-x="1280" d="M0 0v1280h1280v-1280h-1280z" />
</font>
</defs>
</svg>
